<?xml version="1.0" encoding="utf-8" standalone="no"?>
<!DOCTYPE svg PUBLIC "-//W3C//DTD SVG 1.1//EN"
  "http://www.w3.org/Graphics/SVG/1.1/DTD/svg11.dtd">
<svg xmlns:xlink="http://www.w3.org/1999/xlink" width="460.8pt" height="345.6pt" viewBox="0 0 460.8 345.6" xmlns="http://www.w3.org/2000/svg" version="1.1">
 <metadata>
  <rdf:RDF xmlns:dc="http://purl.org/dc/elements/1.1/" xmlns:cc="http://creativecommons.org/ns#" xmlns:rdf="http://www.w3.org/1999/02/22-rdf-syntax-ns#">
   <cc:Work>
    <dc:type rdf:resource="http://purl.org/dc/dcmitype/StillImage"/>
    <dc:date>2022-02-12T19:30:41.518309</dc:date>
    <dc:format>image/svg+xml</dc:format>
    <dc:creator>
     <cc:Agent>
      <dc:title>Matplotlib v3.5.1, https://matplotlib.org/</dc:title>
     </cc:Agent>
    </dc:creator>
   </cc:Work>
  </rdf:RDF>
 </metadata>
 <defs>
  <style type="text/css">*{stroke-linejoin: round; stroke-linecap: butt}</style>
 </defs>
 <g id="figure_1">
  <g id="patch_1">
   <path d="M 0 345.6 
L 460.8 345.6 
L 460.8 0 
L 0 0 
z
" style="fill: #ffffff"/>
  </g>
  <g id="axes_1">
   <g id="patch_2">
    <path d="M 57.6 307.584 
L 414.72 307.584 
L 414.72 41.472 
L 57.6 41.472 
z
" style="fill: #ffffff"/>
   </g>
   <g id="matplotlib.axis_1">
    <g id="xtick_1">
     <g id="line2d_1">
      <path d="M 73.832727 307.584 
L 73.832727 41.472 
" clip-path="url(#pc5441ed410)" style="fill: none; stroke: #b0b0b0; stroke-width: 0.8; stroke-linecap: square"/>
     </g>
     <g id="line2d_2">
      <defs>
       <path id="mcc25d82e47" d="M 0 0 
L 0 3.5 
" style="stroke: #000000; stroke-width: 0.8"/>
      </defs>
      <g>
       <use xlink:href="#mcc25d82e47" x="73.832727" y="307.584" style="stroke: #000000; stroke-width: 0.8"/>
      </g>
     </g>
     <g id="text_1">
      <!-- 0 -->
      <g transform="translate(70.651477 322.182437)scale(0.1 -0.1)">
       <defs>
        <path id="DejaVuSans-30" d="M 2034 4250 
Q 1547 4250 1301 3770 
Q 1056 3291 1056 2328 
Q 1056 1369 1301 889 
Q 1547 409 2034 409 
Q 2525 409 2770 889 
Q 3016 1369 3016 2328 
Q 3016 3291 2770 3770 
Q 2525 4250 2034 4250 
z
M 2034 4750 
Q 2819 4750 3233 4129 
Q 3647 3509 3647 2328 
Q 3647 1150 3233 529 
Q 2819 -91 2034 -91 
Q 1250 -91 836 529 
Q 422 1150 422 2328 
Q 422 3509 836 4129 
Q 1250 4750 2034 4750 
z
" transform="scale(0.015625)"/>
       </defs>
       <use xlink:href="#DejaVuSans-30"/>
      </g>
     </g>
    </g>
    <g id="xtick_2">
     <g id="line2d_3">
      <path d="M 128.304966 307.584 
L 128.304966 41.472 
" clip-path="url(#pc5441ed410)" style="fill: none; stroke: #b0b0b0; stroke-width: 0.8; stroke-linecap: square"/>
     </g>
     <g id="line2d_4">
      <g>
       <use xlink:href="#mcc25d82e47" x="128.304966" y="307.584" style="stroke: #000000; stroke-width: 0.8"/>
      </g>
     </g>
     <g id="text_2">
      <!-- 50 -->
      <g transform="translate(121.942466 322.182437)scale(0.1 -0.1)">
       <defs>
        <path id="DejaVuSans-35" d="M 691 4666 
L 3169 4666 
L 3169 4134 
L 1269 4134 
L 1269 2991 
Q 1406 3038 1543 3061 
Q 1681 3084 1819 3084 
Q 2600 3084 3056 2656 
Q 3513 2228 3513 1497 
Q 3513 744 3044 326 
Q 2575 -91 1722 -91 
Q 1428 -91 1123 -41 
Q 819 9 494 109 
L 494 744 
Q 775 591 1075 516 
Q 1375 441 1709 441 
Q 2250 441 2565 725 
Q 2881 1009 2881 1497 
Q 2881 1984 2565 2268 
Q 2250 2553 1709 2553 
Q 1456 2553 1204 2497 
Q 953 2441 691 2322 
L 691 4666 
z
" transform="scale(0.015625)"/>
       </defs>
       <use xlink:href="#DejaVuSans-35"/>
       <use xlink:href="#DejaVuSans-30" x="63.623047"/>
      </g>
     </g>
    </g>
    <g id="xtick_3">
     <g id="line2d_5">
      <path d="M 182.777206 307.584 
L 182.777206 41.472 
" clip-path="url(#pc5441ed410)" style="fill: none; stroke: #b0b0b0; stroke-width: 0.8; stroke-linecap: square"/>
     </g>
     <g id="line2d_6">
      <g>
       <use xlink:href="#mcc25d82e47" x="182.777206" y="307.584" style="stroke: #000000; stroke-width: 0.8"/>
      </g>
     </g>
     <g id="text_3">
      <!-- 100 -->
      <g transform="translate(173.233456 322.182437)scale(0.1 -0.1)">
       <defs>
        <path id="DejaVuSans-31" d="M 794 531 
L 1825 531 
L 1825 4091 
L 703 3866 
L 703 4441 
L 1819 4666 
L 2450 4666 
L 2450 531 
L 3481 531 
L 3481 0 
L 794 0 
L 794 531 
z
" transform="scale(0.015625)"/>
       </defs>
       <use xlink:href="#DejaVuSans-31"/>
       <use xlink:href="#DejaVuSans-30" x="63.623047"/>
       <use xlink:href="#DejaVuSans-30" x="127.246094"/>
      </g>
     </g>
    </g>
    <g id="xtick_4">
     <g id="line2d_7">
      <path d="M 237.249445 307.584 
L 237.249445 41.472 
" clip-path="url(#pc5441ed410)" style="fill: none; stroke: #b0b0b0; stroke-width: 0.8; stroke-linecap: square"/>
     </g>
     <g id="line2d_8">
      <g>
       <use xlink:href="#mcc25d82e47" x="237.249445" y="307.584" style="stroke: #000000; stroke-width: 0.8"/>
      </g>
     </g>
     <g id="text_4">
      <!-- 150 -->
      <g transform="translate(227.705695 322.182437)scale(0.1 -0.1)">
       <use xlink:href="#DejaVuSans-31"/>
       <use xlink:href="#DejaVuSans-35" x="63.623047"/>
       <use xlink:href="#DejaVuSans-30" x="127.246094"/>
      </g>
     </g>
    </g>
    <g id="xtick_5">
     <g id="line2d_9">
      <path d="M 291.721684 307.584 
L 291.721684 41.472 
" clip-path="url(#pc5441ed410)" style="fill: none; stroke: #b0b0b0; stroke-width: 0.8; stroke-linecap: square"/>
     </g>
     <g id="line2d_10">
      <g>
       <use xlink:href="#mcc25d82e47" x="291.721684" y="307.584" style="stroke: #000000; stroke-width: 0.8"/>
      </g>
     </g>
     <g id="text_5">
      <!-- 200 -->
      <g transform="translate(282.177934 322.182437)scale(0.1 -0.1)">
       <defs>
        <path id="DejaVuSans-32" d="M 1228 531 
L 3431 531 
L 3431 0 
L 469 0 
L 469 531 
Q 828 903 1448 1529 
Q 2069 2156 2228 2338 
Q 2531 2678 2651 2914 
Q 2772 3150 2772 3378 
Q 2772 3750 2511 3984 
Q 2250 4219 1831 4219 
Q 1534 4219 1204 4116 
Q 875 4013 500 3803 
L 500 4441 
Q 881 4594 1212 4672 
Q 1544 4750 1819 4750 
Q 2544 4750 2975 4387 
Q 3406 4025 3406 3419 
Q 3406 3131 3298 2873 
Q 3191 2616 2906 2266 
Q 2828 2175 2409 1742 
Q 1991 1309 1228 531 
z
" transform="scale(0.015625)"/>
       </defs>
       <use xlink:href="#DejaVuSans-32"/>
       <use xlink:href="#DejaVuSans-30" x="63.623047"/>
       <use xlink:href="#DejaVuSans-30" x="127.246094"/>
      </g>
     </g>
    </g>
    <g id="xtick_6">
     <g id="line2d_11">
      <path d="M 346.193923 307.584 
L 346.193923 41.472 
" clip-path="url(#pc5441ed410)" style="fill: none; stroke: #b0b0b0; stroke-width: 0.8; stroke-linecap: square"/>
     </g>
     <g id="line2d_12">
      <g>
       <use xlink:href="#mcc25d82e47" x="346.193923" y="307.584" style="stroke: #000000; stroke-width: 0.8"/>
      </g>
     </g>
     <g id="text_6">
      <!-- 250 -->
      <g transform="translate(336.650173 322.182437)scale(0.1 -0.1)">
       <use xlink:href="#DejaVuSans-32"/>
       <use xlink:href="#DejaVuSans-35" x="63.623047"/>
       <use xlink:href="#DejaVuSans-30" x="127.246094"/>
      </g>
     </g>
    </g>
    <g id="xtick_7">
     <g id="line2d_13">
      <path d="M 400.666162 307.584 
L 400.666162 41.472 
" clip-path="url(#pc5441ed410)" style="fill: none; stroke: #b0b0b0; stroke-width: 0.8; stroke-linecap: square"/>
     </g>
     <g id="line2d_14">
      <g>
       <use xlink:href="#mcc25d82e47" x="400.666162" y="307.584" style="stroke: #000000; stroke-width: 0.8"/>
      </g>
     </g>
     <g id="text_7">
      <!-- 300 -->
      <g transform="translate(391.122412 322.182437)scale(0.1 -0.1)">
       <defs>
        <path id="DejaVuSans-33" d="M 2597 2516 
Q 3050 2419 3304 2112 
Q 3559 1806 3559 1356 
Q 3559 666 3084 287 
Q 2609 -91 1734 -91 
Q 1441 -91 1130 -33 
Q 819 25 488 141 
L 488 750 
Q 750 597 1062 519 
Q 1375 441 1716 441 
Q 2309 441 2620 675 
Q 2931 909 2931 1356 
Q 2931 1769 2642 2001 
Q 2353 2234 1838 2234 
L 1294 2234 
L 1294 2753 
L 1863 2753 
Q 2328 2753 2575 2939 
Q 2822 3125 2822 3475 
Q 2822 3834 2567 4026 
Q 2313 4219 1838 4219 
Q 1578 4219 1281 4162 
Q 984 4106 628 3988 
L 628 4550 
Q 988 4650 1302 4700 
Q 1616 4750 1894 4750 
Q 2613 4750 3031 4423 
Q 3450 4097 3450 3541 
Q 3450 3153 3228 2886 
Q 3006 2619 2597 2516 
z
" transform="scale(0.015625)"/>
       </defs>
       <use xlink:href="#DejaVuSans-33"/>
       <use xlink:href="#DejaVuSans-30" x="63.623047"/>
       <use xlink:href="#DejaVuSans-30" x="127.246094"/>
      </g>
     </g>
    </g>
    <g id="text_8">
     <!-- Generations -->
     <g transform="translate(205.662344 335.860562)scale(0.1 -0.1)">
      <defs>
       <path id="DejaVuSans-47" d="M 3809 666 
L 3809 1919 
L 2778 1919 
L 2778 2438 
L 4434 2438 
L 4434 434 
Q 4069 175 3628 42 
Q 3188 -91 2688 -91 
Q 1594 -91 976 548 
Q 359 1188 359 2328 
Q 359 3472 976 4111 
Q 1594 4750 2688 4750 
Q 3144 4750 3555 4637 
Q 3966 4525 4313 4306 
L 4313 3634 
Q 3963 3931 3569 4081 
Q 3175 4231 2741 4231 
Q 1884 4231 1454 3753 
Q 1025 3275 1025 2328 
Q 1025 1384 1454 906 
Q 1884 428 2741 428 
Q 3075 428 3337 486 
Q 3600 544 3809 666 
z
" transform="scale(0.015625)"/>
       <path id="DejaVuSans-65" d="M 3597 1894 
L 3597 1613 
L 953 1613 
Q 991 1019 1311 708 
Q 1631 397 2203 397 
Q 2534 397 2845 478 
Q 3156 559 3463 722 
L 3463 178 
Q 3153 47 2828 -22 
Q 2503 -91 2169 -91 
Q 1331 -91 842 396 
Q 353 884 353 1716 
Q 353 2575 817 3079 
Q 1281 3584 2069 3584 
Q 2775 3584 3186 3129 
Q 3597 2675 3597 1894 
z
M 3022 2063 
Q 3016 2534 2758 2815 
Q 2500 3097 2075 3097 
Q 1594 3097 1305 2825 
Q 1016 2553 972 2059 
L 3022 2063 
z
" transform="scale(0.015625)"/>
       <path id="DejaVuSans-6e" d="M 3513 2113 
L 3513 0 
L 2938 0 
L 2938 2094 
Q 2938 2591 2744 2837 
Q 2550 3084 2163 3084 
Q 1697 3084 1428 2787 
Q 1159 2491 1159 1978 
L 1159 0 
L 581 0 
L 581 3500 
L 1159 3500 
L 1159 2956 
Q 1366 3272 1645 3428 
Q 1925 3584 2291 3584 
Q 2894 3584 3203 3211 
Q 3513 2838 3513 2113 
z
" transform="scale(0.015625)"/>
       <path id="DejaVuSans-72" d="M 2631 2963 
Q 2534 3019 2420 3045 
Q 2306 3072 2169 3072 
Q 1681 3072 1420 2755 
Q 1159 2438 1159 1844 
L 1159 0 
L 581 0 
L 581 3500 
L 1159 3500 
L 1159 2956 
Q 1341 3275 1631 3429 
Q 1922 3584 2338 3584 
Q 2397 3584 2469 3576 
Q 2541 3569 2628 3553 
L 2631 2963 
z
" transform="scale(0.015625)"/>
       <path id="DejaVuSans-61" d="M 2194 1759 
Q 1497 1759 1228 1600 
Q 959 1441 959 1056 
Q 959 750 1161 570 
Q 1363 391 1709 391 
Q 2188 391 2477 730 
Q 2766 1069 2766 1631 
L 2766 1759 
L 2194 1759 
z
M 3341 1997 
L 3341 0 
L 2766 0 
L 2766 531 
Q 2569 213 2275 61 
Q 1981 -91 1556 -91 
Q 1019 -91 701 211 
Q 384 513 384 1019 
Q 384 1609 779 1909 
Q 1175 2209 1959 2209 
L 2766 2209 
L 2766 2266 
Q 2766 2663 2505 2880 
Q 2244 3097 1772 3097 
Q 1472 3097 1187 3025 
Q 903 2953 641 2809 
L 641 3341 
Q 956 3463 1253 3523 
Q 1550 3584 1831 3584 
Q 2591 3584 2966 3190 
Q 3341 2797 3341 1997 
z
" transform="scale(0.015625)"/>
       <path id="DejaVuSans-74" d="M 1172 4494 
L 1172 3500 
L 2356 3500 
L 2356 3053 
L 1172 3053 
L 1172 1153 
Q 1172 725 1289 603 
Q 1406 481 1766 481 
L 2356 481 
L 2356 0 
L 1766 0 
Q 1100 0 847 248 
Q 594 497 594 1153 
L 594 3053 
L 172 3053 
L 172 3500 
L 594 3500 
L 594 4494 
L 1172 4494 
z
" transform="scale(0.015625)"/>
       <path id="DejaVuSans-69" d="M 603 3500 
L 1178 3500 
L 1178 0 
L 603 0 
L 603 3500 
z
M 603 4863 
L 1178 4863 
L 1178 4134 
L 603 4134 
L 603 4863 
z
" transform="scale(0.015625)"/>
       <path id="DejaVuSans-6f" d="M 1959 3097 
Q 1497 3097 1228 2736 
Q 959 2375 959 1747 
Q 959 1119 1226 758 
Q 1494 397 1959 397 
Q 2419 397 2687 759 
Q 2956 1122 2956 1747 
Q 2956 2369 2687 2733 
Q 2419 3097 1959 3097 
z
M 1959 3584 
Q 2709 3584 3137 3096 
Q 3566 2609 3566 1747 
Q 3566 888 3137 398 
Q 2709 -91 1959 -91 
Q 1206 -91 779 398 
Q 353 888 353 1747 
Q 353 2609 779 3096 
Q 1206 3584 1959 3584 
z
" transform="scale(0.015625)"/>
       <path id="DejaVuSans-73" d="M 2834 3397 
L 2834 2853 
Q 2591 2978 2328 3040 
Q 2066 3103 1784 3103 
Q 1356 3103 1142 2972 
Q 928 2841 928 2578 
Q 928 2378 1081 2264 
Q 1234 2150 1697 2047 
L 1894 2003 
Q 2506 1872 2764 1633 
Q 3022 1394 3022 966 
Q 3022 478 2636 193 
Q 2250 -91 1575 -91 
Q 1294 -91 989 -36 
Q 684 19 347 128 
L 347 722 
Q 666 556 975 473 
Q 1284 391 1588 391 
Q 1994 391 2212 530 
Q 2431 669 2431 922 
Q 2431 1156 2273 1281 
Q 2116 1406 1581 1522 
L 1381 1569 
Q 847 1681 609 1914 
Q 372 2147 372 2553 
Q 372 3047 722 3315 
Q 1072 3584 1716 3584 
Q 2034 3584 2315 3537 
Q 2597 3491 2834 3397 
z
" transform="scale(0.015625)"/>
      </defs>
      <use xlink:href="#DejaVuSans-47"/>
      <use xlink:href="#DejaVuSans-65" x="77.490234"/>
      <use xlink:href="#DejaVuSans-6e" x="139.013672"/>
      <use xlink:href="#DejaVuSans-65" x="202.392578"/>
      <use xlink:href="#DejaVuSans-72" x="263.916016"/>
      <use xlink:href="#DejaVuSans-61" x="305.029297"/>
      <use xlink:href="#DejaVuSans-74" x="366.308594"/>
      <use xlink:href="#DejaVuSans-69" x="405.517578"/>
      <use xlink:href="#DejaVuSans-6f" x="433.300781"/>
      <use xlink:href="#DejaVuSans-6e" x="494.482422"/>
      <use xlink:href="#DejaVuSans-73" x="557.861328"/>
     </g>
    </g>
   </g>
   <g id="matplotlib.axis_2">
    <g id="ytick_1">
     <g id="line2d_15">
      <path d="M 57.6 258.860153 
L 414.72 258.860153 
" clip-path="url(#pc5441ed410)" style="fill: none; stroke: #b0b0b0; stroke-width: 0.8; stroke-linecap: square"/>
     </g>
     <g id="line2d_16">
      <defs>
       <path id="mcadaf75bf5" d="M 0 0 
L -3.5 0 
" style="stroke: #000000; stroke-width: 0.8"/>
      </defs>
      <g>
       <use xlink:href="#mcadaf75bf5" x="57.6" y="258.860153" style="stroke: #000000; stroke-width: 0.8"/>
      </g>
     </g>
     <g id="text_9">
      <!-- 0 -->
      <g transform="translate(44.2375 262.659372)scale(0.1 -0.1)">
       <use xlink:href="#DejaVuSans-30"/>
      </g>
     </g>
    </g>
    <g id="ytick_2">
     <g id="line2d_17">
      <path d="M 57.6 207.539999 
L 414.72 207.539999 
" clip-path="url(#pc5441ed410)" style="fill: none; stroke: #b0b0b0; stroke-width: 0.8; stroke-linecap: square"/>
     </g>
     <g id="line2d_18">
      <g>
       <use xlink:href="#mcadaf75bf5" x="57.6" y="207.539999" style="stroke: #000000; stroke-width: 0.8"/>
      </g>
     </g>
     <g id="text_10">
      <!-- 50000 -->
      <g transform="translate(18.7875 211.339218)scale(0.1 -0.1)">
       <use xlink:href="#DejaVuSans-35"/>
       <use xlink:href="#DejaVuSans-30" x="63.623047"/>
       <use xlink:href="#DejaVuSans-30" x="127.246094"/>
       <use xlink:href="#DejaVuSans-30" x="190.869141"/>
       <use xlink:href="#DejaVuSans-30" x="254.492188"/>
      </g>
     </g>
    </g>
    <g id="ytick_3">
     <g id="line2d_19">
      <path d="M 57.6 156.219845 
L 414.72 156.219845 
" clip-path="url(#pc5441ed410)" style="fill: none; stroke: #b0b0b0; stroke-width: 0.8; stroke-linecap: square"/>
     </g>
     <g id="line2d_20">
      <g>
       <use xlink:href="#mcadaf75bf5" x="57.6" y="156.219845" style="stroke: #000000; stroke-width: 0.8"/>
      </g>
     </g>
     <g id="text_11">
      <!-- 100000 -->
      <g transform="translate(12.425 160.019064)scale(0.1 -0.1)">
       <use xlink:href="#DejaVuSans-31"/>
       <use xlink:href="#DejaVuSans-30" x="63.623047"/>
       <use xlink:href="#DejaVuSans-30" x="127.246094"/>
       <use xlink:href="#DejaVuSans-30" x="190.869141"/>
       <use xlink:href="#DejaVuSans-30" x="254.492188"/>
       <use xlink:href="#DejaVuSans-30" x="318.115234"/>
      </g>
     </g>
    </g>
    <g id="ytick_4">
     <g id="line2d_21">
      <path d="M 57.6 104.899691 
L 414.72 104.899691 
" clip-path="url(#pc5441ed410)" style="fill: none; stroke: #b0b0b0; stroke-width: 0.8; stroke-linecap: square"/>
     </g>
     <g id="line2d_22">
      <g>
       <use xlink:href="#mcadaf75bf5" x="57.6" y="104.899691" style="stroke: #000000; stroke-width: 0.8"/>
      </g>
     </g>
     <g id="text_12">
      <!-- 150000 -->
      <g transform="translate(12.425 108.69891)scale(0.1 -0.1)">
       <use xlink:href="#DejaVuSans-31"/>
       <use xlink:href="#DejaVuSans-35" x="63.623047"/>
       <use xlink:href="#DejaVuSans-30" x="127.246094"/>
       <use xlink:href="#DejaVuSans-30" x="190.869141"/>
       <use xlink:href="#DejaVuSans-30" x="254.492188"/>
       <use xlink:href="#DejaVuSans-30" x="318.115234"/>
      </g>
     </g>
    </g>
    <g id="ytick_5">
     <g id="line2d_23">
      <path d="M 57.6 53.579537 
L 414.72 53.579537 
" clip-path="url(#pc5441ed410)" style="fill: none; stroke: #b0b0b0; stroke-width: 0.8; stroke-linecap: square"/>
     </g>
     <g id="line2d_24">
      <g>
       <use xlink:href="#mcadaf75bf5" x="57.6" y="53.579537" style="stroke: #000000; stroke-width: 0.8"/>
      </g>
     </g>
     <g id="text_13">
      <!-- 200000 -->
      <g transform="translate(12.425 57.378756)scale(0.1 -0.1)">
       <use xlink:href="#DejaVuSans-32"/>
       <use xlink:href="#DejaVuSans-30" x="63.623047"/>
       <use xlink:href="#DejaVuSans-30" x="127.246094"/>
       <use xlink:href="#DejaVuSans-30" x="190.869141"/>
       <use xlink:href="#DejaVuSans-30" x="254.492188"/>
       <use xlink:href="#DejaVuSans-30" x="318.115234"/>
      </g>
     </g>
    </g>
    <g id="text_14">
     <!-- Fitness -->
     <g transform="translate(6.345312 191.845187)rotate(-90)scale(0.1 -0.1)">
      <defs>
       <path id="DejaVuSans-46" d="M 628 4666 
L 3309 4666 
L 3309 4134 
L 1259 4134 
L 1259 2759 
L 3109 2759 
L 3109 2228 
L 1259 2228 
L 1259 0 
L 628 0 
L 628 4666 
z
" transform="scale(0.015625)"/>
      </defs>
      <use xlink:href="#DejaVuSans-46"/>
      <use xlink:href="#DejaVuSans-69" x="50.269531"/>
      <use xlink:href="#DejaVuSans-74" x="78.052734"/>
      <use xlink:href="#DejaVuSans-6e" x="117.261719"/>
      <use xlink:href="#DejaVuSans-65" x="180.640625"/>
      <use xlink:href="#DejaVuSans-73" x="242.164062"/>
      <use xlink:href="#DejaVuSans-73" x="294.263672"/>
     </g>
    </g>
   </g>
   <g id="line2d_25">
    <path d="M 73.832727 257.492549 
L 79.279951 257.697279 
L 82.548286 257.516919 
L 83.63773 257.698534 
L 85.81662 257.681119 
L 86.906065 257.530633 
L 87.995509 257.699653 
L 89.084954 257.509641 
L 90.174399 257.745776 
L 96.711068 257.54659 
L 98.889957 257.14581 
L 101.068847 257.485955 
L 102.158292 257.202934 
L 103.247736 257.401325 
L 104.337181 257.199672 
L 105.426626 257.446429 
L 106.516071 257.108413 
L 109.784405 257.184783 
L 110.87385 256.454207 
L 111.963295 257.018475 
L 113.052739 256.337569 
L 114.142184 256.510485 
L 115.231629 256.997611 
L 116.321074 257.073273 
L 117.410519 256.241337 
L 118.499963 256.551828 
L 119.589408 257.067195 
L 120.678853 256.549692 
L 121.768298 256.568308 
L 122.857743 256.894476 
L 125.036632 255.927057 
L 126.126077 256.549943 
L 127.215522 256.695728 
L 128.304966 257.045865 
L 129.394411 257.006006 
L 130.483856 256.425277 
L 131.573301 256.807777 
L 132.662746 256.753344 
L 133.75219 256.102578 
L 134.841635 257.180314 
L 135.93108 256.662119 
L 137.020525 256.45129 
L 138.109969 257.071948 
L 139.199414 256.375958 
L 140.288859 256.018219 
L 141.378304 256.459959 
L 142.467749 255.957338 
L 143.557193 256.019967 
L 144.646638 257.100441 
L 145.736083 256.265021 
L 147.914973 255.799723 
L 149.004417 256.414494 
L 150.093862 255.968427 
L 151.183307 256.268038 
L 152.272752 256.938898 
L 153.362196 256.436922 
L 154.451641 256.857037 
L 155.541086 256.680125 
L 156.630531 257.125588 
L 157.719976 256.662731 
L 158.80942 256.637941 
L 160.98831 256.325745 
L 162.077755 255.027354 
L 163.1672 256.731982 
L 164.256644 256.257961 
L 165.346089 255.325806 
L 166.435534 256.332028 
L 167.524979 256.492978 
L 168.614423 256.050191 
L 169.703868 256.727621 
L 170.793313 256.847095 
L 171.882758 256.255385 
L 172.972203 256.644234 
L 174.061647 256.447379 
L 175.151092 255.927591 
L 177.329982 255.521074 
L 178.419426 255.773399 
L 179.508871 256.276287 
L 180.598316 255.277364 
L 181.687761 255.71869 
L 183.86665 255.964179 
L 184.956095 255.516261 
L 186.04554 256.942847 
L 187.134985 255.959475 
L 188.22443 255.904924 
L 189.313874 256.538414 
L 190.403319 255.66553 
L 191.492764 255.216966 
L 192.582209 255.683264 
L 194.761098 256.179595 
L 195.850543 256.004758 
L 196.939988 256.548024 
L 198.029433 255.852222 
L 199.118877 255.96489 
L 200.208322 256.267572 
L 201.297767 257.084831 
L 202.387212 256.597079 
L 204.566101 256.695638 
L 206.744991 256.365085 
L 207.834436 255.472257 
L 208.92388 256.628274 
L 210.013325 256.425363 
L 211.10277 255.880836 
L 212.192215 255.73779 
L 213.28166 255.820298 
L 214.371104 256.652152 
L 215.460549 254.809186 
L 216.549994 254.676161 
L 217.639439 255.596563 
L 218.728883 253.530205 
L 219.818328 255.627641 
L 220.907773 256.464119 
L 221.997218 255.591832 
L 223.086663 255.50679 
L 224.176107 256.426292 
L 225.265552 255.497875 
L 226.354997 256.897838 
L 227.444442 254.964564 
L 228.533887 255.103109 
L 229.623331 256.675218 
L 230.712776 256.346338 
L 231.802221 254.967839 
L 232.891666 256.85144 
L 233.98111 255.822696 
L 236.16 255.294137 
L 237.249445 255.796724 
L 238.33889 255.338707 
L 239.428334 256.359681 
L 241.607224 256.544586 
L 242.696669 256.000009 
L 243.786113 255.970394 
L 244.875558 256.366013 
L 245.965003 256.890872 
L 247.054448 256.489662 
L 248.143893 255.468599 
L 250.322782 256.30056 
L 251.412227 255.885548 
L 252.501672 256.442208 
L 253.591117 256.50361 
L 254.680561 255.908043 
L 255.770006 256.273892 
L 257.948896 255.901357 
L 259.03834 255.910134 
L 260.127785 255.677846 
L 261.21723 256.333854 
L 262.306675 256.314934 
L 263.39612 255.521961 
L 264.485564 255.616427 
L 265.575009 255.564023 
L 266.664454 254.752283 
L 267.753899 254.933903 
L 268.843344 255.83693 
L 269.932788 254.551977 
L 271.022233 255.43857 
L 272.111678 255.196844 
L 273.201123 256.136253 
L 274.290567 255.289591 
L 275.380012 255.376879 
L 276.469457 254.373689 
L 277.558902 254.463123 
L 278.648347 255.725798 
L 279.737791 256.569781 
L 280.827236 255.677156 
L 283.006126 255.685828 
L 284.09557 255.523849 
L 286.27446 255.448095 
L 287.363905 257.227787 
L 288.45335 255.358168 
L 289.542794 255.553472 
L 290.632239 255.604127 
L 291.721684 255.516429 
L 292.811129 255.580679 
L 293.900574 254.98664 
L 294.990018 256.304464 
L 296.079463 255.76991 
L 297.168908 255.950289 
L 298.258353 255.273051 
L 299.347797 255.199378 
L 300.437242 255.557476 
L 302.616132 255.334107 
L 303.705577 254.595216 
L 304.795021 255.315135 
L 305.884466 254.55465 
L 306.973911 255.003962 
L 308.063356 256.559433 
L 309.1528 256.575163 
L 310.242245 255.387318 
L 312.421135 255.026718 
L 313.51058 254.525324 
L 314.600024 254.958281 
L 315.689469 254.402477 
L 316.778914 255.31617 
L 317.868359 254.875242 
L 318.957804 255.139979 
L 320.047248 255.663733 
L 321.136693 254.801706 
L 322.226138 254.964271 
L 323.315583 257.244692 
L 324.405027 253.507497 
L 325.494472 253.712379 
L 326.583917 255.190474 
L 327.673362 254.370596 
L 328.762807 254.001429 
L 329.852251 254.003177 
L 330.941696 254.716943 
L 333.120586 253.341659 
L 334.210031 255.165545 
L 335.299475 255.403677 
L 336.38892 252.930376 
L 337.478365 254.302127 
L 338.56781 254.760181 
L 339.657254 253.650273 
L 340.746699 255.726602 
L 341.836144 255.024746 
L 342.925589 255.10388 
L 344.015034 255.326261 
L 345.104478 256.880929 
L 346.193923 255.814738 
L 347.283368 255.286 
L 348.372813 256.256372 
L 349.462257 256.386788 
L 350.551702 255.631248 
L 351.641147 255.43577 
L 354.909481 255.610513 
L 355.998926 255.395158 
L 357.088371 256.015785 
L 358.177816 255.203898 
L 359.267261 255.51254 
L 360.356705 254.579442 
L 361.44615 256.627674 
L 362.535595 255.947516 
L 363.62504 256.07445 
L 364.714484 255.35698 
L 365.803929 254.328004 
L 366.893374 255.014962 
L 367.982819 255.486384 
L 369.072264 256.89284 
L 370.161708 255.764873 
L 371.251153 255.722959 
L 372.340598 256.270924 
L 373.430043 255.52648 
L 374.519487 254.970411 
L 375.608932 255.271199 
L 376.698377 253.798657 
L 377.787822 255.59321 
L 378.877267 254.231039 
L 379.966711 254.293023 
L 381.056156 252.902374 
L 382.145601 251.243378 
L 383.235046 251.376621 
L 384.324491 254.387749 
L 385.413935 251.971146 
L 386.50338 254.124414 
L 387.592825 253.972606 
L 388.68227 256.235696 
L 389.771714 255.198521 
L 390.861159 255.204265 
L 391.950604 255.339723 
L 393.040049 257.042891 
L 394.129494 254.306594 
L 395.218938 254.955377 
L 396.308383 254.914698 
L 397.397828 247.101238 
L 398.487273 234.95175 
L 398.487273 234.95175 
" clip-path="url(#pc5441ed410)" style="fill: none; stroke: #0000ff; stroke-width: 1.5; stroke-linecap: square"/>
   </g>
   <g id="line2d_26">
    <path d="M 73.832727 258.456926 
L 74.922172 258.722707 
L 76.011617 258.546224 
L 78.190506 258.583372 
L 79.279951 258.471721 
L 82.548286 258.758494 
L 83.63773 258.469625 
L 86.906065 258.731698 
L 87.995509 258.576142 
L 89.084954 258.77258 
L 90.174399 258.495514 
L 92.353289 258.537459 
L 94.532178 258.474476 
L 95.621623 258.587118 
L 96.711068 258.344187 
L 97.800513 258.333901 
L 98.889957 258.546037 
L 99.979402 258.174392 
L 101.068847 258.36467 
L 102.158292 258.135768 
L 103.247736 258.309988 
L 104.337181 258.207284 
L 105.426626 258.272143 
L 106.516071 257.964638 
L 107.605516 257.991664 
L 108.69496 258.156041 
L 109.784405 258.130962 
L 110.87385 257.823095 
L 111.963295 257.9974 
L 113.052739 257.827317 
L 114.142184 257.826831 
L 116.321074 258.176375 
L 117.410519 258.110397 
L 118.499963 258.359494 
L 121.768298 258.015057 
L 122.857743 258.03391 
L 123.947187 258.173804 
L 125.036632 257.724267 
L 126.126077 257.890351 
L 127.215522 258.450682 
L 128.304966 258.059401 
L 130.483856 257.976026 
L 131.573301 257.754779 
L 132.662746 258.479857 
L 133.75219 256.7061 
L 134.841635 258.180471 
L 135.93108 258.080693 
L 138.109969 258.04318 
L 139.199414 258.01195 
L 140.288859 257.780818 
L 141.378304 258.109926 
L 144.646638 257.993864 
L 145.736083 258.265836 
L 146.825528 257.989638 
L 147.914973 257.577385 
L 149.004417 258.042377 
L 150.093862 257.036484 
L 152.272752 257.893483 
L 153.362196 258.271341 
L 154.451641 257.877481 
L 155.541086 257.612675 
L 156.630531 258.150048 
L 157.719976 257.932476 
L 158.80942 257.905882 
L 159.898865 258.188858 
L 160.98831 257.769983 
L 162.077755 257.774056 
L 163.1672 257.578163 
L 164.256644 258.344061 
L 165.346089 257.309094 
L 167.524979 257.716557 
L 169.703868 257.457635 
L 170.793313 257.90816 
L 171.882758 258.213707 
L 172.972203 257.837267 
L 174.061647 258.04251 
L 175.151092 257.350397 
L 176.240537 257.901385 
L 177.329982 257.3791 
L 178.419426 257.968364 
L 179.508871 258.021378 
L 180.598316 257.633516 
L 181.687761 257.962904 
L 182.777206 257.975246 
L 183.86665 258.397264 
L 184.956095 257.171802 
L 186.04554 257.933725 
L 187.134985 258.395686 
L 188.22443 257.953206 
L 189.313874 258.378477 
L 191.492764 257.337731 
L 193.671653 257.685423 
L 194.761098 258.180811 
L 195.850543 257.617735 
L 196.939988 257.524155 
L 198.029433 256.626792 
L 199.118877 258.636948 
L 200.208322 258.071886 
L 201.297767 258.319417 
L 202.387212 258.349904 
L 203.476656 258.542797 
L 207.834436 258.214673 
L 208.92388 258.473985 
L 211.10277 257.91184 
L 212.192215 257.986957 
L 213.28166 257.341458 
L 214.371104 257.595802 
L 215.460549 257.501467 
L 216.549994 258.042016 
L 217.639439 258.025831 
L 218.728883 257.711193 
L 220.907773 258.718991 
L 221.997218 258.602969 
L 223.086663 258.075594 
L 224.176107 258.15126 
L 225.265552 258.852961 
L 226.354997 257.946744 
L 227.444442 257.829577 
L 228.533887 258.323896 
L 229.623331 258.007511 
L 230.712776 258.720514 
L 231.802221 258.278069 
L 232.891666 258.401209 
L 236.16 258.254598 
L 237.249445 257.948777 
L 238.33889 258.504759 
L 239.428334 257.789964 
L 240.517779 257.513133 
L 241.607224 257.623424 
L 242.696669 258.01166 
L 243.786113 257.839721 
L 244.875558 257.075451 
L 245.965003 257.772057 
L 247.054448 257.616238 
L 248.143893 257.620683 
L 249.233337 258.995742 
L 250.322782 258.747905 
L 251.412227 259.106181 
L 252.501672 258.606786 
L 253.591117 258.830108 
L 254.680561 257.999712 
L 255.770006 258.542431 
L 259.03834 258.596981 
L 260.127785 257.741081 
L 261.21723 259.22935 
L 262.306675 259.039122 
L 263.39612 258.653162 
L 264.485564 259.133851 
L 265.575009 259.100144 
L 266.664454 257.631961 
L 267.753899 258.37525 
L 268.843344 258.460068 
L 269.932788 257.008934 
L 271.022233 258.623064 
L 272.111678 258.162092 
L 275.380012 258.557169 
L 276.469457 257.969698 
L 277.558902 258.049184 
L 278.648347 257.774499 
L 279.737791 258.433623 
L 280.827236 258.471103 
L 281.916681 257.769126 
L 283.006126 258.802211 
L 285.185015 258.334757 
L 286.27446 257.949058 
L 287.363905 257.951214 
L 288.45335 258.188688 
L 289.542794 257.862737 
L 291.721684 258.142212 
L 292.811129 258.550474 
L 293.900574 257.747711 
L 294.990018 258.278301 
L 296.079463 258.038257 
L 297.168908 258.259289 
L 298.258353 257.988983 
L 299.347797 258.301105 
L 300.437242 257.960259 
L 301.526687 258.375393 
L 302.616132 257.522811 
L 304.795021 257.608797 
L 305.884466 257.663263 
L 306.973911 258.449719 
L 308.063356 258.849645 
L 309.1528 258.246279 
L 310.242245 257.925421 
L 311.33169 257.93925 
L 312.421135 257.725719 
L 313.51058 257.814892 
L 314.600024 258.794781 
L 315.689469 258.27547 
L 316.778914 258.792859 
L 317.868359 258.287612 
L 318.957804 258.312145 
L 320.047248 258.14859 
L 321.136693 258.308639 
L 322.226138 257.726766 
L 323.315583 258.374626 
L 324.405027 257.593564 
L 325.494472 257.175938 
L 326.583917 258.425393 
L 328.762807 258.174332 
L 329.852251 258.199885 
L 333.120586 257.510885 
L 334.210031 258.54128 
L 335.299475 258.404187 
L 336.38892 256.919084 
L 338.56781 258.09092 
L 339.657254 257.183248 
L 340.746699 258.509558 
L 341.836144 259.058397 
L 344.015034 258.663568 
L 345.104478 258.054734 
L 346.193923 258.92617 
L 347.283368 258.84268 
L 348.372813 258.418526 
L 349.462257 259.127184 
L 350.551702 258.669538 
L 351.641147 258.344975 
L 352.730592 257.80683 
L 353.820037 257.910038 
L 354.909481 258.734318 
L 355.998926 257.780913 
L 358.177816 258.480471 
L 359.267261 257.962947 
L 360.356705 257.7066 
L 361.44615 257.607367 
L 362.535595 258.795645 
L 363.62504 259.057008 
L 364.714484 258.721862 
L 365.803929 257.681704 
L 366.893374 258.316063 
L 367.982819 257.843049 
L 369.072264 258.166137 
L 370.161708 258.166648 
L 371.251153 257.987259 
L 372.340598 258.844756 
L 373.430043 258.274879 
L 374.519487 258.82647 
L 375.608932 258.19386 
L 376.698377 258.188864 
L 377.787822 258.66625 
L 381.056156 257.456109 
L 382.145601 260.282993 
L 383.235046 259.052285 
L 384.324491 258.356683 
L 385.413935 259.828502 
L 386.50338 257.920458 
L 387.592825 257.391041 
L 388.68227 257.766988 
L 389.771714 258.572687 
L 390.861159 258.023336 
L 391.950604 258.027811 
L 393.040049 257.770356 
L 394.129494 257.796224 
L 395.218938 258.623235 
L 396.308383 257.996906 
L 397.397828 264.441631 
L 398.487273 295.488 
L 398.487273 295.488 
" clip-path="url(#pc5441ed410)" style="fill: none; stroke-dasharray: 9.6,2.4,1.5,2.4; stroke-dashoffset: 0; stroke: #008000; stroke-width: 1.5"/>
   </g>
   <g id="line2d_27">
    <path d="M 73.832727 256.528172 
L 74.922172 256.378139 
L 76.011617 256.889138 
L 80.369396 256.763564 
L 81.458841 256.364411 
L 82.548286 256.275344 
L 83.63773 256.927443 
L 85.81662 256.846753 
L 86.906065 256.329569 
L 87.995509 256.823164 
L 89.084954 256.246701 
L 90.174399 256.996039 
L 92.353289 256.763564 
L 94.532178 256.915622 
L 96.711068 256.748993 
L 97.800513 256.449799 
L 98.889957 255.745583 
L 99.979402 256.54843 
L 101.068847 256.60724 
L 102.158292 256.2701 
L 103.247736 256.492663 
L 104.337181 256.19206 
L 105.426626 256.620714 
L 106.516071 256.252189 
L 107.605516 256.227014 
L 108.69496 256.085678 
L 109.784405 256.238604 
L 110.87385 255.085318 
L 111.963295 256.039549 
L 113.052739 254.847822 
L 114.142184 255.19414 
L 115.231629 255.957089 
L 116.321074 255.97017 
L 117.410519 254.372277 
L 118.499963 254.744162 
L 119.589408 255.91028 
L 120.678853 254.953696 
L 121.768298 255.121558 
L 122.857743 255.755043 
L 123.947187 254.760244 
L 125.036632 254.129847 
L 126.126077 255.209536 
L 127.215522 254.940773 
L 128.304966 256.03233 
L 129.394411 255.943578 
L 130.483856 254.874527 
L 131.573301 255.860774 
L 132.662746 255.02683 
L 133.75219 255.499057 
L 134.841635 256.180157 
L 135.93108 255.243545 
L 137.020525 254.790893 
L 138.109969 256.100717 
L 139.199414 254.739966 
L 140.288859 254.255621 
L 141.378304 254.809991 
L 142.467749 253.841716 
L 143.557193 254.081371 
L 144.646638 256.207019 
L 145.736083 254.264206 
L 146.825528 253.980751 
L 147.914973 254.022061 
L 149.004417 254.786612 
L 151.183307 255.01116 
L 152.272752 255.984313 
L 153.362196 254.602503 
L 154.451641 255.836593 
L 155.541086 255.747575 
L 156.630531 256.101129 
L 157.719976 255.392985 
L 158.80942 255.37 
L 159.898865 254.770551 
L 160.98831 254.881507 
L 162.077755 252.280651 
L 163.1672 255.885802 
L 164.256644 254.17186 
L 165.346089 253.342518 
L 166.435534 255.180512 
L 167.524979 255.269399 
L 168.614423 254.544785 
L 169.703868 255.997607 
L 170.793313 255.786031 
L 171.882758 254.297063 
L 172.972203 255.451201 
L 174.061647 254.852249 
L 175.151092 254.504786 
L 176.240537 253.477343 
L 177.329982 253.663048 
L 178.419426 253.578434 
L 179.508871 254.531196 
L 180.598316 252.921211 
L 181.687761 253.474477 
L 182.777206 253.726148 
L 183.86665 253.531095 
L 184.956095 253.86072 
L 186.04554 255.95197 
L 187.134985 253.523265 
L 188.22443 253.856642 
L 189.313874 254.698351 
L 190.403319 253.495571 
L 191.492764 253.096201 
L 192.582209 253.904947 
L 193.671653 254.224283 
L 194.761098 254.178378 
L 195.850543 254.391781 
L 196.939988 255.571893 
L 198.029433 255.077652 
L 199.118877 253.292831 
L 200.208322 254.463258 
L 201.297767 255.850245 
L 202.387212 254.844254 
L 203.476656 254.796623 
L 204.566101 254.952357 
L 206.744991 254.588385 
L 207.834436 252.729841 
L 208.92388 254.782563 
L 210.013325 254.616733 
L 211.10277 253.849833 
L 212.192215 253.488622 
L 213.28166 254.299138 
L 214.371104 255.708501 
L 215.460549 252.116906 
L 216.549994 251.310307 
L 217.639439 253.167295 
L 218.728883 249.349217 
L 219.818328 253.056236 
L 220.907773 254.209247 
L 221.997218 252.580695 
L 223.086663 252.937987 
L 224.176107 254.701323 
L 225.265552 252.14279 
L 226.354997 255.848931 
L 227.444442 252.099551 
L 228.533887 251.882323 
L 229.623331 255.342925 
L 230.712776 253.972162 
L 231.802221 251.657608 
L 232.891666 255.301671 
L 233.98111 253.312826 
L 235.070555 252.720267 
L 236.16 252.333676 
L 237.249445 253.644671 
L 238.33889 252.172654 
L 239.428334 254.929398 
L 240.517779 255.422813 
L 241.607224 255.465747 
L 242.696669 253.988358 
L 243.786113 254.101067 
L 244.875558 255.656575 
L 245.965003 256.009688 
L 247.054448 255.363086 
L 248.143893 253.316516 
L 249.233337 252.682728 
L 250.322782 253.853216 
L 251.412227 252.664914 
L 252.501672 254.27763 
L 253.591117 254.177111 
L 254.680561 253.816375 
L 255.770006 254.005354 
L 257.948896 253.099906 
L 259.03834 253.223288 
L 260.127785 253.61461 
L 261.21723 253.438358 
L 262.306675 253.590746 
L 263.39612 252.390759 
L 264.485564 252.099002 
L 266.664454 251.872604 
L 267.753899 251.492556 
L 268.843344 253.213792 
L 269.932788 252.09502 
L 271.022233 252.254075 
L 272.111678 252.231597 
L 273.201123 253.944496 
L 274.290567 251.993497 
L 275.380012 252.196589 
L 276.469457 250.777679 
L 277.558902 250.877063 
L 278.648347 253.677097 
L 279.737791 254.705938 
L 280.827236 252.883208 
L 281.916681 253.689893 
L 283.006126 252.569445 
L 284.09557 252.430479 
L 286.27446 252.947131 
L 287.363905 256.50436 
L 288.45335 252.527649 
L 289.542794 253.244207 
L 290.632239 253.209869 
L 293.900574 252.225569 
L 294.990018 254.330626 
L 296.079463 253.501563 
L 297.168908 253.641289 
L 298.258353 252.557119 
L 299.347797 252.09765 
L 300.437242 253.154694 
L 301.526687 252.499515 
L 302.616132 253.145403 
L 303.705577 251.66336 
L 304.795021 253.021474 
L 305.884466 251.446037 
L 306.973911 251.558205 
L 308.063356 254.26922 
L 309.1528 254.904047 
L 310.242245 252.849215 
L 311.33169 252.377267 
L 312.421135 252.327717 
L 313.51058 251.235756 
L 314.600024 251.12178 
L 315.689469 250.529484 
L 316.778914 251.839481 
L 317.868359 251.462872 
L 318.957804 251.967813 
L 320.047248 253.178875 
L 321.136693 251.294773 
L 322.226138 252.201776 
L 323.315583 256.114758 
L 324.405027 249.42143 
L 325.494472 250.248821 
L 326.583917 251.955554 
L 327.673362 250.464074 
L 328.762807 249.828526 
L 329.852251 249.806468 
L 330.941696 251.485131 
L 332.031141 250.467607 
L 333.120586 249.172433 
L 334.210031 251.789811 
L 335.299475 252.403167 
L 336.38892 248.941668 
L 337.478365 251.091149 
L 338.56781 251.429441 
L 339.657254 250.117297 
L 340.746699 252.943646 
L 341.836144 250.991096 
L 342.925589 251.341645 
L 344.015034 251.988953 
L 345.104478 255.707123 
L 346.193923 252.703306 
L 347.283368 251.72932 
L 348.372813 254.094217 
L 349.462257 253.646393 
L 350.551702 252.592958 
L 351.641147 252.526564 
L 352.730592 253.215131 
L 353.820037 253.377628 
L 354.909481 252.486708 
L 355.998926 253.009403 
L 357.088371 253.891129 
L 358.177816 251.927325 
L 359.267261 253.062134 
L 360.356705 251.452285 
L 361.44615 255.647981 
L 362.535595 253.099387 
L 363.62504 253.091892 
L 365.803929 250.974303 
L 366.893374 251.713861 
L 367.982819 253.129718 
L 369.072264 255.619543 
L 370.161708 253.363098 
L 371.251153 253.458659 
L 372.340598 253.697092 
L 373.430043 252.778081 
L 374.519487 251.114351 
L 375.608932 252.348539 
L 376.698377 249.408449 
L 377.787822 252.520169 
L 378.877267 250.166256 
L 379.966711 250.593001 
L 381.056156 248.348638 
L 382.145601 242.203763 
L 383.235046 243.700958 
L 384.324491 250.418815 
L 385.413935 244.11379 
L 386.50338 250.328371 
L 387.592825 250.554171 
L 388.68227 254.704404 
L 389.771714 251.824355 
L 390.861159 252.385195 
L 391.950604 252.651635 
L 393.040049 256.315426 
L 394.129494 250.816964 
L 396.308383 251.832489 
L 397.397828 229.760845 
L 398.487273 174.4155 
L 398.487273 174.4155 
" clip-path="url(#pc5441ed410)" style="fill: none; stroke-dasharray: 9.6,2.4,1.5,2.4; stroke-dashoffset: 0; stroke: #008000; stroke-width: 1.5"/>
   </g>
   <g id="line2d_28">
    <path d="M 73.832727 255.131785 
L 74.922172 253.735158 
L 76.011617 255.600204 
L 77.101062 255.258494 
L 78.190506 255.132401 
L 79.279951 255.761955 
L 80.369396 255.158738 
L 81.458841 254.263386 
L 82.548286 254.012698 
L 83.63773 255.793753 
L 84.727175 255.633203 
L 85.81662 255.143486 
L 86.906065 254.079783 
L 87.995509 255.220856 
L 89.084954 253.969158 
L 90.174399 255.401616 
L 91.263844 255.423519 
L 92.353289 255.158738 
L 93.442733 255.143486 
L 94.532178 255.727407 
L 95.621623 255.075969 
L 96.711068 255.761955 
L 97.800513 255.193923 
L 98.889957 254.079783 
L 99.979402 255.839243 
L 101.068847 255.349362 
L 102.158292 255.264807 
L 103.247736 255.600204 
L 104.337181 255.158738 
L 105.426626 255.793753 
L 106.516071 255.717471 
L 107.605516 255.293033 
L 108.69496 255.079213 
L 109.784405 255.293033 
L 110.87385 254.120367 
L 111.963295 255.81346 
L 113.052739 253.579617 
L 114.142184 254.156168 
L 115.231629 255.183536 
L 116.321074 255.183536 
L 117.410519 253.474749 
L 118.499963 253.907153 
L 119.589408 255.10128 
L 120.678853 254.156168 
L 121.768298 253.693486 
L 122.857743 255.580682 
L 123.947187 253.558258 
L 125.036632 253.614505 
L 126.126077 253.872963 
L 127.215522 253.821273 
L 128.304966 255.200082 
L 129.394411 255.349362 
L 130.483856 252.781301 
L 131.573301 255.103702 
L 132.662746 252.700862 
L 133.75219 255.124538 
L 134.841635 255.401616 
L 135.93108 253.871629 
L 137.020525 252.707575 
L 138.109969 255.328526 
L 139.199414 253.232385 
L 140.288859 253.344242 
L 141.378304 252.50134 
L 142.467749 252.503803 
L 143.557193 252.919394 
L 144.646638 255.609945 
L 145.736083 252.340543 
L 146.825528 252.818909 
L 147.914973 252.364027 
L 149.004417 252.487771 
L 150.093862 254.307111 
L 151.183307 254.286275 
L 152.272752 255.328526 
L 153.362196 253.45883 
L 154.451641 255.169413 
L 155.541086 255.349362 
L 156.630531 255.124538 
L 157.719976 254.638003 
L 158.80942 254.533823 
L 159.898865 252.065642 
L 160.98831 252.648495 
L 162.077755 250.591511 
L 163.1672 255.231007 
L 164.256644 250.689009 
L 165.346089 250.689009 
L 166.435534 253.610142 
L 167.524979 254.145217 
L 168.614423 252.987311 
L 169.703868 255.686063 
L 170.793313 255.231007 
L 171.882758 250.999394 
L 172.972203 254.648842 
L 174.061647 253.735158 
L 175.151092 253.938735 
L 176.240537 252.581214 
L 177.329982 253.301955 
L 178.419426 250.432747 
L 179.508871 251.881402 
L 181.687761 253.059231 
L 182.777206 252.93054 
L 183.86665 250.453583 
L 186.04554 255.499289 
L 187.134985 252.411221 
L 188.22443 253.213571 
L 189.313874 252.032427 
L 190.403319 253.165628 
L 191.492764 252.179162 
L 192.582209 252.097224 
L 193.671653 253.30762 
L 194.761098 252.35207 
L 195.850543 254.020621 
L 196.939988 255.242647 
L 198.029433 255.125462 
L 199.118877 248.878465 
L 201.297767 255.104626 
L 202.387212 252.064205 
L 203.476656 251.977535 
L 204.566101 252.053263 
L 206.744991 251.89259 
L 207.834436 248.751448 
L 208.92388 251.995826 
L 210.013325 251.977535 
L 212.192215 252.182139 
L 214.371104 255.707186 
L 215.460549 250.160792 
L 216.549994 249.827416 
L 217.639439 251.5668 
L 218.728883 245.457115 
L 219.818328 250.495255 
L 220.907773 250.346725 
L 221.997218 249.589219 
L 223.086663 250.578599 
L 224.176107 254.258377 
L 225.265552 248.961809 
L 226.354997 254.7242 
L 227.444442 250.545231 
L 228.533887 248.772284 
L 229.623331 254.612374 
L 230.712776 250.495255 
L 231.802221 249.847338 
L 232.891666 253.827863 
L 233.98111 249.908142 
L 235.070555 250.857771 
L 236.16 250.357707 
L 237.249445 250.361833 
L 238.33889 249.99941 
L 239.428334 254.012667 
L 240.517779 255.092309 
L 241.607224 255.053368 
L 242.696669 251.932959 
L 243.786113 252.3622 
L 244.875558 255.378604 
L 245.965003 255.708233 
L 247.054448 254.630243 
L 248.143893 250.016972 
L 249.233337 247.960614 
L 250.322782 250.121306 
L 251.412227 247.786762 
L 252.501672 251.463533 
L 253.591117 250.389536 
L 254.680561 251.007954 
L 255.770006 251.245771 
L 256.859451 248.766905 
L 257.948896 247.824329 
L 259.03834 248.123074 
L 260.127785 250.3687 
L 261.21723 247.993295 
L 262.306675 248.567465 
L 263.39612 248.563852 
L 264.485564 247.777648 
L 265.575009 247.847074 
L 266.664454 249.233241 
L 267.753899 248.668032 
L 268.843344 250.183814 
L 269.932788 250.669929 
L 271.022233 248.459672 
L 272.111678 248.688868 
L 273.201123 251.329115 
L 274.290567 248.078199 
L 275.380012 248.376328 
L 276.469457 247.770135 
L 277.558902 249.806724 
L 278.648347 251.380189 
L 279.737791 252.138937 
L 280.827236 247.816035 
L 281.916681 251.463533 
L 283.006126 248.028932 
L 284.09557 247.777648 
L 285.185015 250.387237 
L 286.27446 249.295749 
L 287.363905 255.442405 
L 288.45335 248.650809 
L 289.542794 250.037808 
L 290.632239 251.02879 
L 291.721684 249.212405 
L 292.811129 248.766905 
L 293.900574 248.871085 
L 294.990018 252.159773 
L 296.079463 251.266607 
L 297.168908 251.442697 
L 298.258353 250.408073 
L 299.347797 248.140461 
L 300.437242 248.647196 
L 301.526687 248.629973 
L 302.616132 251.287443 
L 303.705577 247.868649 
L 304.795021 251.401025 
L 305.884466 247.96511 
L 306.973911 247.779023 
L 308.063356 250.347864 
L 309.1528 252.519004 
L 310.242245 251.380189 
L 311.33169 248.10546 
L 312.421135 249.316585 
L 313.51058 249.316585 
L 315.689469 247.824329 
L 316.778914 248.526388 
L 317.868359 248.54979 
L 318.957804 249.25766 
L 320.047248 250.436176 
L 321.136693 247.939122 
L 322.226138 249.594515 
L 323.315583 255.371224 
L 324.405027 247.871523 
L 325.494472 249.197482 
L 326.583917 249.99629 
L 327.673362 248.746069 
L 328.762807 247.943227 
L 329.852251 247.830302 
L 330.941696 249.594515 
L 332.031141 248.587541 
L 333.120586 247.913523 
L 334.210031 249.878798 
L 335.299475 250.299161 
L 336.38892 247.916931 
L 337.478365 249.636187 
L 338.56781 249.460097 
L 339.657254 248.64189 
L 340.746699 250.506597 
L 341.836144 248.143396 
L 344.015034 249.129061 
L 345.104478 254.687568 
L 346.193923 248.601367 
L 347.283368 248.091748 
L 348.372813 250.589941 
L 349.462257 248.526388 
L 351.641147 248.662726 
L 352.730592 249.941306 
L 353.820037 250.134126 
L 354.909481 247.895458 
L 355.998926 250.31116 
L 357.088371 250.527433 
L 358.177816 247.932491 
L 359.267261 249.681256 
L 360.356705 248.783277 
L 361.44615 254.687568 
L 362.535595 248.591462 
L 363.62504 248.442942 
L 364.714484 247.852329 
L 365.803929 247.895458 
L 366.893374 248.662726 
L 367.982819 249.702092 
L 369.072264 254.72924 
L 370.161708 249.639584 
L 371.251153 249.878798 
L 372.340598 249.899634 
L 373.430043 247.978833 
L 374.519487 247.871009 
L 375.608932 249.170733 
L 376.698377 244.288575 
L 377.787822 247.937161 
L 378.877267 247.932491 
L 379.966711 248.380537 
L 381.056156 245.555526 
L 382.145601 225.925331 
L 383.235046 230.947819 
L 384.324491 247.995553 
L 385.413935 230.473282 
L 386.50338 248.014501 
L 387.592825 248.591462 
L 388.68227 252.362744 
L 389.771714 248.442942 
L 390.861159 249.722928 
L 391.950604 250.154962 
L 393.040049 255.606814 
L 394.129494 248.999519 
L 395.218938 248.86662 
L 396.308383 249.975454 
L 397.397828 196.439214 
L 398.487273 53.568 
L 398.487273 53.568 
" clip-path="url(#pc5441ed410)" style="fill: none; stroke: #ff0000; stroke-width: 1.5; stroke-linecap: square"/>
   </g>
   <g id="patch_3">
    <path d="M 57.6 307.584 
L 57.6 41.472 
" style="fill: none; stroke: #000000; stroke-width: 0.8; stroke-linejoin: miter; stroke-linecap: square"/>
   </g>
   <g id="patch_4">
    <path d="M 414.72 307.584 
L 414.72 41.472 
" style="fill: none; stroke: #000000; stroke-width: 0.8; stroke-linejoin: miter; stroke-linecap: square"/>
   </g>
   <g id="patch_5">
    <path d="M 57.6 307.584 
L 414.72 307.584 
" style="fill: none; stroke: #000000; stroke-width: 0.8; stroke-linejoin: miter; stroke-linecap: square"/>
   </g>
   <g id="patch_6">
    <path d="M 57.6 41.472 
L 414.72 41.472 
" style="fill: none; stroke: #000000; stroke-width: 0.8; stroke-linejoin: miter; stroke-linecap: square"/>
   </g>
   <g id="text_15">
    <!-- Population's average and best fitness -->
    <g transform="translate(123.529687 35.472)scale(0.12 -0.12)">
     <defs>
      <path id="DejaVuSans-50" d="M 1259 4147 
L 1259 2394 
L 2053 2394 
Q 2494 2394 2734 2622 
Q 2975 2850 2975 3272 
Q 2975 3691 2734 3919 
Q 2494 4147 2053 4147 
L 1259 4147 
z
M 628 4666 
L 2053 4666 
Q 2838 4666 3239 4311 
Q 3641 3956 3641 3272 
Q 3641 2581 3239 2228 
Q 2838 1875 2053 1875 
L 1259 1875 
L 1259 0 
L 628 0 
L 628 4666 
z
" transform="scale(0.015625)"/>
      <path id="DejaVuSans-70" d="M 1159 525 
L 1159 -1331 
L 581 -1331 
L 581 3500 
L 1159 3500 
L 1159 2969 
Q 1341 3281 1617 3432 
Q 1894 3584 2278 3584 
Q 2916 3584 3314 3078 
Q 3713 2572 3713 1747 
Q 3713 922 3314 415 
Q 2916 -91 2278 -91 
Q 1894 -91 1617 61 
Q 1341 213 1159 525 
z
M 3116 1747 
Q 3116 2381 2855 2742 
Q 2594 3103 2138 3103 
Q 1681 3103 1420 2742 
Q 1159 2381 1159 1747 
Q 1159 1113 1420 752 
Q 1681 391 2138 391 
Q 2594 391 2855 752 
Q 3116 1113 3116 1747 
z
" transform="scale(0.015625)"/>
      <path id="DejaVuSans-75" d="M 544 1381 
L 544 3500 
L 1119 3500 
L 1119 1403 
Q 1119 906 1312 657 
Q 1506 409 1894 409 
Q 2359 409 2629 706 
Q 2900 1003 2900 1516 
L 2900 3500 
L 3475 3500 
L 3475 0 
L 2900 0 
L 2900 538 
Q 2691 219 2414 64 
Q 2138 -91 1772 -91 
Q 1169 -91 856 284 
Q 544 659 544 1381 
z
M 1991 3584 
L 1991 3584 
z
" transform="scale(0.015625)"/>
      <path id="DejaVuSans-6c" d="M 603 4863 
L 1178 4863 
L 1178 0 
L 603 0 
L 603 4863 
z
" transform="scale(0.015625)"/>
      <path id="DejaVuSans-27" d="M 1147 4666 
L 1147 2931 
L 616 2931 
L 616 4666 
L 1147 4666 
z
" transform="scale(0.015625)"/>
      <path id="DejaVuSans-20" transform="scale(0.015625)"/>
      <path id="DejaVuSans-76" d="M 191 3500 
L 800 3500 
L 1894 563 
L 2988 3500 
L 3597 3500 
L 2284 0 
L 1503 0 
L 191 3500 
z
" transform="scale(0.015625)"/>
      <path id="DejaVuSans-67" d="M 2906 1791 
Q 2906 2416 2648 2759 
Q 2391 3103 1925 3103 
Q 1463 3103 1205 2759 
Q 947 2416 947 1791 
Q 947 1169 1205 825 
Q 1463 481 1925 481 
Q 2391 481 2648 825 
Q 2906 1169 2906 1791 
z
M 3481 434 
Q 3481 -459 3084 -895 
Q 2688 -1331 1869 -1331 
Q 1566 -1331 1297 -1286 
Q 1028 -1241 775 -1147 
L 775 -588 
Q 1028 -725 1275 -790 
Q 1522 -856 1778 -856 
Q 2344 -856 2625 -561 
Q 2906 -266 2906 331 
L 2906 616 
Q 2728 306 2450 153 
Q 2172 0 1784 0 
Q 1141 0 747 490 
Q 353 981 353 1791 
Q 353 2603 747 3093 
Q 1141 3584 1784 3584 
Q 2172 3584 2450 3431 
Q 2728 3278 2906 2969 
L 2906 3500 
L 3481 3500 
L 3481 434 
z
" transform="scale(0.015625)"/>
      <path id="DejaVuSans-64" d="M 2906 2969 
L 2906 4863 
L 3481 4863 
L 3481 0 
L 2906 0 
L 2906 525 
Q 2725 213 2448 61 
Q 2172 -91 1784 -91 
Q 1150 -91 751 415 
Q 353 922 353 1747 
Q 353 2572 751 3078 
Q 1150 3584 1784 3584 
Q 2172 3584 2448 3432 
Q 2725 3281 2906 2969 
z
M 947 1747 
Q 947 1113 1208 752 
Q 1469 391 1925 391 
Q 2381 391 2643 752 
Q 2906 1113 2906 1747 
Q 2906 2381 2643 2742 
Q 2381 3103 1925 3103 
Q 1469 3103 1208 2742 
Q 947 2381 947 1747 
z
" transform="scale(0.015625)"/>
      <path id="DejaVuSans-62" d="M 3116 1747 
Q 3116 2381 2855 2742 
Q 2594 3103 2138 3103 
Q 1681 3103 1420 2742 
Q 1159 2381 1159 1747 
Q 1159 1113 1420 752 
Q 1681 391 2138 391 
Q 2594 391 2855 752 
Q 3116 1113 3116 1747 
z
M 1159 2969 
Q 1341 3281 1617 3432 
Q 1894 3584 2278 3584 
Q 2916 3584 3314 3078 
Q 3713 2572 3713 1747 
Q 3713 922 3314 415 
Q 2916 -91 2278 -91 
Q 1894 -91 1617 61 
Q 1341 213 1159 525 
L 1159 0 
L 581 0 
L 581 4863 
L 1159 4863 
L 1159 2969 
z
" transform="scale(0.015625)"/>
      <path id="DejaVuSans-66" d="M 2375 4863 
L 2375 4384 
L 1825 4384 
Q 1516 4384 1395 4259 
Q 1275 4134 1275 3809 
L 1275 3500 
L 2222 3500 
L 2222 3053 
L 1275 3053 
L 1275 0 
L 697 0 
L 697 3053 
L 147 3053 
L 147 3500 
L 697 3500 
L 697 3744 
Q 697 4328 969 4595 
Q 1241 4863 1831 4863 
L 2375 4863 
z
" transform="scale(0.015625)"/>
     </defs>
     <use xlink:href="#DejaVuSans-50"/>
     <use xlink:href="#DejaVuSans-6f" x="56.677734"/>
     <use xlink:href="#DejaVuSans-70" x="117.859375"/>
     <use xlink:href="#DejaVuSans-75" x="181.335938"/>
     <use xlink:href="#DejaVuSans-6c" x="244.714844"/>
     <use xlink:href="#DejaVuSans-61" x="272.498047"/>
     <use xlink:href="#DejaVuSans-74" x="333.777344"/>
     <use xlink:href="#DejaVuSans-69" x="372.986328"/>
     <use xlink:href="#DejaVuSans-6f" x="400.769531"/>
     <use xlink:href="#DejaVuSans-6e" x="461.951172"/>
     <use xlink:href="#DejaVuSans-27" x="525.330078"/>
     <use xlink:href="#DejaVuSans-73" x="552.820312"/>
     <use xlink:href="#DejaVuSans-20" x="604.919922"/>
     <use xlink:href="#DejaVuSans-61" x="636.707031"/>
     <use xlink:href="#DejaVuSans-76" x="697.986328"/>
     <use xlink:href="#DejaVuSans-65" x="757.166016"/>
     <use xlink:href="#DejaVuSans-72" x="818.689453"/>
     <use xlink:href="#DejaVuSans-61" x="859.802734"/>
     <use xlink:href="#DejaVuSans-67" x="921.082031"/>
     <use xlink:href="#DejaVuSans-65" x="984.558594"/>
     <use xlink:href="#DejaVuSans-20" x="1046.082031"/>
     <use xlink:href="#DejaVuSans-61" x="1077.869141"/>
     <use xlink:href="#DejaVuSans-6e" x="1139.148438"/>
     <use xlink:href="#DejaVuSans-64" x="1202.527344"/>
     <use xlink:href="#DejaVuSans-20" x="1266.003906"/>
     <use xlink:href="#DejaVuSans-62" x="1297.791016"/>
     <use xlink:href="#DejaVuSans-65" x="1361.267578"/>
     <use xlink:href="#DejaVuSans-73" x="1422.791016"/>
     <use xlink:href="#DejaVuSans-74" x="1474.890625"/>
     <use xlink:href="#DejaVuSans-20" x="1514.099609"/>
     <use xlink:href="#DejaVuSans-66" x="1545.886719"/>
     <use xlink:href="#DejaVuSans-69" x="1581.091797"/>
     <use xlink:href="#DejaVuSans-74" x="1608.875"/>
     <use xlink:href="#DejaVuSans-6e" x="1648.083984"/>
     <use xlink:href="#DejaVuSans-65" x="1711.462891"/>
     <use xlink:href="#DejaVuSans-73" x="1772.986328"/>
     <use xlink:href="#DejaVuSans-73" x="1825.085938"/>
    </g>
   </g>
   <g id="legend_1">
    <g id="patch_7">
     <path d="M 64.6 108.1845 
L 137.540625 108.1845 
Q 139.540625 108.1845 139.540625 106.1845 
L 139.540625 48.472 
Q 139.540625 46.472 137.540625 46.472 
L 64.6 46.472 
Q 62.6 46.472 62.6 48.472 
L 62.6 106.1845 
Q 62.6 108.1845 64.6 108.1845 
z
" style="fill: #ffffff; opacity: 0.8; stroke: #cccccc; stroke-linejoin: miter"/>
    </g>
    <g id="line2d_29">
     <path d="M 66.6 54.570438 
L 76.6 54.570438 
L 86.6 54.570438 
" style="fill: none; stroke: #0000ff; stroke-width: 1.5; stroke-linecap: square"/>
    </g>
    <g id="text_16">
     <!-- average -->
     <g transform="translate(94.6 58.070438)scale(0.1 -0.1)">
      <use xlink:href="#DejaVuSans-61"/>
      <use xlink:href="#DejaVuSans-76" x="61.279297"/>
      <use xlink:href="#DejaVuSans-65" x="120.458984"/>
      <use xlink:href="#DejaVuSans-72" x="181.982422"/>
      <use xlink:href="#DejaVuSans-61" x="223.095703"/>
      <use xlink:href="#DejaVuSans-67" x="284.375"/>
      <use xlink:href="#DejaVuSans-65" x="347.851562"/>
     </g>
    </g>
    <g id="line2d_30">
     <path d="M 66.6 69.248563 
L 76.6 69.248563 
L 86.6 69.248563 
" style="fill: none; stroke-dasharray: 9.6,2.4,1.5,2.4; stroke-dashoffset: 0; stroke: #008000; stroke-width: 1.5"/>
    </g>
    <g id="text_17">
     <!-- -1 sd -->
     <g transform="translate(94.6 72.748563)scale(0.1 -0.1)">
      <defs>
       <path id="DejaVuSans-2d" d="M 313 2009 
L 1997 2009 
L 1997 1497 
L 313 1497 
L 313 2009 
z
" transform="scale(0.015625)"/>
      </defs>
      <use xlink:href="#DejaVuSans-2d"/>
      <use xlink:href="#DejaVuSans-31" x="36.083984"/>
      <use xlink:href="#DejaVuSans-20" x="99.707031"/>
      <use xlink:href="#DejaVuSans-73" x="131.494141"/>
      <use xlink:href="#DejaVuSans-64" x="183.59375"/>
     </g>
    </g>
    <g id="line2d_31">
     <path d="M 66.6 83.926688 
L 76.6 83.926688 
L 86.6 83.926688 
" style="fill: none; stroke-dasharray: 9.6,2.4,1.5,2.4; stroke-dashoffset: 0; stroke: #008000; stroke-width: 1.5"/>
    </g>
    <g id="text_18">
     <!-- +1 sd -->
     <g transform="translate(94.6 87.426688)scale(0.1 -0.1)">
      <defs>
       <path id="DejaVuSans-2b" d="M 2944 4013 
L 2944 2272 
L 4684 2272 
L 4684 1741 
L 2944 1741 
L 2944 0 
L 2419 0 
L 2419 1741 
L 678 1741 
L 678 2272 
L 2419 2272 
L 2419 4013 
L 2944 4013 
z
" transform="scale(0.015625)"/>
      </defs>
      <use xlink:href="#DejaVuSans-2b"/>
      <use xlink:href="#DejaVuSans-31" x="83.789062"/>
      <use xlink:href="#DejaVuSans-20" x="147.412109"/>
      <use xlink:href="#DejaVuSans-73" x="179.199219"/>
      <use xlink:href="#DejaVuSans-64" x="231.298828"/>
     </g>
    </g>
    <g id="line2d_32">
     <path d="M 66.6 98.604813 
L 76.6 98.604813 
L 86.6 98.604813 
" style="fill: none; stroke: #ff0000; stroke-width: 1.5; stroke-linecap: square"/>
    </g>
    <g id="text_19">
     <!-- best -->
     <g transform="translate(94.6 102.104813)scale(0.1 -0.1)">
      <use xlink:href="#DejaVuSans-62"/>
      <use xlink:href="#DejaVuSans-65" x="63.476562"/>
      <use xlink:href="#DejaVuSans-73" x="125"/>
      <use xlink:href="#DejaVuSans-74" x="177.099609"/>
     </g>
    </g>
   </g>
  </g>
 </g>
 <defs>
  <clipPath id="pc5441ed410">
   <rect x="57.6" y="41.472" width="357.12" height="266.112"/>
  </clipPath>
 </defs>
</svg>
