<?xml version="1.0" encoding="utf-8" standalone="no"?>
<!DOCTYPE svg PUBLIC "-//W3C//DTD SVG 1.1//EN"
  "http://www.w3.org/Graphics/SVG/1.1/DTD/svg11.dtd">
<svg xmlns:xlink="http://www.w3.org/1999/xlink" width="460.8pt" height="345.6pt" viewBox="0 0 460.8 345.6" xmlns="http://www.w3.org/2000/svg" version="1.1">
 <metadata>
  <rdf:RDF xmlns:dc="http://purl.org/dc/elements/1.1/" xmlns:cc="http://creativecommons.org/ns#" xmlns:rdf="http://www.w3.org/1999/02/22-rdf-syntax-ns#">
   <cc:Work>
    <dc:type rdf:resource="http://purl.org/dc/dcmitype/StillImage"/>
    <dc:date>2022-02-13T06:55:23.454550</dc:date>
    <dc:format>image/svg+xml</dc:format>
    <dc:creator>
     <cc:Agent>
      <dc:title>Matplotlib v3.5.1, https://matplotlib.org/</dc:title>
     </cc:Agent>
    </dc:creator>
   </cc:Work>
  </rdf:RDF>
 </metadata>
 <defs>
  <style type="text/css">*{stroke-linejoin: round; stroke-linecap: butt}</style>
 </defs>
 <g id="figure_1">
  <g id="patch_1">
   <path d="M 0 345.6 
L 460.8 345.6 
L 460.8 0 
L 0 0 
z
" style="fill: #ffffff"/>
  </g>
  <g id="axes_1">
   <g id="patch_2">
    <path d="M 57.6 307.584 
L 414.72 307.584 
L 414.72 41.472 
L 57.6 41.472 
z
" style="fill: #ffffff"/>
   </g>
   <g id="matplotlib.axis_1">
    <g id="xtick_1">
     <g id="line2d_1">
      <path d="M 73.832727 307.584 
L 73.832727 41.472 
" clip-path="url(#p81845ad428)" style="fill: none; stroke: #b0b0b0; stroke-width: 0.8; stroke-linecap: square"/>
     </g>
     <g id="line2d_2">
      <defs>
       <path id="md1bd973876" d="M 0 0 
L 0 3.5 
" style="stroke: #000000; stroke-width: 0.8"/>
      </defs>
      <g>
       <use xlink:href="#md1bd973876" x="73.832727" y="307.584" style="stroke: #000000; stroke-width: 0.8"/>
      </g>
     </g>
     <g id="text_1">
      <!-- 0 -->
      <g transform="translate(70.651477 322.182437)scale(0.1 -0.1)">
       <defs>
        <path id="DejaVuSans-30" d="M 2034 4250 
Q 1547 4250 1301 3770 
Q 1056 3291 1056 2328 
Q 1056 1369 1301 889 
Q 1547 409 2034 409 
Q 2525 409 2770 889 
Q 3016 1369 3016 2328 
Q 3016 3291 2770 3770 
Q 2525 4250 2034 4250 
z
M 2034 4750 
Q 2819 4750 3233 4129 
Q 3647 3509 3647 2328 
Q 3647 1150 3233 529 
Q 2819 -91 2034 -91 
Q 1250 -91 836 529 
Q 422 1150 422 2328 
Q 422 3509 836 4129 
Q 1250 4750 2034 4750 
z
" transform="scale(0.015625)"/>
       </defs>
       <use xlink:href="#DejaVuSans-30"/>
      </g>
     </g>
    </g>
    <g id="xtick_2">
     <g id="line2d_3">
      <path d="M 147.234162 307.584 
L 147.234162 41.472 
" clip-path="url(#p81845ad428)" style="fill: none; stroke: #b0b0b0; stroke-width: 0.8; stroke-linecap: square"/>
     </g>
     <g id="line2d_4">
      <g>
       <use xlink:href="#md1bd973876" x="147.234162" y="307.584" style="stroke: #000000; stroke-width: 0.8"/>
      </g>
     </g>
     <g id="text_2">
      <!-- 1000 -->
      <g transform="translate(134.509162 322.182437)scale(0.1 -0.1)">
       <defs>
        <path id="DejaVuSans-31" d="M 794 531 
L 1825 531 
L 1825 4091 
L 703 3866 
L 703 4441 
L 1819 4666 
L 2450 4666 
L 2450 531 
L 3481 531 
L 3481 0 
L 794 0 
L 794 531 
z
" transform="scale(0.015625)"/>
       </defs>
       <use xlink:href="#DejaVuSans-31"/>
       <use xlink:href="#DejaVuSans-30" x="63.623047"/>
       <use xlink:href="#DejaVuSans-30" x="127.246094"/>
       <use xlink:href="#DejaVuSans-30" x="190.869141"/>
      </g>
     </g>
    </g>
    <g id="xtick_3">
     <g id="line2d_5">
      <path d="M 220.635597 307.584 
L 220.635597 41.472 
" clip-path="url(#p81845ad428)" style="fill: none; stroke: #b0b0b0; stroke-width: 0.8; stroke-linecap: square"/>
     </g>
     <g id="line2d_6">
      <g>
       <use xlink:href="#md1bd973876" x="220.635597" y="307.584" style="stroke: #000000; stroke-width: 0.8"/>
      </g>
     </g>
     <g id="text_3">
      <!-- 2000 -->
      <g transform="translate(207.910597 322.182437)scale(0.1 -0.1)">
       <defs>
        <path id="DejaVuSans-32" d="M 1228 531 
L 3431 531 
L 3431 0 
L 469 0 
L 469 531 
Q 828 903 1448 1529 
Q 2069 2156 2228 2338 
Q 2531 2678 2651 2914 
Q 2772 3150 2772 3378 
Q 2772 3750 2511 3984 
Q 2250 4219 1831 4219 
Q 1534 4219 1204 4116 
Q 875 4013 500 3803 
L 500 4441 
Q 881 4594 1212 4672 
Q 1544 4750 1819 4750 
Q 2544 4750 2975 4387 
Q 3406 4025 3406 3419 
Q 3406 3131 3298 2873 
Q 3191 2616 2906 2266 
Q 2828 2175 2409 1742 
Q 1991 1309 1228 531 
z
" transform="scale(0.015625)"/>
       </defs>
       <use xlink:href="#DejaVuSans-32"/>
       <use xlink:href="#DejaVuSans-30" x="63.623047"/>
       <use xlink:href="#DejaVuSans-30" x="127.246094"/>
       <use xlink:href="#DejaVuSans-30" x="190.869141"/>
      </g>
     </g>
    </g>
    <g id="xtick_4">
     <g id="line2d_7">
      <path d="M 294.037031 307.584 
L 294.037031 41.472 
" clip-path="url(#p81845ad428)" style="fill: none; stroke: #b0b0b0; stroke-width: 0.8; stroke-linecap: square"/>
     </g>
     <g id="line2d_8">
      <g>
       <use xlink:href="#md1bd973876" x="294.037031" y="307.584" style="stroke: #000000; stroke-width: 0.8"/>
      </g>
     </g>
     <g id="text_4">
      <!-- 3000 -->
      <g transform="translate(281.312031 322.182437)scale(0.1 -0.1)">
       <defs>
        <path id="DejaVuSans-33" d="M 2597 2516 
Q 3050 2419 3304 2112 
Q 3559 1806 3559 1356 
Q 3559 666 3084 287 
Q 2609 -91 1734 -91 
Q 1441 -91 1130 -33 
Q 819 25 488 141 
L 488 750 
Q 750 597 1062 519 
Q 1375 441 1716 441 
Q 2309 441 2620 675 
Q 2931 909 2931 1356 
Q 2931 1769 2642 2001 
Q 2353 2234 1838 2234 
L 1294 2234 
L 1294 2753 
L 1863 2753 
Q 2328 2753 2575 2939 
Q 2822 3125 2822 3475 
Q 2822 3834 2567 4026 
Q 2313 4219 1838 4219 
Q 1578 4219 1281 4162 
Q 984 4106 628 3988 
L 628 4550 
Q 988 4650 1302 4700 
Q 1616 4750 1894 4750 
Q 2613 4750 3031 4423 
Q 3450 4097 3450 3541 
Q 3450 3153 3228 2886 
Q 3006 2619 2597 2516 
z
" transform="scale(0.015625)"/>
       </defs>
       <use xlink:href="#DejaVuSans-33"/>
       <use xlink:href="#DejaVuSans-30" x="63.623047"/>
       <use xlink:href="#DejaVuSans-30" x="127.246094"/>
       <use xlink:href="#DejaVuSans-30" x="190.869141"/>
      </g>
     </g>
    </g>
    <g id="xtick_5">
     <g id="line2d_9">
      <path d="M 367.438466 307.584 
L 367.438466 41.472 
" clip-path="url(#p81845ad428)" style="fill: none; stroke: #b0b0b0; stroke-width: 0.8; stroke-linecap: square"/>
     </g>
     <g id="line2d_10">
      <g>
       <use xlink:href="#md1bd973876" x="367.438466" y="307.584" style="stroke: #000000; stroke-width: 0.8"/>
      </g>
     </g>
     <g id="text_5">
      <!-- 4000 -->
      <g transform="translate(354.713466 322.182437)scale(0.1 -0.1)">
       <defs>
        <path id="DejaVuSans-34" d="M 2419 4116 
L 825 1625 
L 2419 1625 
L 2419 4116 
z
M 2253 4666 
L 3047 4666 
L 3047 1625 
L 3713 1625 
L 3713 1100 
L 3047 1100 
L 3047 0 
L 2419 0 
L 2419 1100 
L 313 1100 
L 313 1709 
L 2253 4666 
z
" transform="scale(0.015625)"/>
       </defs>
       <use xlink:href="#DejaVuSans-34"/>
       <use xlink:href="#DejaVuSans-30" x="63.623047"/>
       <use xlink:href="#DejaVuSans-30" x="127.246094"/>
       <use xlink:href="#DejaVuSans-30" x="190.869141"/>
      </g>
     </g>
    </g>
    <g id="text_6">
     <!-- Generations -->
     <g transform="translate(205.662344 335.860562)scale(0.1 -0.1)">
      <defs>
       <path id="DejaVuSans-47" d="M 3809 666 
L 3809 1919 
L 2778 1919 
L 2778 2438 
L 4434 2438 
L 4434 434 
Q 4069 175 3628 42 
Q 3188 -91 2688 -91 
Q 1594 -91 976 548 
Q 359 1188 359 2328 
Q 359 3472 976 4111 
Q 1594 4750 2688 4750 
Q 3144 4750 3555 4637 
Q 3966 4525 4313 4306 
L 4313 3634 
Q 3963 3931 3569 4081 
Q 3175 4231 2741 4231 
Q 1884 4231 1454 3753 
Q 1025 3275 1025 2328 
Q 1025 1384 1454 906 
Q 1884 428 2741 428 
Q 3075 428 3337 486 
Q 3600 544 3809 666 
z
" transform="scale(0.015625)"/>
       <path id="DejaVuSans-65" d="M 3597 1894 
L 3597 1613 
L 953 1613 
Q 991 1019 1311 708 
Q 1631 397 2203 397 
Q 2534 397 2845 478 
Q 3156 559 3463 722 
L 3463 178 
Q 3153 47 2828 -22 
Q 2503 -91 2169 -91 
Q 1331 -91 842 396 
Q 353 884 353 1716 
Q 353 2575 817 3079 
Q 1281 3584 2069 3584 
Q 2775 3584 3186 3129 
Q 3597 2675 3597 1894 
z
M 3022 2063 
Q 3016 2534 2758 2815 
Q 2500 3097 2075 3097 
Q 1594 3097 1305 2825 
Q 1016 2553 972 2059 
L 3022 2063 
z
" transform="scale(0.015625)"/>
       <path id="DejaVuSans-6e" d="M 3513 2113 
L 3513 0 
L 2938 0 
L 2938 2094 
Q 2938 2591 2744 2837 
Q 2550 3084 2163 3084 
Q 1697 3084 1428 2787 
Q 1159 2491 1159 1978 
L 1159 0 
L 581 0 
L 581 3500 
L 1159 3500 
L 1159 2956 
Q 1366 3272 1645 3428 
Q 1925 3584 2291 3584 
Q 2894 3584 3203 3211 
Q 3513 2838 3513 2113 
z
" transform="scale(0.015625)"/>
       <path id="DejaVuSans-72" d="M 2631 2963 
Q 2534 3019 2420 3045 
Q 2306 3072 2169 3072 
Q 1681 3072 1420 2755 
Q 1159 2438 1159 1844 
L 1159 0 
L 581 0 
L 581 3500 
L 1159 3500 
L 1159 2956 
Q 1341 3275 1631 3429 
Q 1922 3584 2338 3584 
Q 2397 3584 2469 3576 
Q 2541 3569 2628 3553 
L 2631 2963 
z
" transform="scale(0.015625)"/>
       <path id="DejaVuSans-61" d="M 2194 1759 
Q 1497 1759 1228 1600 
Q 959 1441 959 1056 
Q 959 750 1161 570 
Q 1363 391 1709 391 
Q 2188 391 2477 730 
Q 2766 1069 2766 1631 
L 2766 1759 
L 2194 1759 
z
M 3341 1997 
L 3341 0 
L 2766 0 
L 2766 531 
Q 2569 213 2275 61 
Q 1981 -91 1556 -91 
Q 1019 -91 701 211 
Q 384 513 384 1019 
Q 384 1609 779 1909 
Q 1175 2209 1959 2209 
L 2766 2209 
L 2766 2266 
Q 2766 2663 2505 2880 
Q 2244 3097 1772 3097 
Q 1472 3097 1187 3025 
Q 903 2953 641 2809 
L 641 3341 
Q 956 3463 1253 3523 
Q 1550 3584 1831 3584 
Q 2591 3584 2966 3190 
Q 3341 2797 3341 1997 
z
" transform="scale(0.015625)"/>
       <path id="DejaVuSans-74" d="M 1172 4494 
L 1172 3500 
L 2356 3500 
L 2356 3053 
L 1172 3053 
L 1172 1153 
Q 1172 725 1289 603 
Q 1406 481 1766 481 
L 2356 481 
L 2356 0 
L 1766 0 
Q 1100 0 847 248 
Q 594 497 594 1153 
L 594 3053 
L 172 3053 
L 172 3500 
L 594 3500 
L 594 4494 
L 1172 4494 
z
" transform="scale(0.015625)"/>
       <path id="DejaVuSans-69" d="M 603 3500 
L 1178 3500 
L 1178 0 
L 603 0 
L 603 3500 
z
M 603 4863 
L 1178 4863 
L 1178 4134 
L 603 4134 
L 603 4863 
z
" transform="scale(0.015625)"/>
       <path id="DejaVuSans-6f" d="M 1959 3097 
Q 1497 3097 1228 2736 
Q 959 2375 959 1747 
Q 959 1119 1226 758 
Q 1494 397 1959 397 
Q 2419 397 2687 759 
Q 2956 1122 2956 1747 
Q 2956 2369 2687 2733 
Q 2419 3097 1959 3097 
z
M 1959 3584 
Q 2709 3584 3137 3096 
Q 3566 2609 3566 1747 
Q 3566 888 3137 398 
Q 2709 -91 1959 -91 
Q 1206 -91 779 398 
Q 353 888 353 1747 
Q 353 2609 779 3096 
Q 1206 3584 1959 3584 
z
" transform="scale(0.015625)"/>
       <path id="DejaVuSans-73" d="M 2834 3397 
L 2834 2853 
Q 2591 2978 2328 3040 
Q 2066 3103 1784 3103 
Q 1356 3103 1142 2972 
Q 928 2841 928 2578 
Q 928 2378 1081 2264 
Q 1234 2150 1697 2047 
L 1894 2003 
Q 2506 1872 2764 1633 
Q 3022 1394 3022 966 
Q 3022 478 2636 193 
Q 2250 -91 1575 -91 
Q 1294 -91 989 -36 
Q 684 19 347 128 
L 347 722 
Q 666 556 975 473 
Q 1284 391 1588 391 
Q 1994 391 2212 530 
Q 2431 669 2431 922 
Q 2431 1156 2273 1281 
Q 2116 1406 1581 1522 
L 1381 1569 
Q 847 1681 609 1914 
Q 372 2147 372 2553 
Q 372 3047 722 3315 
Q 1072 3584 1716 3584 
Q 2034 3584 2315 3537 
Q 2597 3491 2834 3397 
z
" transform="scale(0.015625)"/>
      </defs>
      <use xlink:href="#DejaVuSans-47"/>
      <use xlink:href="#DejaVuSans-65" x="77.490234"/>
      <use xlink:href="#DejaVuSans-6e" x="139.013672"/>
      <use xlink:href="#DejaVuSans-65" x="202.392578"/>
      <use xlink:href="#DejaVuSans-72" x="263.916016"/>
      <use xlink:href="#DejaVuSans-61" x="305.029297"/>
      <use xlink:href="#DejaVuSans-74" x="366.308594"/>
      <use xlink:href="#DejaVuSans-69" x="405.517578"/>
      <use xlink:href="#DejaVuSans-6f" x="433.300781"/>
      <use xlink:href="#DejaVuSans-6e" x="494.482422"/>
      <use xlink:href="#DejaVuSans-73" x="557.861328"/>
     </g>
    </g>
   </g>
   <g id="matplotlib.axis_2">
    <g id="ytick_1">
     <g id="line2d_11">
      <path d="M 57.6 295.979254 
L 414.72 295.979254 
" clip-path="url(#p81845ad428)" style="fill: none; stroke: #b0b0b0; stroke-width: 0.8; stroke-linecap: square"/>
     </g>
     <g id="line2d_12">
      <defs>
       <path id="m1265b8dd1a" d="M 0 0 
L -3.5 0 
" style="stroke: #000000; stroke-width: 0.8"/>
      </defs>
      <g>
       <use xlink:href="#m1265b8dd1a" x="57.6" y="295.979254" style="stroke: #000000; stroke-width: 0.8"/>
      </g>
     </g>
     <g id="text_7">
      <!-- −0.2 -->
      <g transform="translate(26.317187 299.778473)scale(0.1 -0.1)">
       <defs>
        <path id="DejaVuSans-2212" d="M 678 2272 
L 4684 2272 
L 4684 1741 
L 678 1741 
L 678 2272 
z
" transform="scale(0.015625)"/>
        <path id="DejaVuSans-2e" d="M 684 794 
L 1344 794 
L 1344 0 
L 684 0 
L 684 794 
z
" transform="scale(0.015625)"/>
       </defs>
       <use xlink:href="#DejaVuSans-2212"/>
       <use xlink:href="#DejaVuSans-30" x="83.789062"/>
       <use xlink:href="#DejaVuSans-2e" x="147.412109"/>
       <use xlink:href="#DejaVuSans-32" x="179.199219"/>
      </g>
     </g>
    </g>
    <g id="ytick_2">
     <g id="line2d_13">
      <path d="M 57.6 255.577406 
L 414.72 255.577406 
" clip-path="url(#p81845ad428)" style="fill: none; stroke: #b0b0b0; stroke-width: 0.8; stroke-linecap: square"/>
     </g>
     <g id="line2d_14">
      <g>
       <use xlink:href="#m1265b8dd1a" x="57.6" y="255.577406" style="stroke: #000000; stroke-width: 0.8"/>
      </g>
     </g>
     <g id="text_8">
      <!-- 0.0 -->
      <g transform="translate(34.696875 259.376625)scale(0.1 -0.1)">
       <use xlink:href="#DejaVuSans-30"/>
       <use xlink:href="#DejaVuSans-2e" x="63.623047"/>
       <use xlink:href="#DejaVuSans-30" x="95.410156"/>
      </g>
     </g>
    </g>
    <g id="ytick_3">
     <g id="line2d_15">
      <path d="M 57.6 215.175558 
L 414.72 215.175558 
" clip-path="url(#p81845ad428)" style="fill: none; stroke: #b0b0b0; stroke-width: 0.8; stroke-linecap: square"/>
     </g>
     <g id="line2d_16">
      <g>
       <use xlink:href="#m1265b8dd1a" x="57.6" y="215.175558" style="stroke: #000000; stroke-width: 0.8"/>
      </g>
     </g>
     <g id="text_9">
      <!-- 0.2 -->
      <g transform="translate(34.696875 218.974777)scale(0.1 -0.1)">
       <use xlink:href="#DejaVuSans-30"/>
       <use xlink:href="#DejaVuSans-2e" x="63.623047"/>
       <use xlink:href="#DejaVuSans-32" x="95.410156"/>
      </g>
     </g>
    </g>
    <g id="ytick_4">
     <g id="line2d_17">
      <path d="M 57.6 174.77371 
L 414.72 174.77371 
" clip-path="url(#p81845ad428)" style="fill: none; stroke: #b0b0b0; stroke-width: 0.8; stroke-linecap: square"/>
     </g>
     <g id="line2d_18">
      <g>
       <use xlink:href="#m1265b8dd1a" x="57.6" y="174.77371" style="stroke: #000000; stroke-width: 0.8"/>
      </g>
     </g>
     <g id="text_10">
      <!-- 0.4 -->
      <g transform="translate(34.696875 178.572929)scale(0.1 -0.1)">
       <use xlink:href="#DejaVuSans-30"/>
       <use xlink:href="#DejaVuSans-2e" x="63.623047"/>
       <use xlink:href="#DejaVuSans-34" x="95.410156"/>
      </g>
     </g>
    </g>
    <g id="ytick_5">
     <g id="line2d_19">
      <path d="M 57.6 134.371862 
L 414.72 134.371862 
" clip-path="url(#p81845ad428)" style="fill: none; stroke: #b0b0b0; stroke-width: 0.8; stroke-linecap: square"/>
     </g>
     <g id="line2d_20">
      <g>
       <use xlink:href="#m1265b8dd1a" x="57.6" y="134.371862" style="stroke: #000000; stroke-width: 0.8"/>
      </g>
     </g>
     <g id="text_11">
      <!-- 0.6 -->
      <g transform="translate(34.696875 138.171081)scale(0.1 -0.1)">
       <defs>
        <path id="DejaVuSans-36" d="M 2113 2584 
Q 1688 2584 1439 2293 
Q 1191 2003 1191 1497 
Q 1191 994 1439 701 
Q 1688 409 2113 409 
Q 2538 409 2786 701 
Q 3034 994 3034 1497 
Q 3034 2003 2786 2293 
Q 2538 2584 2113 2584 
z
M 3366 4563 
L 3366 3988 
Q 3128 4100 2886 4159 
Q 2644 4219 2406 4219 
Q 1781 4219 1451 3797 
Q 1122 3375 1075 2522 
Q 1259 2794 1537 2939 
Q 1816 3084 2150 3084 
Q 2853 3084 3261 2657 
Q 3669 2231 3669 1497 
Q 3669 778 3244 343 
Q 2819 -91 2113 -91 
Q 1303 -91 875 529 
Q 447 1150 447 2328 
Q 447 3434 972 4092 
Q 1497 4750 2381 4750 
Q 2619 4750 2861 4703 
Q 3103 4656 3366 4563 
z
" transform="scale(0.015625)"/>
       </defs>
       <use xlink:href="#DejaVuSans-30"/>
       <use xlink:href="#DejaVuSans-2e" x="63.623047"/>
       <use xlink:href="#DejaVuSans-36" x="95.410156"/>
      </g>
     </g>
    </g>
    <g id="ytick_6">
     <g id="line2d_21">
      <path d="M 57.6 93.970014 
L 414.72 93.970014 
" clip-path="url(#p81845ad428)" style="fill: none; stroke: #b0b0b0; stroke-width: 0.8; stroke-linecap: square"/>
     </g>
     <g id="line2d_22">
      <g>
       <use xlink:href="#m1265b8dd1a" x="57.6" y="93.970014" style="stroke: #000000; stroke-width: 0.8"/>
      </g>
     </g>
     <g id="text_12">
      <!-- 0.8 -->
      <g transform="translate(34.696875 97.769233)scale(0.1 -0.1)">
       <defs>
        <path id="DejaVuSans-38" d="M 2034 2216 
Q 1584 2216 1326 1975 
Q 1069 1734 1069 1313 
Q 1069 891 1326 650 
Q 1584 409 2034 409 
Q 2484 409 2743 651 
Q 3003 894 3003 1313 
Q 3003 1734 2745 1975 
Q 2488 2216 2034 2216 
z
M 1403 2484 
Q 997 2584 770 2862 
Q 544 3141 544 3541 
Q 544 4100 942 4425 
Q 1341 4750 2034 4750 
Q 2731 4750 3128 4425 
Q 3525 4100 3525 3541 
Q 3525 3141 3298 2862 
Q 3072 2584 2669 2484 
Q 3125 2378 3379 2068 
Q 3634 1759 3634 1313 
Q 3634 634 3220 271 
Q 2806 -91 2034 -91 
Q 1263 -91 848 271 
Q 434 634 434 1313 
Q 434 1759 690 2068 
Q 947 2378 1403 2484 
z
M 1172 3481 
Q 1172 3119 1398 2916 
Q 1625 2713 2034 2713 
Q 2441 2713 2670 2916 
Q 2900 3119 2900 3481 
Q 2900 3844 2670 4047 
Q 2441 4250 2034 4250 
Q 1625 4250 1398 4047 
Q 1172 3844 1172 3481 
z
" transform="scale(0.015625)"/>
       </defs>
       <use xlink:href="#DejaVuSans-30"/>
       <use xlink:href="#DejaVuSans-2e" x="63.623047"/>
       <use xlink:href="#DejaVuSans-38" x="95.410156"/>
      </g>
     </g>
    </g>
    <g id="ytick_7">
     <g id="line2d_23">
      <path d="M 57.6 53.568166 
L 414.72 53.568166 
" clip-path="url(#p81845ad428)" style="fill: none; stroke: #b0b0b0; stroke-width: 0.8; stroke-linecap: square"/>
     </g>
     <g id="line2d_24">
      <g>
       <use xlink:href="#m1265b8dd1a" x="57.6" y="53.568166" style="stroke: #000000; stroke-width: 0.8"/>
      </g>
     </g>
     <g id="text_13">
      <!-- 1.0 -->
      <g transform="translate(34.696875 57.367385)scale(0.1 -0.1)">
       <use xlink:href="#DejaVuSans-31"/>
       <use xlink:href="#DejaVuSans-2e" x="63.623047"/>
       <use xlink:href="#DejaVuSans-30" x="95.410156"/>
      </g>
     </g>
    </g>
    <g id="text_14">
     <!-- Fitness -->
     <g transform="translate(20.2375 191.845187)rotate(-90)scale(0.1 -0.1)">
      <defs>
       <path id="DejaVuSans-46" d="M 628 4666 
L 3309 4666 
L 3309 4134 
L 1259 4134 
L 1259 2759 
L 3109 2759 
L 3109 2228 
L 1259 2228 
L 1259 0 
L 628 0 
L 628 4666 
z
" transform="scale(0.015625)"/>
      </defs>
      <use xlink:href="#DejaVuSans-46"/>
      <use xlink:href="#DejaVuSans-69" x="50.269531"/>
      <use xlink:href="#DejaVuSans-74" x="78.052734"/>
      <use xlink:href="#DejaVuSans-6e" x="117.261719"/>
      <use xlink:href="#DejaVuSans-65" x="180.640625"/>
      <use xlink:href="#DejaVuSans-73" x="242.164062"/>
      <use xlink:href="#DejaVuSans-73" x="294.263672"/>
     </g>
    </g>
    <g id="text_15">
     <!-- 1e7 -->
     <g transform="translate(57.6 38.472)scale(0.1 -0.1)">
      <defs>
       <path id="DejaVuSans-37" d="M 525 4666 
L 3525 4666 
L 3525 4397 
L 1831 0 
L 1172 0 
L 2766 4134 
L 525 4134 
L 525 4666 
z
" transform="scale(0.015625)"/>
      </defs>
      <use xlink:href="#DejaVuSans-31"/>
      <use xlink:href="#DejaVuSans-65" x="63.623047"/>
      <use xlink:href="#DejaVuSans-37" x="125.146484"/>
     </g>
    </g>
   </g>
   <g id="line2d_25">
    <path d="M 73.832727 255.560351 
L 85.430154 255.551331 
L 88.146007 255.551337 
L 93.284107 255.547284 
L 96.954179 255.545988 
L 111.707868 255.540543 
L 112.221678 255.513742 
L 112.735488 255.539268 
L 114.570524 255.523743 
L 115.965151 255.53115 
L 116.185355 255.496994 
L 117.506581 255.530547 
L 117.946989 255.503372 
L 118.240595 255.533194 
L 119.341617 255.513324 
L 119.855427 255.523225 
L 120.589441 255.512527 
L 120.809645 255.517365 
L 121.910667 255.512221 
L 122.277674 255.526138 
L 123.08509 255.4777 
L 123.231893 255.498378 
L 139.527011 255.497238 
L 139.747216 255.522095 
L 140.554631 255.471866 
L 140.701434 255.504557 
L 141.215244 255.483425 
L 146.867155 255.506235 
L 147.087359 255.531849 
L 147.674571 255.529117 
L 154.721108 255.500734 
L 155.014714 255.515017 
L 155.455123 255.542578 
L 155.895531 255.476947 
L 156.042334 255.513368 
L 156.482743 255.534345 
L 157.216757 255.527189 
L 157.510363 255.529509 
L 158.464581 255.501941 
L 159.345399 255.490353 
L 161.180435 255.493324 
L 161.327237 255.49799 
L 172.631058 255.495293 
L 172.777861 255.474823 
L 173.144868 255.491727 
L 173.438474 255.489592 
L 173.73208 255.524723 
L 173.952284 255.453406 
L 174.172488 255.536103 
L 174.319291 255.461553 
L 174.466094 255.494674 
L 176.154327 255.467075 
L 176.447933 255.49821 
L 176.594736 255.472756 
L 176.741539 255.461092 
L 176.81494 255.544578 
L 176.888342 255.466924 
L 177.108546 255.4804 
L 177.32875 255.466933 
L 177.548954 255.50897 
L 178.062764 255.490891 
L 178.209567 255.541561 
L 178.87018 255.471674 
L 179.310589 255.488255 
L 180.264808 255.506397 
L 180.778618 255.495863 
L 182.246646 255.508398 
L 182.393449 255.331164 
L 182.540252 255.456305 
L 182.833858 255.479656 
L 183.861478 255.45206 
L 184.008281 255.493075 
L 184.228485 255.507993 
L 184.448689 255.468312 
L 184.742295 255.515464 
L 184.962499 255.466461 
L 185.623112 255.470798 
L 185.916718 255.481656 
L 186.430528 255.480816 
L 187.971958 255.524431 
L 188.192162 255.492046 
L 190.541008 255.49407 
L 191.054818 255.488362 
L 191.495227 255.537181 
L 191.715431 255.483791 
L 200.156596 255.538937 
L 200.376801 255.488331 
L 201.037414 255.486373 
L 203.386259 255.501377 
L 203.753267 255.546113 
L 204.267077 255.496601 
L 204.707485 255.510095 
L 205.147894 255.545704 
L 206.46912 255.516369 
L 206.689324 255.472158 
L 207.349937 255.495331 
L 207.570141 255.491932 
L 208.083951 255.4993 
L 208.230754 255.535981 
L 208.377557 255.533371 
L 209.258374 255.542692 
L 209.918987 255.538623 
L 230.177783 255.475218 
L 230.324586 255.485287 
L 230.838396 255.539917 
L 231.0586 255.500632 
L 231.425607 255.505366 
L 231.645812 255.488362 
L 231.939418 255.479381 
L 232.673432 255.497118 
L 232.820235 255.499099 
L 236.490306 255.511097 
L 236.637109 255.538171 
L 237.004116 255.464258 
L 237.150919 255.519046 
L 237.444525 255.484467 
L 237.811532 255.524341 
L 237.884934 255.521857 
L 237.958335 255.289551 
L 238.031737 255.530588 
L 238.105138 255.497691 
L 238.398744 255.483041 
L 239.426364 255.514522 
L 240.013575 255.508427 
L 240.307181 255.550729 
L 240.527385 255.498879 
L 240.820991 255.484817 
L 241.2614 255.510977 
L 243.023034 255.504034 
L 243.243238 255.526416 
L 243.610246 255.489348 
L 244.491063 255.469364 
L 244.637866 255.519968 
L 245.004873 255.482534 
L 245.151676 255.513425 
L 245.225077 255.43282 
L 245.37188 255.521852 
L 245.88569 255.509497 
L 246.326099 255.513207 
L 248.601543 255.502537 
L 248.748346 255.515903 
L 248.96855 255.518086 
L 249.702565 255.517485 
L 250.289776 255.544927 
L 250.876988 255.514815 
L 251.097192 255.468858 
L 252.932228 255.513916 
L 253.446038 255.513736 
L 253.666242 255.490708 
L 254.914067 255.463694 
L 255.060869 255.479088 
L 256.161891 255.474635 
L 256.308694 255.534475 
L 256.528898 255.481222 
L 290.807368 255.498206 
L 290.88077 254.750872 
L 291.027572 255.539839 
L 291.247777 255.533387 
L 291.541382 255.524915 
L 294.183834 255.490107 
L 294.330637 255.529121 
L 294.844447 255.469426 
L 295.138053 255.536715 
L 295.50506 255.504254 
L 296.312476 255.46551 
L 296.53268 255.504631 
L 297.340096 255.467231 
L 297.5603 255.480558 
L 298.07411 255.461255 
L 298.294314 255.525042 
L 298.954927 255.454419 
L 299.542139 255.54304 
L 299.909146 255.519119 
L 300.276153 255.532023 
L 301.450576 255.538434 
L 319.213723 255.510125 
L 319.507329 255.526836 
L 321.342365 255.487741 
L 321.562569 255.543348 
L 321.782774 255.4941 
L 322.076379 255.516851 
L 322.516788 255.500457 
L 322.810394 255.508414 
L 323.030598 254.845572 
L 323.177401 255.407744 
L 323.324204 255.255355 
L 323.471007 255.535951 
L 324.058218 255.489589 
L 324.278422 255.520761 
L 324.572028 255.477537 
L 324.865634 255.487532 
L 325.232641 255.482498 
L 326.627268 255.503821 
L 326.847473 255.469858 
L 326.994275 255.527024 
L 327.72829 255.511849 
L 328.095297 255.489929 
L 328.976114 255.488632 
L 329.26972 255.49273 
L 329.563326 255.536874 
L 330.81115 255.506297 
L 331.251559 255.515348 
L 332.719587 255.523803 
L 333.453602 255.511305 
L 334.481222 255.514173 
L 334.848229 255.493313 
L 335.288637 255.534209 
L 335.582243 255.505511 
L 336.022652 255.488446 
L 336.316258 255.484931 
L 336.46306 255.482011 
L 337.050272 255.491457 
L 337.123673 249.687115 
L 337.270476 254.627316 
L 337.343878 254.830008 
L 337.417279 255.399378 
L 337.490681 251.857447 
L 337.637483 255.110167 
L 337.710885 255.311999 
L 337.784286 251.013895 
L 337.857688 255.137467 
L 337.931089 252.533111 
L 338.004491 255.531575 
L 338.077892 255.512319 
L 339.986329 255.474423 
L 340.206534 255.509445 
L 340.867147 255.495853 
L 341.527759 255.507271 
L 342.335175 255.535088 
L 342.628781 255.518461 
L 343.215992 255.525649 
L 343.729802 255.505274 
L 344.317014 255.518566 
L 344.463817 255.482693 
L 344.757423 255.5144 
L 346.445656 255.521693 
L 346.739261 255.480625 
L 347.473276 255.518 
L 348.354093 255.475654 
L 348.574297 255.511232 
L 349.161509 255.521824 
L 349.308312 255.477879 
L 349.455114 255.488866 
L 349.601917 255.46951 
L 351.510355 255.527837 
L 351.877362 255.4619 
L 353.125186 255.484767 
L 353.8592 255.47711 
L 354.006003 255.509489 
L 354.226208 255.501802 
L 354.960222 255.525931 
L 355.474032 255.502276 
L 357.235666 255.490544 
L 358.410089 255.508532 
L 358.777097 255.513989 
L 358.997301 255.515158 
L 359.584512 255.524056 
L 368.833093 255.516601 
L 369.126699 255.543529 
L 370.447925 255.507638 
L 370.594728 243.217704 
L 370.74153 255.531744 
L 374.411602 255.507997 
L 374.705208 255.509782 
L 376.026434 255.524677 
L 376.83385 255.532035 
L 379.035893 255.502847 
L 379.4029 255.536808 
L 380.577323 255.509196 
L 380.870928 255.525393 
L 381.384738 255.477097 
L 381.678344 255.517747 
L 382.338957 255.540258 
L 383.293176 255.529823 
L 383.51338 255.508104 
L 384.394197 255.549421 
L 385.495219 255.527292 
L 385.862226 255.54058 
L 387.256853 255.531881 
L 389.018488 255.520154 
L 390.853524 255.49217 
L 391.000326 255.499987 
L 391.073728 248.78795 
L 391.220531 255.51714 
L 391.440735 253.669883 
L 391.587538 255.042143 
L 391.734341 253.943476 
L 391.807742 250.887145 
L 391.881144 253.538635 
L 392.027946 248.217818 
L 392.174749 254.035631 
L 392.248151 253.550256 
L 392.321552 254.280402 
L 392.394954 254.04755 
L 392.468355 252.926775 
L 392.541757 254.652758 
L 392.615158 253.912609 
L 392.688559 254.834066 
L 392.835362 251.211217 
L 392.982165 255.511964 
L 393.055567 255.497687 
L 393.202369 253.124362 
L 393.275771 254.281688 
L 393.349172 251.625364 
L 393.422574 254.761093 
L 393.495975 253.671185 
L 393.569377 255.511639 
L 393.642778 253.181877 
L 393.716179 254.061594 
L 393.862982 251.858563 
L 393.936384 254.443443 
L 394.156588 249.602816 
L 394.450194 255.045259 
L 394.523595 254.076595 
L 394.596997 254.311033 
L 394.670398 253.837427 
L 394.7438 253.898114 
L 394.890602 244.646051 
L 394.964004 253.591623 
L 395.037405 253.220769 
L 395.110807 243.555783 
L 395.184208 254.450867 
L 395.25761 252.069854 
L 395.404412 255.007896 
L 395.477814 245.82066 
L 395.551215 252.842123 
L 395.624617 251.290927 
L 395.698018 253.926108 
L 395.77142 250.115043 
L 395.844821 253.080493 
L 395.991624 249.457993 
L 396.065025 254.201348 
L 396.211828 245.370192 
L 396.28523 253.916859 
L 396.358631 252.316335 
L 396.432033 251.622062 
L 396.505434 253.129232 
L 396.578835 244.892292 
L 396.725638 252.365901 
L 396.79904 249.975989 
L 396.872441 253.903574 
L 396.945843 252.592594 
L 397.019244 249.229736 
L 397.092645 253.963251 
L 397.166047 253.378032 
L 397.239448 249.052951 
L 397.31285 251.929899 
L 397.386251 250.766949 
L 397.459653 246.568629 
L 397.533054 248.955884 
L 397.606456 248.812052 
L 397.679857 242.327668 
L 397.753258 250.262881 
L 397.82666 249.720712 
L 397.900061 246.955342 
L 398.046864 251.832455 
L 398.120266 246.321405 
L 398.193667 253.526316 
L 398.34047 249.592789 
L 398.413871 248.295812 
L 398.487273 235.003407 
L 398.487273 235.003407 
" clip-path="url(#p81845ad428)" style="fill: none; stroke: #0000ff; stroke-width: 1.5; stroke-linecap: square"/>
   </g>
   <g id="line2d_26">
    <path d="M 73.832727 255.56771 
L 88.733219 255.551528 
L 90.201247 255.551528 
L 182.320048 255.509691 
L 182.393449 255.750545 
L 182.540252 255.533007 
L 183.127463 255.569182 
L 183.641274 255.554779 
L 184.815696 255.532138 
L 185.109302 255.526907 
L 185.402908 255.545427 
L 185.916718 255.557519 
L 186.283725 255.553712 
L 187.091141 255.552407 
L 187.751754 255.571151 
L 188.999578 255.569477 
L 189.513388 255.553377 
L 189.733593 255.540219 
L 191.788833 255.575776 
L 192.009037 255.558513 
L 192.449446 255.566505 
L 192.596249 255.538989 
L 192.889854 255.612748 
L 193.110059 255.55789 
L 193.844073 255.560443 
L 194.431284 255.56863 
L 195.605707 255.532561 
L 195.75251 255.536223 
L 195.972715 255.555931 
L 196.853532 255.580754 
L 197.587546 255.573753 
L 237.884934 255.588386 
L 237.958335 256.120807 
L 238.105138 255.560227 
L 238.325342 255.566884 
L 241.114597 255.572635 
L 242.80283 255.565114 
L 245.004873 255.563533 
L 245.665486 255.582142 
L 246.179296 255.579371 
L 248.601543 255.563308 
L 248.895149 255.583505 
L 251.537601 255.57048 
L 253.739644 255.574212 
L 253.959848 255.549369 
L 254.180052 255.553032 
L 258.14373 255.56634 
L 258.363934 255.581082 
L 259.68516 255.564356 
L 259.978766 255.565201 
L 261.960604 255.564413 
L 263.428633 255.5654 
L 263.648837 255.549377 
L 264.236049 255.567691 
L 264.603056 255.536157 
L 264.82326 255.583489 
L 265.190267 255.566196 
L 267.318909 255.497095 
L 267.465712 255.560712 
L 269.814558 255.561594 
L 270.034762 255.55869 
L 271.722995 255.542137 
L 272.163404 255.562562 
L 290.807368 255.548166 
L 290.88077 257.002125 
L 291.027572 255.557825 
L 291.688185 255.554586 
L 292.642404 255.562922 
L 293.743425 255.553117 
L 294.99125 255.57115 
L 295.138053 255.557201 
L 296.01887 255.563459 
L 308.864121 255.564639 
L 309.891741 255.565635 
L 310.552354 255.557537 
L 310.992763 255.562787 
L 311.286368 255.55949 
L 313.782017 255.567412 
L 315.763856 255.577619 
L 316.204264 255.568894 
L 317.305286 255.552315 
L 322.810394 255.561276 
L 323.030598 256.884926 
L 323.177401 255.727091 
L 323.250802 255.791533 
L 323.324204 256.021559 
L 323.471007 255.563009 
L 326.70067 255.543724 
L 327.067677 255.565573 
L 337.050272 255.562182 
L 337.123673 267.020198 
L 337.270476 257.224342 
L 337.343878 256.923152 
L 337.417279 255.722243 
L 337.490681 262.823344 
L 337.637483 256.277969 
L 337.710885 255.890468 
L 337.784286 264.462118 
L 337.857688 256.347186 
L 337.931089 261.530903 
L 338.004491 255.561316 
L 338.077892 255.568939 
L 339.545921 255.555789 
L 340.867147 255.551738 
L 362.52057 255.581414 
L 362.740774 255.564882 
L 363.03438 255.557487 
L 370.447925 255.557274 
L 370.594728 280.202111 
L 370.668129 255.563383 
L 370.74153 255.566726 
L 372.649968 255.560466 
L 372.943573 255.566279 
L 374.338201 255.553332 
L 374.998814 255.562087 
L 376.980652 255.550339 
L 377.421061 255.565421 
L 378.155075 255.54672 
L 379.182695 255.557168 
L 380.063513 255.551292 
L 380.650724 255.558402 
L 381.384738 255.542106 
L 381.751746 255.577649 
L 382.338957 255.556856 
L 383.293176 255.577493 
L 383.806986 255.557395 
L 384.173993 255.565571 
L 384.908007 255.560801 
L 385.642022 255.554208 
L 385.935627 255.58151 
L 386.59624 255.567522 
L 387.330255 255.57191 
L 388.798283 255.553272 
L 389.458896 255.569603 
L 389.679101 255.518739 
L 389.899305 255.536797 
L 391.000326 255.568583 
L 391.073728 268.870991 
L 391.220531 255.563802 
L 391.440735 259.284872 
L 391.587538 256.504238 
L 391.734341 258.695902 
L 391.807742 264.801201 
L 391.881144 259.387236 
L 392.027946 270.13129 
L 392.174749 258.528269 
L 392.248151 259.488112 
L 392.321552 258.045053 
L 392.394954 258.448374 
L 392.468355 260.719282 
L 392.541757 257.18442 
L 392.615158 258.794399 
L 392.688559 256.981768 
L 392.835362 264.176026 
L 392.982165 255.559538 
L 393.055567 255.552831 
L 393.202369 260.306679 
L 393.275771 257.978213 
L 393.349172 263.308383 
L 393.422574 257.001662 
L 393.495975 259.191294 
L 393.569377 255.575577 
L 393.642778 260.110739 
L 393.716179 258.379914 
L 393.789581 261.156027 
L 393.862982 260.250288 
L 393.936384 257.6677 
L 394.083187 264.518613 
L 394.156588 262.015859 
L 394.22999 264.096029 
L 394.450194 256.157618 
L 394.523595 258.011678 
L 394.596997 257.724888 
L 394.670398 257.716522 
L 394.7438 258.43867 
L 394.890602 267.543958 
L 394.964004 257.657245 
L 395.037405 257.833052 
L 395.110807 267.569107 
L 395.184208 256.851342 
L 395.25761 260.836407 
L 395.404412 256.070062 
L 395.477814 265.253673 
L 395.551215 258.958005 
L 395.624617 259.728811 
L 395.698018 257.140551 
L 395.77142 261.140142 
L 395.844821 258.125573 
L 395.918223 263.025616 
L 395.991624 261.779665 
L 396.065025 256.829497 
L 396.211828 271.86745 
L 396.28523 257.895475 
L 396.358631 261.43899 
L 396.505434 257.573722 
L 396.578835 263.924775 
L 396.725638 258.914946 
L 396.79904 259.535808 
L 396.872441 257.229666 
L 396.945843 258.052205 
L 397.019244 261.446309 
L 397.092645 256.732686 
L 397.166047 256.92331 
L 397.239448 262.664869 
L 397.31285 258.103549 
L 397.459653 261.782381 
L 397.533054 262.176044 
L 397.606456 261.049076 
L 397.679857 271.5252 
L 397.753258 260.826062 
L 397.82666 261.450344 
L 397.900061 261.695415 
L 397.973463 263.498004 
L 398.046864 260.769436 
L 398.120266 262.233485 
L 398.193667 257.064903 
L 398.413871 263.743652 
L 398.487273 295.488 
L 398.487273 295.488 
" clip-path="url(#p81845ad428)" style="fill: none; stroke-dasharray: 9.6,2.4,1.5,2.4; stroke-dashoffset: 0; stroke: #008000; stroke-width: 1.5"/>
   </g>
   <g id="line2d_27">
    <path d="M 73.832727 255.552992 
L 83.448315 255.548331 
L 86.310971 255.551135 
L 89.173627 255.551135 
L 115.965151 255.496917 
L 116.185355 255.430927 
L 118.901208 255.441901 
L 119.048011 255.438401 
L 119.194814 255.475346 
L 119.635222 255.416657 
L 119.928828 255.46025 
L 121.690463 255.460152 
L 122.351076 255.477089 
L 122.644681 255.494655 
L 124.039309 255.490412 
L 124.479717 255.489183 
L 124.846724 255.434522 
L 125.287133 255.446352 
L 125.874344 255.451279 
L 126.021147 255.424023 
L 126.388154 255.407559 
L 126.828563 255.488594 
L 126.901965 255.396136 
L 126.975366 255.464019 
L 127.268972 255.43925 
L 127.70938 255.437296 
L 127.782782 255.526396 
L 127.856183 255.460118 
L 128.443395 255.500129 
L 129.397613 255.51534 
L 129.838022 255.486214 
L 130.351832 255.47794 
L 130.572036 255.504527 
L 130.718839 255.456962 
L 130.865642 255.51643 
L 131.159248 255.497757 
L 132.407072 255.52533 
L 132.553875 255.48786 
L 132.920882 255.481353 
L 133.214488 255.444287 
L 133.508094 255.433318 
L 133.581495 255.525429 
L 133.728298 255.413755 
L 134.095305 255.456202 
L 134.535714 255.462127 
L 134.902721 255.529809 
L 135.049524 255.4797 
L 135.269728 255.513167 
L 135.563334 255.453487 
L 135.710137 255.453657 
L 138.646194 255.48324 
L 138.9398 255.457406 
L 139.160004 255.500221 
L 139.306807 255.434543 
L 139.820617 255.445808 
L 139.894018 255.539235 
L 139.96742 255.462315 
L 140.261026 255.435202 
L 140.701434 255.432123 
L 141.288646 255.414938 
L 141.362047 255.514013 
L 141.50885 255.402103 
L 141.802456 255.386277 
L 141.875857 255.402146 
L 141.949259 255.535621 
L 142.02266 255.459383 
L 142.169463 255.43555 
L 142.389667 255.43941 
L 142.830076 255.386807 
L 142.903477 255.491381 
L 142.976879 255.411079 
L 143.417287 255.381958 
L 144.151302 255.415582 
L 144.298105 255.392768 
L 144.444907 255.472579 
L 144.665112 255.390134 
L 144.885316 255.50099 
L 145.032119 255.391338 
L 145.252323 255.443498 
L 145.399126 255.378516 
L 145.545929 255.456431 
L 145.692732 255.465266 
L 145.839535 255.41471 
L 145.912936 255.514334 
L 146.059739 255.431393 
L 146.353345 255.411224 
L 146.500148 255.425044 
L 146.573549 255.523827 
L 146.720352 255.402108 
L 147.747972 255.489347 
L 147.968176 255.424653 
L 148.555388 255.367189 
L 148.628789 255.499086 
L 148.702191 255.421426 
L 148.848993 255.483413 
L 148.995796 255.405625 
L 149.069198 255.52522 
L 149.142599 255.443654 
L 149.729811 255.478509 
L 150.317022 255.471144 
L 150.830832 255.512217 
L 151.197839 255.470033 
L 151.418044 255.501934 
L 151.564847 255.496001 
L 153.032875 255.438278 
L 153.399882 255.39402 
L 153.546685 255.460256 
L 153.913692 255.424216 
L 154.060495 255.426353 
L 154.2807 255.431145 
L 154.574305 255.437273 
L 154.721108 255.442963 
L 154.941313 255.497174 
L 155.161517 255.479885 
L 155.601925 255.494705 
L 155.895531 255.408905 
L 155.968933 255.512563 
L 156.042334 255.456746 
L 156.262538 255.462424 
L 156.556144 255.518317 
L 156.702947 255.449778 
L 156.84975 255.487579 
L 157.069954 255.49604 
L 157.216757 255.481678 
L 157.436961 255.426031 
L 157.657166 255.493727 
L 158.39118 255.456916 
L 158.758187 255.394979 
L 159.051793 255.478641 
L 159.198596 255.443693 
L 160.006012 255.485932 
L 160.152814 255.454375 
L 160.519822 255.381683 
L 160.593223 255.500056 
L 160.666624 255.434459 
L 161.180435 255.420757 
L 161.253836 255.545861 
L 161.400639 255.426284 
L 161.47404 255.543852 
L 161.547442 255.432907 
L 161.620843 255.522004 
L 161.767646 255.44142 
L 161.841047 255.543403 
L 161.98785 255.439346 
L 163.01547 255.412474 
L 163.162273 255.521061 
L 163.455879 255.44363 
L 163.52928 255.543763 
L 163.676083 255.436521 
L 163.969689 255.421406 
L 164.04309 255.503292 
L 164.116492 255.40776 
L 164.189893 255.529298 
L 164.263295 255.384987 
L 164.336696 255.474876 
L 164.410098 255.417934 
L 164.5569 255.500291 
L 164.777105 255.489791 
L 165.144112 255.496004 
L 165.584521 255.43835 
L 165.731323 255.453724 
L 171.603438 255.43132 
L 171.750241 255.500831 
L 171.970445 255.435559 
L 172.19065 255.396195 
L 172.337453 255.412512 
L 172.998065 255.449858 
L 173.365073 255.394076 
L 173.73208 255.490675 
L 173.878883 255.368565 
L 174.7597 255.423124 
L 174.906503 255.429228 
L 176.227729 255.331994 
L 176.30113 255.486268 
L 176.374531 255.388625 
L 176.521334 255.523091 
L 176.668137 255.370307 
L 176.741539 255.373329 
L 176.81494 255.525574 
L 176.888342 255.398121 
L 176.961743 255.451396 
L 177.32875 255.374487 
L 177.402152 255.492503 
L 177.475553 255.385373 
L 177.548954 255.465993 
L 177.695757 255.415191 
L 177.769159 255.540531 
L 177.84256 255.412928 
L 177.915962 255.467527 
L 178.062764 255.405593 
L 178.209567 255.50913 
L 178.576575 255.424417 
L 178.723377 255.408498 
L 179.38399 255.403936 
L 179.457392 255.374185 
L 179.530793 255.476718 
L 179.677596 255.38889 
L 179.750997 255.479798 
L 179.824399 255.392035 
L 179.8978 255.490755 
L 179.971202 255.408084 
L 180.118005 255.444065 
L 180.191406 255.358177 
L 180.338209 255.481862 
L 181.365829 255.411558 
L 181.43923 255.509348 
L 181.586033 255.445363 
L 182.246646 255.453589 
L 182.320048 255.366968 
L 182.393449 254.911783 
L 182.466851 255.410992 
L 182.540252 255.379602 
L 182.760456 255.413373 
L 182.980661 255.41387 
L 183.127463 255.445969 
L 183.347668 255.385663 
L 183.421069 255.301979 
L 183.567872 255.422334 
L 183.934879 255.333493 
L 184.081682 255.523269 
L 184.155084 255.398907 
L 184.228485 255.448331 
L 184.448689 255.393162 
L 184.595492 255.441562 
L 184.889098 255.38683 
L 189.219783 255.445983 
L 189.293184 255.370803 
L 189.366585 255.452121 
L 189.58679 255.362243 
L 190.541008 255.416862 
L 190.761213 255.397554 
L 190.908016 255.454391 
L 191.12822 255.441045 
L 191.348424 255.444092 
L 191.421826 255.400113 
L 191.495227 255.496972 
L 191.715431 255.392798 
L 192.816453 255.399179 
L 192.889854 255.182937 
L 193.036657 255.49828 
L 193.110059 255.468515 
L 193.330263 255.396835 
L 193.623869 255.421477 
L 193.917474 255.4393 
L 194.064277 255.515383 
L 194.21108 255.417883 
L 194.431284 255.503183 
L 194.871693 255.443554 
L 194.945094 255.415063 
L 195.091897 255.483659 
L 195.385503 255.470123 
L 196.119517 255.454296 
L 196.26632 255.447488 
L 196.486525 255.403544 
L 196.559926 255.357321 
L 196.633327 255.485194 
L 196.706729 255.389788 
L 196.78013 255.512241 
L 196.926933 255.392078 
L 198.101356 255.526544 
L 198.32156 255.432384 
L 198.688568 255.403476 
L 199.128976 255.426069 
L 199.202378 255.496017 
L 199.349181 255.408431 
L 199.495983 255.434334 
L 200.083195 255.424852 
L 200.156596 255.504106 
L 200.303399 255.382881 
L 200.523603 255.38753 
L 201.918231 255.453713 
L 202.432041 255.391412 
L 202.578844 255.464991 
L 202.799048 255.441612 
L 202.872449 255.501191 
L 203.019252 255.371602 
L 203.459661 255.499655 
L 203.533062 255.424722 
L 203.606464 255.537567 
L 203.679865 255.435506 
L 203.753267 255.538674 
L 203.826668 255.483005 
L 204.046872 255.458494 
L 204.193675 255.500908 
L 204.41388 255.434083 
L 211.827424 255.49382 
L 212.341234 255.441428 
L 212.414636 255.511448 
L 212.488037 255.416091 
L 212.708242 255.515536 
L 212.928446 255.389288 
L 213.14865 255.431415 
L 213.295453 255.404922 
L 213.442256 255.432087 
L 213.589059 255.431264 
L 213.66246 255.537894 
L 213.809263 255.355078 
L 214.029467 255.478326 
L 214.249672 255.406422 
L 215.20389 255.426671 
L 215.570898 255.423065 
L 215.7177 255.435422 
L 216.745321 255.415397 
L 217.185729 255.405084 
L 219.387772 255.473424 
L 219.534575 255.440518 
L 219.681378 255.498294 
L 219.828181 255.459267 
L 219.901582 255.522564 
L 220.121787 255.401876 
L 220.268589 255.486871 
L 220.635597 255.480095 
L 220.782399 255.458331 
L 221.002604 255.397241 
L 221.149407 255.456817 
L 221.296209 255.420186 
L 221.663217 255.395625 
L 221.883421 255.489791 
L 222.103625 255.4378 
L 222.470632 255.42147 
L 222.544034 255.486751 
L 222.690837 255.406279 
L 223.278048 255.480694 
L 223.424851 255.399499 
L 224.305668 255.497901 
L 224.452471 255.462568 
L 224.672675 255.422431 
L 226.287507 255.375918 
L 226.360908 255.490208 
L 226.43431 255.413545 
L 226.874719 255.459211 
L 227.46193 255.383104 
L 228.049141 255.48338 
L 228.269346 255.474543 
L 228.48955 255.451655 
L 228.636353 255.339664 
L 228.709754 255.502372 
L 228.783156 255.434683 
L 229.00336 255.416219 
L 229.150163 255.376446 
L 232.453228 255.408901 
L 232.746833 255.375245 
L 232.967038 255.380718 
L 233.847855 255.442711 
L 233.921256 255.514305 
L 233.994658 255.398709 
L 234.068059 255.506346 
L 234.288263 255.397068 
L 234.508468 255.500988 
L 234.728672 255.403924 
L 234.948876 255.512683 
L 235.169081 255.414128 
L 235.682891 255.419428 
L 235.829694 255.477463 
L 235.976496 255.413092 
L 236.123299 255.497765 
L 237.591328 255.427667 
L 237.738131 255.504712 
L 237.884934 255.455327 
L 237.958335 254.458294 
L 238.031737 255.481874 
L 238.105138 255.435155 
L 242.215618 255.424581 
L 242.362421 255.417378 
L 242.435823 255.506165 
L 242.582626 255.418314 
L 242.656027 255.52611 
L 242.729428 255.437591 
L 242.80283 255.513422 
L 242.876231 255.441702 
L 243.023034 255.444718 
L 243.096436 255.519571 
L 243.169837 255.403178 
L 243.243238 255.489883 
L 243.31664 255.430001 
L 243.390041 255.5392 
L 243.536844 255.389498 
L 244.050654 255.411494 
L 244.491063 255.385166 
L 244.637866 255.483953 
L 244.784669 255.414652 
L 244.85807 255.491914 
L 245.004873 255.401536 
L 245.151676 255.442014 
L 245.225077 255.319756 
L 245.37188 255.458443 
L 245.518683 255.470808 
L 245.959092 255.407379 
L 246.032493 255.509845 
L 246.105894 255.438829 
L 246.252697 255.445389 
L 246.546303 255.428139 
L 246.619704 255.507466 
L 246.766507 255.452106 
L 246.839909 255.42345 
L 246.986712 255.507224 
L 247.42712 255.467158 
L 250.950389 255.507667 
L 251.097192 255.381169 
L 251.831206 255.415298 
L 251.904608 255.396447 
L 251.978009 255.540002 
L 252.051411 255.40628 
L 252.124812 255.469687 
L 252.198213 255.388126 
L 252.418418 255.524688 
L 252.785425 255.443172 
L 253.813045 255.416465 
L 254.033249 255.426608 
L 254.547059 255.39406 
L 255.868285 255.397599 
L 256.161891 255.377539 
L 256.308694 255.494881 
L 256.455497 255.421257 
L 256.6023 255.392106 
L 256.675701 255.539839 
L 256.822504 255.4074 
L 257.042708 255.526321 
L 257.189511 255.482323 
L 257.336314 255.437013 
L 257.703321 255.414652 
L 257.850124 255.453809 
L 257.923525 255.400765 
L 257.996927 255.523702 
L 258.070328 255.432319 
L 258.290533 255.401142 
L 258.730941 255.39795 
L 258.804343 255.542897 
L 258.951145 255.430259 
L 259.68516 255.382726 
L 263.428633 255.408058 
L 263.575436 255.417411 
L 264.089246 255.347218 
L 264.236049 255.437907 
L 264.456253 255.375903 
L 264.82326 255.408596 
L 264.970063 255.412953 
L 265.190267 255.396096 
L 265.410472 255.405634 
L 265.557275 255.389475 
L 265.630676 255.526373 
L 265.777479 255.368395 
L 265.924282 255.418754 
L 266.438092 255.364066 
L 266.584895 255.433858 
L 266.8785 255.371545 
L 267.025303 255.408362 
L 267.172106 255.438068 
L 267.245508 255.498476 
L 267.318909 255.347626 
L 267.39231 255.445008 
L 267.539113 255.419326 
L 267.612515 255.37121 
L 267.759318 255.512848 
L 267.979522 255.422515 
L 269.007142 255.420329 
L 269.153945 255.535432 
L 269.227346 255.404131 
L 269.300748 255.47636 
L 269.667755 255.437903 
L 269.741156 255.52554 
L 269.961361 255.412623 
L 270.254966 255.530907 
L 270.548572 255.404927 
L 270.695375 255.447906 
L 270.915579 255.397709 
L 271.135784 255.47275 
L 271.209185 255.515788 
L 271.355988 255.38169 
L 271.502791 255.494222 
L 271.722995 255.412316 
L 271.869798 255.539304 
L 272.163404 255.459321 
L 272.236805 255.519108 
L 272.383608 255.461343 
L 272.530411 255.404663 
L 272.603812 255.534769 
L 272.677214 255.438957 
L 272.750615 255.512047 
L 272.824017 255.426424 
L 272.897418 255.51075 
L 273.044221 255.455359 
L 273.264425 255.436104 
L 273.558031 255.443649 
L 274.659052 255.459022 
L 274.879257 255.440105 
L 275.02606 255.486351 
L 275.172863 255.428353 
L 275.319665 255.524901 
L 276.273884 255.382404 
L 276.420687 255.504862 
L 276.494088 255.387288 
L 276.56749 255.505799 
L 276.640891 255.414846 
L 277.228103 255.408147 
L 277.301504 255.526674 
L 277.521708 255.406986 
L 278.329124 255.413109 
L 278.402526 255.514407 
L 278.475927 255.454723 
L 278.696131 255.489659 
L 279.430146 255.444886 
L 279.576949 255.427693 
L 280.16416 255.438179 
L 280.384364 255.458373 
L 280.67797 255.415729 
L 281.044977 255.42318 
L 281.118379 255.530488 
L 281.19178 255.458225 
L 281.632189 255.453949 
L 281.925795 255.482262 
L 282.145999 255.47259 
L 282.292802 255.465305 
L 282.513006 255.45796 
L 282.880013 255.432487 
L 283.173619 255.49322 
L 284.127838 255.418662 
L 284.27464 255.468502 
L 284.78845 255.500515 
L 285.008655 255.449736 
L 285.816071 255.451281 
L 286.329881 255.431504 
L 286.550085 255.48747 
L 286.770289 255.516243 
L 288.678726 255.432615 
L 288.825529 255.439768 
L 290.513762 255.447227 
L 290.660565 255.468382 
L 290.807368 255.448246 
L 290.88077 252.49962 
L 291.027572 255.521852 
L 291.174375 255.457582 
L 291.321178 255.436904 
L 291.761587 255.44678 
L 291.90839 255.439394 
L 292.128594 255.466947 
L 292.275397 255.467632 
L 293.156214 255.401514 
L 293.229615 255.532274 
L 293.303017 255.436321 
L 293.596623 255.516889 
L 293.743425 255.497643 
L 293.816827 255.49041 
L 293.890228 255.363093 
L 294.037031 255.416196 
L 294.330637 255.49925 
L 294.47744 255.412022 
L 294.624243 255.499232 
L 294.771046 255.419378 
L 295.064651 255.407138 
L 295.138053 255.51623 
L 295.211454 255.45157 
L 295.431658 255.396677 
L 295.578461 255.419761 
L 296.092271 255.473869 
L 296.312476 255.390417 
L 296.606081 255.43893 
L 296.826286 255.389193 
L 296.973089 255.427301 
L 298.07411 255.376839 
L 298.220913 255.506075 
L 299.028329 255.389585 
L 299.10173 255.471859 
L 299.175132 255.393284 
L 299.468737 255.416075 
L 299.542139 255.526688 
L 299.61554 255.462416 
L 299.688942 255.442415 
L 299.835745 255.536452 
L 299.909146 255.458683 
L 299.982547 255.528612 
L 301.377175 255.469136 
L 301.597379 255.52207 
L 302.257992 255.482757 
L 319.654132 255.438273 
L 319.727533 255.525495 
L 319.800935 255.463614 
L 319.947738 255.450958 
L 320.021139 255.542776 
L 320.167942 255.394974 
L 322.296584 255.452094 
L 322.443386 255.429293 
L 322.810394 255.455551 
L 323.030598 252.806219 
L 323.177401 255.088397 
L 323.250802 254.960984 
L 323.324204 254.489151 
L 323.471007 255.508892 
L 323.838014 255.449327 
L 324.058218 255.409151 
L 324.205021 255.447397 
L 324.351824 255.422033 
L 324.865634 255.412437 
L 325.599648 255.394587 
L 325.746451 255.42205 
L 325.819852 255.399823 
L 325.893254 255.517722 
L 325.966655 255.462508 
L 332.572784 255.47783 
L 332.792989 255.455094 
L 333.673806 255.469906 
L 333.89401 255.501368 
L 334.114215 255.451124 
L 334.774827 255.456162 
L 334.92163 255.459281 
L 335.068433 255.475419 
L 336.316258 255.406898 
L 336.389659 255.518665 
L 336.536462 255.411791 
L 337.050272 255.420733 
L 337.123673 232.354032 
L 337.270476 252.030289 
L 337.343878 252.736863 
L 337.417279 255.076513 
L 337.490681 240.891549 
L 337.637483 253.942364 
L 337.710885 254.733529 
L 337.784286 237.565671 
L 337.857688 253.927748 
L 337.931089 243.535318 
L 338.004491 255.501834 
L 338.077892 255.455699 
L 341.087351 255.453841 
L 341.234154 255.455679 
L 344.463817 255.41459 
L 344.684021 255.501615 
L 344.977627 255.465319 
L 345.271233 255.492775 
L 346.445656 255.485528 
L 346.739261 255.421486 
L 347.69348 255.496009 
L 347.913684 255.402016 
L 348.133889 255.459892 
L 348.354093 255.403802 
L 348.500896 255.461183 
L 349.528516 255.491273 
L 349.675319 255.403713 
L 350.115727 255.502283 
L 350.409333 255.397747 
L 350.556136 255.497283 
L 351.069946 255.482696 
L 351.29015 255.506048 
L 351.583756 255.441257 
L 352.170967 255.420197 
L 352.391172 255.507145 
L 352.464573 255.431232 
L 352.611376 255.472607 
L 353.051785 255.480919 
L 353.271989 255.416045 
L 353.712398 255.420556 
L 353.8592 255.404347 
L 354.006003 255.479474 
L 354.079405 255.402117 
L 354.152806 255.528456 
L 354.226208 255.43669 
L 354.666616 255.45226 
L 355.694236 255.444984 
L 356.208046 255.462973 
L 356.868659 255.498732 
L 357.015462 255.413044 
L 358.043082 255.466605 
L 358.410089 255.447921 
L 358.630294 255.482003 
L 359.804717 255.524369 
L 360.024921 255.514302 
L 360.685534 255.496978 
L 362.887577 255.41598 
L 363.03438 255.515086 
L 363.694993 255.444148 
L 363.915197 255.523433 
L 364.282204 255.470413 
L 364.722613 255.466387 
L 364.942817 255.468964 
L 365.016219 255.537652 
L 365.08962 255.459137 
L 365.309824 255.460009 
L 366.337444 255.398724 
L 366.484247 255.47082 
L 366.557649 255.410482 
L 366.63105 255.498804 
L 366.704452 255.413322 
L 366.777853 255.410741 
L 366.924656 255.536518 
L 367.218262 255.488468 
L 367.438466 255.524155 
L 367.65867 255.474722 
L 368.025677 255.512058 
L 369.787312 255.451625 
L 369.934115 255.491067 
L 370.447925 255.458002 
L 370.594728 206.233297 
L 370.74153 255.496761 
L 375.365821 255.460193 
L 375.512624 255.507297 
L 375.806229 255.458328 
L 375.953032 255.490451 
L 377.127455 255.476647 
L 377.421061 255.454061 
L 377.641265 255.525231 
L 378.155075 255.412222 
L 378.301878 255.483742 
L 379.035893 255.432827 
L 379.256097 255.50518 
L 379.549703 255.488233 
L 380.136914 255.458382 
L 380.283717 255.493846 
L 380.503921 255.432938 
L 381.237936 255.487246 
L 381.751746 255.438126 
L 382.48576 255.529314 
L 383.146373 255.461815 
L 383.293176 255.482153 
L 383.439979 255.442856 
L 384.02719 255.420346 
L 384.320796 255.544562 
L 386.302635 255.467819 
L 386.59624 255.486824 
L 389.458896 255.421385 
L 389.752502 255.411881 
L 391.000326 255.43139 
L 391.073728 228.704909 
L 391.220531 255.470477 
L 391.440735 248.054894 
L 391.587538 253.580048 
L 391.734341 249.191051 
L 391.807742 236.97309 
L 391.881144 247.690035 
L 392.027946 226.304347 
L 392.174749 249.542993 
L 392.248151 247.6124 
L 392.321552 250.515751 
L 392.394954 249.646727 
L 392.468355 245.134268 
L 392.541757 252.121096 
L 392.615158 249.030819 
L 392.688559 252.686364 
L 392.835362 238.246408 
L 392.982165 255.46439 
L 393.055567 255.442543 
L 393.202369 245.942046 
L 393.275771 250.585164 
L 393.349172 239.942345 
L 393.422574 252.520524 
L 393.495975 248.151077 
L 393.569377 255.447701 
L 393.642778 246.253015 
L 393.716179 249.743275 
L 393.862982 243.466838 
L 393.936384 251.219186 
L 394.083187 237.513752 
L 394.156588 237.189773 
L 394.22999 238.354151 
L 394.450194 253.932899 
L 394.523595 250.141513 
L 394.596997 250.897179 
L 394.7438 249.357558 
L 394.890602 221.748145 
L 394.964004 249.526 
L 395.037405 248.608486 
L 395.110807 219.54246 
L 395.184208 252.050392 
L 395.25761 243.303301 
L 395.404412 253.94573 
L 395.477814 226.387647 
L 395.551215 246.72624 
L 395.624617 242.853042 
L 395.698018 250.711665 
L 395.77142 239.089943 
L 395.844821 248.035413 
L 395.991624 237.136321 
L 396.065025 251.573198 
L 396.211828 218.872934 
L 396.28523 249.938243 
L 396.358631 243.19368 
L 396.505434 248.684742 
L 396.578835 225.859809 
L 396.725638 245.816857 
L 396.79904 240.416171 
L 396.872441 250.577481 
L 396.945843 247.132983 
L 397.019244 237.013164 
L 397.092645 251.193817 
L 397.166047 249.832755 
L 397.239448 235.441033 
L 397.31285 245.756249 
L 397.386251 240.533594 
L 397.459653 231.354876 
L 397.533054 235.735725 
L 397.606456 236.575028 
L 397.679857 213.130137 
L 397.753258 239.6997 
L 397.82666 237.991079 
L 397.900061 232.215268 
L 398.046864 242.895475 
L 398.120266 230.409325 
L 398.193667 249.98773 
L 398.413871 232.847972 
L 398.487273 174.518814 
L 398.487273 174.518814 
" clip-path="url(#p81845ad428)" style="fill: none; stroke-dasharray: 9.6,2.4,1.5,2.4; stroke-dashoffset: 0; stroke: #008000; stroke-width: 1.5"/>
   </g>
   <g id="line2d_28">
    <path d="M 73.832727 255.551085 
L 119.561821 255.408652 
L 119.635222 255.319463 
L 119.782025 255.487887 
L 120.075631 255.406191 
L 121.910667 255.39487 
L 122.130871 255.492421 
L 122.351076 255.465252 
L 122.57128 255.412062 
L 122.791484 255.49766 
L 123.08509 255.410649 
L 123.158491 255.490271 
L 123.231893 255.409514 
L 124.039309 255.485195 
L 124.553119 255.444416 
L 124.920126 255.440017 
L 125.213732 255.472745 
L 125.507337 255.410554 
L 125.580739 255.483465 
L 125.65414 255.400501 
L 125.800943 255.424299 
L 126.828563 255.425319 
L 126.901965 255.289711 
L 127.122169 255.49199 
L 127.415775 255.423125 
L 127.70938 255.407277 
L 127.782782 255.493398 
L 127.856183 255.413321 
L 128.149789 255.442104 
L 128.296592 255.460808 
L 128.590198 255.485747 
L 130.718839 255.379354 
L 130.865642 255.496005 
L 131.085846 255.467713 
L 131.379452 255.455685 
L 131.526255 255.453931 
L 132.113466 255.465154 
L 132.186868 255.405775 
L 132.407072 255.518338 
L 132.553875 255.421904 
L 132.774079 255.492568 
L 132.994284 255.380184 
L 133.361291 255.37481 
L 133.434692 255.289667 
L 133.581495 255.496012 
L 133.654897 255.395692 
L 135.930341 255.43144 
L 136.003742 255.306572 
L 136.150545 255.442949 
L 136.223947 255.339228 
L 136.37075 255.407874 
L 136.957961 255.494734 
L 138.646194 255.447695 
L 138.866398 255.437416 
L 139.527011 255.318343 
L 139.747216 255.483737 
L 139.820617 255.413458 
L 139.894018 255.534496 
L 140.040821 255.394903 
L 140.187624 255.400069 
L 140.554631 255.396044 
L 140.628033 255.51366 
L 140.774836 255.408668 
L 141.288646 255.346945 
L 141.362047 255.490561 
L 141.50885 255.351866 
L 141.875857 255.351866 
L 141.949259 255.519559 
L 142.02266 255.412008 
L 142.169463 255.355146 
L 142.242864 255.441437 
L 142.389667 255.358837 
L 142.830076 255.349716 
L 142.903477 255.483474 
L 143.05028 255.343415 
L 143.56409 255.311409 
L 143.710893 255.414178 
L 144.224703 255.400644 
L 144.811915 255.343077 
L 144.885316 255.48781 
L 145.032119 255.342539 
L 145.399126 255.342684 
L 145.472527 255.489318 
L 145.545929 255.426003 
L 145.692732 255.435776 
L 145.839535 255.343292 
L 145.912936 255.493221 
L 145.986338 255.398921 
L 147.747972 255.453922 
L 147.968176 255.405513 
L 148.555388 255.298791 
L 148.628789 255.490108 
L 148.702191 255.393908 
L 148.922395 255.397572 
L 148.995796 255.395106 
L 149.069198 255.50848 
L 149.142599 255.422258 
L 150.537226 255.529791 
L 150.684029 255.406049 
L 150.830832 255.484426 
L 150.977635 255.407665 
L 151.124438 255.495595 
L 151.197839 255.408279 
L 151.271241 255.487074 
L 152.372262 255.44892 
L 152.592467 255.403667 
L 152.665868 255.490167 
L 152.812671 255.43471 
L 153.179678 255.402701 
L 153.25308 255.489401 
L 153.326481 255.40657 
L 153.399882 255.319053 
L 153.546685 255.405662 
L 153.913692 255.40239 
L 153.987094 255.480623 
L 154.133897 255.30171 
L 154.500904 255.431426 
L 154.721108 255.402346 
L 154.79451 255.488771 
L 154.867911 255.413895 
L 154.941313 255.488771 
L 155.014714 255.395517 
L 155.161517 255.458006 
L 155.455123 255.499697 
L 155.675327 255.424783 
L 155.748728 255.49643 
L 155.895531 255.410105 
L 155.968933 255.488255 
L 156.042334 255.406025 
L 157.803969 255.466718 
L 157.950771 255.492321 
L 158.244377 255.399599 
L 158.317779 255.483142 
L 158.39118 255.40616 
L 158.978391 255.420474 
L 159.4188 255.40127 
L 159.492202 255.313546 
L 159.639004 255.497096 
L 159.785807 255.397127 
L 160.299617 255.398185 
L 161.107033 255.408824 
L 161.180435 255.397391 
L 161.253836 255.543769 
L 161.400639 255.394225 
L 161.47404 255.542572 
L 161.547442 255.397253 
L 161.620843 255.523531 
L 161.767646 255.404515 
L 161.841047 255.542572 
L 161.98785 255.412532 
L 162.281456 255.395555 
L 162.428259 255.489793 
L 163.455879 255.418814 
L 163.52928 255.544179 
L 163.676083 255.345335 
L 163.896288 255.400805 
L 165.511119 255.481906 
L 165.584521 255.405955 
L 165.657922 255.490023 
L 165.731323 255.4152 
L 166.024929 255.469512 
L 166.171732 255.407832 
L 166.465338 255.404704 
L 166.758944 255.314568 
L 167.052549 255.408876 
L 167.272754 255.345239 
L 167.492958 255.435234 
L 167.713162 255.401681 
L 167.786564 255.484426 
L 167.859965 255.401458 
L 168.887585 255.404294 
L 168.960987 255.30134 
L 169.034388 255.481906 
L 169.107789 255.394451 
L 169.181191 255.3192 
L 169.254592 255.433432 
L 169.401395 255.301244 
L 169.621599 255.300978 
L 169.695001 255.481834 
L 169.768402 255.405647 
L 169.841804 255.478776 
L 169.915205 255.300966 
L 169.988607 255.479596 
L 170.062008 255.439318 
L 170.208811 255.319603 
L 170.282212 255.43185 
L 170.355614 255.311709 
L 170.429015 255.3951 
L 170.722621 255.30171 
L 171.236431 255.419828 
L 171.309832 255.321514 
L 171.383234 255.39867 
L 171.970445 255.421236 
L 172.19065 255.313546 
L 172.337453 255.394882 
L 172.484255 255.492811 
L 172.557657 255.318643 
L 172.631058 255.358427 
L 172.70446 255.497852 
L 172.777861 255.34277 
L 172.851263 255.409875 
L 172.998065 255.43553 
L 173.365073 255.346227 
L 173.658678 255.341136 
L 173.73208 255.442684 
L 173.878883 255.243409 
L 174.172488 255.490332 
L 174.319291 255.309732 
L 174.392693 255.441864 
L 174.539496 255.352576 
L 174.612897 255.394747 
L 174.7597 255.337124 
L 174.833101 255.301023 
L 174.979904 255.408686 
L 175.053306 255.343415 
L 175.200109 255.488418 
L 175.346911 255.30206 
L 175.640517 255.302953 
L 175.713919 255.219228 
L 175.78732 255.443094 
L 175.860721 255.345335 
L 176.080926 255.313049 
L 176.227729 255.213187 
L 176.30113 255.483474 
L 176.374531 255.314763 
L 176.447933 255.420395 
L 176.521334 255.492253 
L 176.668137 255.314763 
L 176.741539 255.301156 
L 176.81494 255.492811 
L 176.888342 255.397572 
L 177.108546 255.350525 
L 177.32875 255.34436 
L 177.402152 255.488116 
L 177.475553 255.350737 
L 177.548954 255.427348 
L 177.695757 255.354626 
L 177.769159 255.536048 
L 177.84256 255.34932 
L 177.915962 255.423341 
L 178.062764 255.342359 
L 178.136166 255.534269 
L 178.209567 255.442274 
L 179.090385 255.356503 
L 179.163786 255.479393 
L 179.237187 255.403065 
L 179.38399 255.394747 
L 179.457392 255.308202 
L 179.530793 255.482507 
L 179.677596 255.347765 
L 179.8978 255.488297 
L 179.971202 255.354216 
L 180.044603 255.406468 
L 181.732836 255.39799 
L 181.806238 255.32014 
L 181.953041 255.422379 
L 182.320048 255.317092 
L 182.393449 254.092483 
L 182.466851 255.341546 
L 182.540252 255.321193 
L 182.687055 255.50956 
L 182.833858 255.399981 
L 183.200865 255.394667 
L 183.421069 255.130172 
L 183.567872 255.406284 
L 183.714675 255.241501 
L 183.788076 255.39925 
L 183.934879 255.232989 
L 184.081682 255.508329 
L 184.301886 255.289016 
L 184.448689 255.365379 
L 184.742295 255.433404 
L 184.962499 255.363133 
L 186.210324 255.369016 
L 186.430528 255.393902 
L 187.825155 255.366424 
L 187.898557 255.511767 
L 187.971958 255.397574 
L 188.04536 255.511767 
L 188.192162 255.36065 
L 188.412367 255.371152 
L 188.485768 255.506279 
L 188.55917 255.359414 
L 188.632571 255.508329 
L 188.779374 255.384076 
L 188.999578 255.364132 
L 192.449446 255.438038 
L 192.522847 255.243668 
L 192.66965 255.408358 
L 192.816453 255.342144 
L 192.889854 254.784825 
L 193.036657 255.441864 
L 196.339722 255.395205 
L 196.559926 255.303147 
L 196.633327 255.438055 
L 196.706729 255.303147 
L 196.78013 255.442949 
L 196.926933 255.304372 
L 197.147137 255.307681 
L 197.220539 255.423553 
L 197.367342 255.319873 
L 197.514145 255.30158 
L 197.660948 255.443769 
L 198.027955 255.410695 
L 198.101356 255.493961 
L 198.248159 255.415016 
L 198.394962 255.409702 
L 198.468363 255.541283 
L 198.688568 255.31551 
L 198.982173 255.301274 
L 199.128976 255.40698 
L 199.202378 255.435776 
L 199.349181 255.30495 
L 199.495983 255.395035 
L 199.716188 255.313349 
L 200.083195 255.412721 
L 200.156596 255.439285 
L 200.303399 255.310888 
L 200.450202 255.394388 
L 200.670406 255.302014 
L 201.110815 255.398593 
L 201.184216 255.500205 
L 201.257618 255.344515 
L 201.331019 255.406057 
L 201.404421 255.495985 
L 201.477822 255.414683 
L 202.799048 255.407594 
L 202.872449 255.487677 
L 203.019252 255.306972 
L 203.973471 255.422524 
L 204.046872 255.395514 
L 204.120274 255.525907 
L 204.193675 255.437933 
L 204.41388 255.404321 
L 206.102113 255.407164 
L 206.762725 255.30206 
L 206.836127 255.482244 
L 206.909528 255.414747 
L 206.98293 255.532377 
L 207.276535 255.314513 
L 207.49674 255.393596 
L 208.230754 255.440516 
L 208.377557 255.489557 
L 208.450958 255.527997 
L 208.52436 255.424802 
L 208.597761 255.538591 
L 208.671163 255.426622 
L 208.744564 255.502388 
L 208.891367 255.505801 
L 209.184973 255.515607 
L 210.06579 255.512536 
L 212.267833 255.465977 
L 212.341234 255.371992 
L 212.414636 255.489613 
L 212.488037 255.415722 
L 212.708242 255.490433 
L 212.855044 255.301924 
L 212.928446 255.394472 
L 213.442256 255.411901 
L 213.589059 255.372402 
L 213.66246 255.531967 
L 213.809263 255.305887 
L 213.956066 255.534541 
L 214.029467 255.424668 
L 214.323073 255.395189 
L 214.616679 255.487074 
L 214.836883 255.396457 
L 214.910285 255.326256 
L 215.130489 255.468486 
L 215.350693 255.402035 
L 216.598518 255.394797 
L 216.671919 255.313136 
L 216.745321 255.396366 
L 220.048385 255.417421 
L 220.121787 255.30525 
L 220.268589 255.485246 
L 220.488794 255.409553 
L 220.635597 255.425119 
L 220.708998 255.491433 
L 220.929202 255.308128 
L 222.764238 255.39358 
L 222.911041 255.416575 
L 223.057844 255.415836 
L 223.131245 255.343162 
L 223.204647 255.479803 
L 223.278048 255.43731 
L 223.424851 255.348995 
L 223.571654 255.342551 
L 223.718457 255.481834 
L 223.86526 255.442257 
L 224.012063 255.354326 
L 224.158865 255.36988 
L 224.305668 255.487477 
L 224.37907 255.345239 
L 224.452471 255.422521 
L 224.599274 255.310612 
L 224.89288 255.352986 
L 225.186486 255.348995 
L 225.259887 255.487152 
L 225.333288 255.342359 
L 225.40669 255.395602 
L 225.700296 255.362905 
L 226.581113 255.404667 
L 226.874719 255.432241 
L 227.388529 255.360329 
L 227.755536 255.387913 
L 227.97574 255.361239 
L 228.122543 255.501025 
L 228.342747 255.358071 
L 228.562952 255.388733 
L 228.636353 255.202364 
L 228.709754 255.4924 
L 228.783156 255.365874 
L 229.810776 255.359632 
L 230.104382 255.405643 
L 230.177783 255.377642 
L 230.251185 255.509551 
L 230.397987 255.409319 
L 232.60003 255.413251 
L 232.746833 255.367722 
L 235.903095 255.39922 
L 235.976496 255.302014 
L 236.123299 255.484724 
L 236.196701 255.483606 
L 236.270102 255.301493 
L 236.416905 255.49199 
L 236.563708 255.301303 
L 236.637109 255.487677 
L 236.710511 255.410138 
L 236.857314 255.346426 
L 237.591328 255.407683 
L 237.664729 255.53415 
L 237.738131 255.481496 
L 237.884934 255.363605 
L 237.958335 252.661359 
L 238.105138 255.406704 
L 238.178539 255.268037 
L 238.251941 255.362495 
L 238.398744 255.365801 
L 238.765751 255.307417 
L 238.839152 255.151301 
L 238.912554 255.357735 
L 238.985955 255.305429 
L 239.059357 255.35771 
L 239.132758 255.239159 
L 239.279561 255.435342 
L 239.499765 255.39551 
L 239.573167 255.530231 
L 239.71997 255.406481 
L 240.23378 255.417174 
L 240.307181 255.543322 
L 240.453984 255.325137 
L 240.674188 255.543359 
L 240.820991 255.394604 
L 241.114597 255.426014 
L 241.481604 255.320961 
L 241.555005 255.418449 
L 241.628407 255.352986 
L 241.848611 255.442684 
L 242.068815 255.534085 
L 242.582626 255.345239 
L 242.656027 255.49076 
L 242.729428 255.407601 
L 242.80283 255.489318 
L 242.876231 255.408011 
L 243.023034 255.410702 
L 243.096436 255.487677 
L 243.169837 255.344968 
L 243.243238 255.434157 
L 243.31664 255.40127 
L 243.390041 255.532146 
L 243.463443 255.345715 
L 243.536844 255.396963 
L 243.757048 255.351147 
L 243.977253 255.416184 
L 244.491063 255.353718 
L 244.637866 255.480006 
L 244.784669 255.335484 
L 244.85807 255.440634 
L 245.004873 255.354626 
L 245.078274 255.440617 
L 245.225077 255.20675 
L 245.298479 255.442684 
L 245.37188 255.394792 
L 245.445281 255.479393 
L 245.518683 255.414273 
L 245.88569 255.39614 
L 245.959092 255.314689 
L 246.032493 255.441454 
L 246.105894 255.343284 
L 246.179296 255.438055 
L 246.326099 255.301274 
L 246.619704 255.441044 
L 246.693106 255.305883 
L 246.766507 255.353506 
L 246.839909 255.301407 
L 246.986712 255.489816 
L 247.206916 255.411112 
L 247.867529 255.479856 
L 247.94093 255.351456 
L 248.014332 255.394528 
L 248.087733 255.404961 
L 248.161135 255.534269 
L 248.307937 255.441864 
L 248.528142 255.343073 
L 248.601543 255.420263 
L 248.674945 255.342988 
L 248.748346 255.308849 
L 248.821747 255.443094 
L 248.895149 255.309769 
L 248.96855 255.417824 
L 249.041952 255.348585 
L 249.115353 255.344784 
L 249.188755 255.481496 
L 249.262156 255.425119 
L 249.335558 255.431836 
L 249.408959 255.30328 
L 249.48236 255.420648 
L 249.629163 255.313956 
L 249.849368 255.435882 
L 250.142973 255.405873 
L 250.363178 255.426014 
L 250.730185 255.411178 
L 251.170593 255.321823 
L 251.243995 255.303511 
L 251.390798 255.402783 
L 251.464199 255.304025 
L 251.537601 255.398056 
L 251.611002 255.311161 
L 251.684403 255.438055 
L 251.757805 255.355075 
L 251.978009 255.53201 
L 252.051411 255.315672 
L 252.124812 255.437416 
L 252.198213 255.310751 
L 252.418418 255.492574 
L 252.638622 255.430295 
L 253.005629 255.395591 
L 253.519439 255.49766 
L 253.739644 255.309185 
L 253.813045 255.414605 
L 253.959848 255.301303 
L 254.400257 255.354736 
L 255.134271 255.322191 
L 255.207672 255.409882 
L 255.281074 255.34716 
L 255.501278 255.480006 
L 255.648081 255.395409 
L 255.941687 255.396764 
L 256.6023 255.343825 
L 256.675701 255.534085 
L 256.822504 255.313207 
L 257.042708 255.499585 
L 257.483117 255.39897 
L 257.556518 255.302934 
L 257.776723 255.43594 
L 257.923525 255.302014 
L 257.996927 255.496686 
L 258.070328 255.413687 
L 258.14373 255.30136 
L 258.217131 255.394603 
L 258.290533 255.3151 
L 258.437335 255.341136 
L 258.584138 255.420282 
L 258.65754 255.442539 
L 258.730941 255.30525 
L 258.804343 255.543 
L 258.951145 255.394907 
L 259.464956 255.411491 
L 259.538357 255.335894 
L 259.611758 255.430909 
L 259.758561 255.327076 
L 259.978766 255.312229 
L 260.052167 255.488828 
L 260.125568 255.394961 
L 263.208429 255.394092 
L 263.428633 255.329568 
L 263.502034 255.302375 
L 263.648837 255.393682 
L 263.79564 255.304659 
L 264.089246 255.301924 
L 264.162647 255.481496 
L 264.30945 255.305559 
L 264.603056 255.301493 
L 264.676457 255.215647 
L 264.896662 255.481834 
L 265.043465 255.302548 
L 265.190267 255.310068 
L 265.33707 255.438858 
L 265.483873 255.313349 
L 265.557275 255.312229 
L 265.630676 255.494629 
L 265.777479 255.342698 
L 265.924282 255.419487 
L 266.658296 255.313207 
L 266.731698 255.411522 
L 266.8785 255.314418 
L 267.025303 255.409118 
L 267.098705 255.303147 
L 267.245508 255.442949 
L 267.318909 255.301277 
L 267.39231 255.344104 
L 267.465712 255.478776 
L 267.612515 255.319411 
L 267.759318 255.488907 
L 267.979522 255.393902 
L 268.493332 255.442257 
L 268.640135 255.348932 
L 269.007142 255.410713 
L 269.153945 255.532629 
L 269.300748 255.426717 
L 269.667755 255.400938 
L 269.741156 255.49807 
L 269.887959 255.39973 
L 270.695375 255.417396 
L 270.768776 255.309358 
L 270.842178 255.395536 
L 270.988981 255.350226 
L 271.209185 255.492811 
L 271.355988 255.34716 
L 271.502791 255.439728 
L 271.649594 255.419384 
L 271.796397 255.442274 
L 271.943199 255.479393 
L 272.090002 255.393662 
L 272.603812 255.532867 
L 272.677214 255.396928 
L 272.750615 255.484836 
L 272.824017 255.396287 
L 272.970819 255.535365 
L 273.117622 255.396958 
L 273.778235 255.397038 
L 273.925038 255.420458 
L 274.365447 255.395848 
L 274.438848 255.483196 
L 274.51225 255.312229 
L 274.585651 255.402879 
L 276.420687 255.483546 
L 276.494088 255.397652 
L 276.56749 255.484367 
L 276.640891 255.40647 
L 277.228103 255.396266 
L 277.301504 255.519477 
L 277.521708 255.398131 
L 278.329124 255.397473 
L 278.402526 255.498989 
L 278.475927 255.401192 
L 278.62273 255.45774 
L 278.769533 255.445729 
L 278.989737 255.319053 
L 279.13654 255.412608 
L 279.723751 255.343201 
L 279.797153 255.481086 
L 279.870554 255.407012 
L 280.017357 255.394795 
L 280.090759 255.315648 
L 280.237562 255.482726 
L 280.384364 255.403265 
L 280.604569 255.394811 
L 282.953415 255.424355 
L 283.24702 255.433022 
L 283.393823 255.490843 
L 283.540626 255.39553 
L 283.907633 255.426014 
L 283.981035 255.302014 
L 284.054436 255.478163 
L 284.127838 255.30206 
L 284.27464 255.402879 
L 284.641648 255.521077 
L 284.78845 255.461455 
L 284.861852 255.409851 
L 284.935253 255.518623 
L 285.082056 255.40646 
L 285.742669 255.481834 
L 285.889472 255.411408 
L 286.329881 255.397528 
L 286.476683 255.479393 
L 286.696888 255.399066 
L 286.843691 255.485856 
L 287.063895 255.407256 
L 290.807368 255.390784 
L 290.88077 247.998596 
L 291.027572 255.511274 
L 291.174375 255.414588 
L 291.321178 255.405103 
L 292.275397 255.421772 
L 292.569003 255.402381 
L 292.715805 255.432671 
L 293.156214 255.347439 
L 293.229615 255.522031 
L 293.376418 255.423553 
L 293.523221 255.43512 
L 293.596623 255.495185 
L 293.670024 255.410582 
L 293.743425 255.482507 
L 293.816827 255.483196 
L 293.890228 255.301851 
L 294.037031 255.402767 
L 294.404038 255.411905 
L 295.725264 255.401153 
L 295.798666 255.305382 
L 295.945469 255.431795 
L 296.01887 255.303264 
L 296.092271 255.437006 
L 296.165673 255.302498 
L 296.239074 255.344015 
L 296.459279 255.314828 
L 296.606081 255.41966 
L 296.826286 255.395607 
L 296.899687 255.477282 
L 296.973089 255.404294 
L 298.07411 255.302953 
L 298.220913 255.496622 
L 298.441117 255.395321 
L 298.514519 255.49807 
L 298.661322 255.420217 
L 299.395336 255.395519 
L 299.688942 255.404107 
L 299.835745 255.517969 
L 299.909146 255.398159 
L 300.055949 255.515636 
L 300.202752 255.416843 
L 301.377175 255.412664 
L 301.523978 255.481081 
L 301.744182 255.512103 
L 301.890985 255.411522 
L 301.964386 255.489557 
L 302.037788 255.411112 
L 302.331393 255.401582 
L 302.404795 255.511585 
L 302.478196 255.438763 
L 302.771802 255.452505 
L 302.992006 255.402091 
L 303.212211 255.404851 
L 303.726021 255.398291 
L 303.799422 255.485246 
L 303.872823 255.400413 
L 304.533436 255.434873 
L 304.753641 255.51659 
L 309.891741 255.408401 
L 310.038544 255.485544 
L 310.33215 255.328748 
L 310.405551 255.499492 
L 310.478953 255.411024 
L 310.552354 255.499492 
L 310.699157 255.465393 
L 311.066164 255.488631 
L 311.35977 255.403889 
L 311.506573 255.506879 
L 312.020383 255.454201 
L 312.240587 255.49117 
L 312.460791 255.424571 
L 313.048003 255.497463 
L 313.194806 255.415342 
L 313.561813 255.396021 
L 313.635214 255.494022 
L 313.782017 255.404031 
L 313.92882 255.396456 
L 314.883039 255.349405 
L 314.95644 255.499175 
L 315.029842 255.44901 
L 315.176644 255.407974 
L 315.250046 255.493961 
L 315.323447 255.414588 
L 315.543652 255.412311 
L 315.617053 255.326666 
L 315.690454 255.499175 
L 315.763856 255.40452 
L 315.837257 255.480623 
L 315.910659 255.401564 
L 322.810394 255.412304 
L 323.030598 248.728693 
L 323.177401 254.459483 
L 323.250802 254.137623 
L 323.324204 252.960673 
L 323.397605 255.493202 
L 323.471007 255.489512 
L 323.838014 255.407012 
L 324.939035 255.40127 
L 325.012437 255.482917 
L 325.085838 255.408004 
L 325.746451 255.408305 
L 325.819852 255.315591 
L 325.893254 255.500205 
L 325.966655 255.40922 
L 328.2421 255.397445 
L 328.388903 255.481906 
L 328.609107 255.459266 
L 328.976114 255.395991 
L 329.343121 255.496592 
L 329.710128 255.49418 
L 329.930333 255.463754 
L 330.077136 255.433081 
L 334.92163 255.379229 
L 334.995032 255.518716 
L 335.068433 255.419845 
L 337.050272 255.384347 
L 337.123673 197.688393 
L 337.270476 246.838656 
L 337.343878 248.552146 
L 337.417279 254.455465 
L 337.490681 218.960088 
L 337.637483 251.610024 
L 337.710885 253.585673 
L 337.784286 210.669644 
L 337.857688 251.508679 
L 337.931089 225.539787 
L 338.004491 255.472265 
L 338.077892 255.396602 
L 341.234154 255.39758 
L 342.188372 255.405829 
L 342.335175 255.488161 
L 342.481978 255.406371 
L 344.317014 255.481086 
L 344.390415 255.344015 
L 344.463817 255.399054 
L 344.684021 255.487751 
L 344.830824 255.446744 
L 347.326473 255.41622 
L 347.473276 255.445273 
L 349.161509 255.477304 
L 349.23491 255.501269 
L 349.381713 255.395059 
L 350.335932 255.44566 
L 350.409333 255.34236 
L 350.556136 255.485075 
L 350.849742 255.478031 
L 351.069946 255.450891 
L 351.216749 255.444715 
L 351.436953 255.482732 
L 351.80396 255.344925 
L 352.097566 255.425603 
L 352.170967 255.347803 
L 352.391172 255.492811 
L 352.464573 255.409423 
L 352.611376 255.45259 
L 353.051785 255.480006 
L 353.198588 255.34932 
L 353.492193 255.343801 
L 353.565595 255.485134 
L 353.712398 255.36783 
L 353.8592 255.395692 
L 354.006003 255.479803 
L 354.079405 255.327351 
L 354.152806 255.51407 
L 354.226208 255.40127 
L 355.694236 255.397572 
L 355.767638 255.358017 
L 355.841039 255.483474 
L 355.914441 255.352276 
L 355.987842 255.485844 
L 356.061243 255.397881 
L 356.501652 255.485544 
L 356.868659 255.441864 
L 357.088864 255.318826 
L 357.676075 255.49931 
L 357.822878 255.415503 
L 357.969681 255.490843 
L 358.263287 255.403731 
L 358.630294 255.441044 
L 358.777097 255.463051 
L 358.923899 255.342227 
L 359.144104 255.482917 
L 359.217505 255.394153 
L 359.364308 255.477649 
L 359.731315 255.502034 
L 364.942817 255.421857 
L 365.016219 255.527928 
L 365.08962 255.407895 
L 365.163021 255.482917 
L 365.383226 255.397579 
L 366.043839 255.423963 
L 366.11724 255.30536 
L 366.190641 255.397373 
L 366.337444 255.304659 
L 366.484247 255.407256 
L 366.557649 255.30158 
L 366.63105 255.479393 
L 366.777853 255.303363 
L 366.924656 255.526624 
L 367.218262 255.472563 
L 367.438466 255.514033 
L 367.585269 255.404321 
L 368.833093 255.400805 
L 368.979896 255.514244 
L 369.2001 255.507482 
L 369.346903 255.41843 
L 369.493706 255.442231 
L 370.447925 255.41884 
L 370.594728 132.264491 
L 370.74153 255.46298 
L 372.649968 255.394798 
L 372.723369 255.306898 
L 372.796771 255.437087 
L 372.870172 255.301421 
L 372.943573 255.394603 
L 373.090376 255.435447 
L 373.163778 255.30206 
L 373.383982 255.442129 
L 373.604186 255.439796 
L 373.750989 255.486041 
L 373.897792 255.402659 
L 374.044595 255.416924 
L 374.925412 255.399784 
L 378.008272 255.43512 
L 378.155075 255.394312 
L 378.301878 255.423479 
L 378.595484 255.409078 
L 379.035893 255.394528 
L 379.182695 255.506364 
L 380.063513 255.406468 
L 383.219774 255.434053 
L 383.660183 255.31715 
L 383.880387 255.346227 
L 384.02719 255.344557 
L 384.320796 255.536979 
L 385.788825 255.411812 
L 385.935627 255.417824 
L 386.302635 255.407302 
L 386.522839 255.498841 
L 386.743043 255.400483 
L 386.889846 255.495185 
L 387.11005 255.423696 
L 387.183452 255.515868 
L 387.256853 255.438867 
L 388.871685 255.411874 
L 389.018488 255.411715 
L 390.853524 255.367546 
L 390.926925 255.507509 
L 391.000326 255.361677 
L 391.073728 188.539191 
L 391.220531 255.407139 
L 391.440735 236.825023 
L 391.587538 250.656626 
L 391.734341 239.686397 
L 391.807742 209.145139 
L 391.881144 235.995441 
L 392.027946 182.477476 
L 392.174749 240.557892 
L 392.248151 235.737173 
L 392.321552 242.987415 
L 392.394954 240.845941 
L 392.468355 229.549689 
L 392.541757 247.061258 
L 392.615158 239.267321 
L 392.688559 248.391093 
L 392.835362 212.316913 
L 392.982165 255.406429 
L 393.055567 255.401764 
L 393.202369 231.577664 
L 393.275771 243.192908 
L 393.349172 216.576557 
L 393.422574 248.04147 
L 393.495975 237.112104 
L 393.569377 255.373823 
L 393.642778 232.396192 
L 393.716179 241.107786 
L 393.789581 227.100088 
L 393.862982 228.078134 
L 393.936384 244.77284 
L 394.083187 210.509123 
L 394.156588 217.588754 
L 394.22999 212.612824 
L 394.450194 251.806619 
L 394.523595 242.349184 
L 394.596997 244.094699 
L 394.7438 240.297661 
L 394.890602 185.143072 
L 394.964004 243.169685 
L 395.037405 242.77842 
L 395.110807 191.827391 
L 395.184208 247.880545 
L 395.25761 226.236166 
L 395.404412 252.878907 
L 395.477814 206.91206 
L 395.551215 235.600581 
L 395.624617 234.393903 
L 395.698018 247.145437 
L 395.77142 223.890753 
L 395.844821 240.432979 
L 395.918223 216.5249 
L 395.991624 220.662146 
L 396.065025 248.439528 
L 396.211828 166.685141 
L 396.28523 242.304259 
L 396.358631 224.992753 
L 396.505434 241.940013 
L 396.578835 194.566203 
L 396.725638 234.626775 
L 396.79904 226.435397 
L 396.872441 244.459605 
L 396.945843 238.832079 
L 397.019244 217.794384 
L 397.092645 247.25034 
L 397.166047 244.930092 
L 397.239448 213.437341 
L 397.31285 239.720059 
L 397.459653 211.306504 
L 397.533054 211.524021 
L 397.606456 221.104843 
L 397.679857 157.073057 
L 397.753258 222.617885 
L 397.82666 217.85295 
L 397.900061 211.406501 
L 397.973463 212.570281 
L 398.046864 225.354003 
L 398.120266 211.135251 
L 398.193667 244.373755 
L 398.413871 203.313974 
L 398.487273 53.568 
L 398.487273 53.568 
" clip-path="url(#p81845ad428)" style="fill: none; stroke: #ff0000; stroke-width: 1.5; stroke-linecap: square"/>
   </g>
   <g id="patch_3">
    <path d="M 57.6 307.584 
L 57.6 41.472 
" style="fill: none; stroke: #000000; stroke-width: 0.8; stroke-linejoin: miter; stroke-linecap: square"/>
   </g>
   <g id="patch_4">
    <path d="M 414.72 307.584 
L 414.72 41.472 
" style="fill: none; stroke: #000000; stroke-width: 0.8; stroke-linejoin: miter; stroke-linecap: square"/>
   </g>
   <g id="patch_5">
    <path d="M 57.6 307.584 
L 414.72 307.584 
" style="fill: none; stroke: #000000; stroke-width: 0.8; stroke-linejoin: miter; stroke-linecap: square"/>
   </g>
   <g id="patch_6">
    <path d="M 57.6 41.472 
L 414.72 41.472 
" style="fill: none; stroke: #000000; stroke-width: 0.8; stroke-linejoin: miter; stroke-linecap: square"/>
   </g>
   <g id="text_16">
    <!-- Population's average and best fitness -->
    <g transform="translate(123.529687 35.472)scale(0.12 -0.12)">
     <defs>
      <path id="DejaVuSans-50" d="M 1259 4147 
L 1259 2394 
L 2053 2394 
Q 2494 2394 2734 2622 
Q 2975 2850 2975 3272 
Q 2975 3691 2734 3919 
Q 2494 4147 2053 4147 
L 1259 4147 
z
M 628 4666 
L 2053 4666 
Q 2838 4666 3239 4311 
Q 3641 3956 3641 3272 
Q 3641 2581 3239 2228 
Q 2838 1875 2053 1875 
L 1259 1875 
L 1259 0 
L 628 0 
L 628 4666 
z
" transform="scale(0.015625)"/>
      <path id="DejaVuSans-70" d="M 1159 525 
L 1159 -1331 
L 581 -1331 
L 581 3500 
L 1159 3500 
L 1159 2969 
Q 1341 3281 1617 3432 
Q 1894 3584 2278 3584 
Q 2916 3584 3314 3078 
Q 3713 2572 3713 1747 
Q 3713 922 3314 415 
Q 2916 -91 2278 -91 
Q 1894 -91 1617 61 
Q 1341 213 1159 525 
z
M 3116 1747 
Q 3116 2381 2855 2742 
Q 2594 3103 2138 3103 
Q 1681 3103 1420 2742 
Q 1159 2381 1159 1747 
Q 1159 1113 1420 752 
Q 1681 391 2138 391 
Q 2594 391 2855 752 
Q 3116 1113 3116 1747 
z
" transform="scale(0.015625)"/>
      <path id="DejaVuSans-75" d="M 544 1381 
L 544 3500 
L 1119 3500 
L 1119 1403 
Q 1119 906 1312 657 
Q 1506 409 1894 409 
Q 2359 409 2629 706 
Q 2900 1003 2900 1516 
L 2900 3500 
L 3475 3500 
L 3475 0 
L 2900 0 
L 2900 538 
Q 2691 219 2414 64 
Q 2138 -91 1772 -91 
Q 1169 -91 856 284 
Q 544 659 544 1381 
z
M 1991 3584 
L 1991 3584 
z
" transform="scale(0.015625)"/>
      <path id="DejaVuSans-6c" d="M 603 4863 
L 1178 4863 
L 1178 0 
L 603 0 
L 603 4863 
z
" transform="scale(0.015625)"/>
      <path id="DejaVuSans-27" d="M 1147 4666 
L 1147 2931 
L 616 2931 
L 616 4666 
L 1147 4666 
z
" transform="scale(0.015625)"/>
      <path id="DejaVuSans-20" transform="scale(0.015625)"/>
      <path id="DejaVuSans-76" d="M 191 3500 
L 800 3500 
L 1894 563 
L 2988 3500 
L 3597 3500 
L 2284 0 
L 1503 0 
L 191 3500 
z
" transform="scale(0.015625)"/>
      <path id="DejaVuSans-67" d="M 2906 1791 
Q 2906 2416 2648 2759 
Q 2391 3103 1925 3103 
Q 1463 3103 1205 2759 
Q 947 2416 947 1791 
Q 947 1169 1205 825 
Q 1463 481 1925 481 
Q 2391 481 2648 825 
Q 2906 1169 2906 1791 
z
M 3481 434 
Q 3481 -459 3084 -895 
Q 2688 -1331 1869 -1331 
Q 1566 -1331 1297 -1286 
Q 1028 -1241 775 -1147 
L 775 -588 
Q 1028 -725 1275 -790 
Q 1522 -856 1778 -856 
Q 2344 -856 2625 -561 
Q 2906 -266 2906 331 
L 2906 616 
Q 2728 306 2450 153 
Q 2172 0 1784 0 
Q 1141 0 747 490 
Q 353 981 353 1791 
Q 353 2603 747 3093 
Q 1141 3584 1784 3584 
Q 2172 3584 2450 3431 
Q 2728 3278 2906 2969 
L 2906 3500 
L 3481 3500 
L 3481 434 
z
" transform="scale(0.015625)"/>
      <path id="DejaVuSans-64" d="M 2906 2969 
L 2906 4863 
L 3481 4863 
L 3481 0 
L 2906 0 
L 2906 525 
Q 2725 213 2448 61 
Q 2172 -91 1784 -91 
Q 1150 -91 751 415 
Q 353 922 353 1747 
Q 353 2572 751 3078 
Q 1150 3584 1784 3584 
Q 2172 3584 2448 3432 
Q 2725 3281 2906 2969 
z
M 947 1747 
Q 947 1113 1208 752 
Q 1469 391 1925 391 
Q 2381 391 2643 752 
Q 2906 1113 2906 1747 
Q 2906 2381 2643 2742 
Q 2381 3103 1925 3103 
Q 1469 3103 1208 2742 
Q 947 2381 947 1747 
z
" transform="scale(0.015625)"/>
      <path id="DejaVuSans-62" d="M 3116 1747 
Q 3116 2381 2855 2742 
Q 2594 3103 2138 3103 
Q 1681 3103 1420 2742 
Q 1159 2381 1159 1747 
Q 1159 1113 1420 752 
Q 1681 391 2138 391 
Q 2594 391 2855 752 
Q 3116 1113 3116 1747 
z
M 1159 2969 
Q 1341 3281 1617 3432 
Q 1894 3584 2278 3584 
Q 2916 3584 3314 3078 
Q 3713 2572 3713 1747 
Q 3713 922 3314 415 
Q 2916 -91 2278 -91 
Q 1894 -91 1617 61 
Q 1341 213 1159 525 
L 1159 0 
L 581 0 
L 581 4863 
L 1159 4863 
L 1159 2969 
z
" transform="scale(0.015625)"/>
      <path id="DejaVuSans-66" d="M 2375 4863 
L 2375 4384 
L 1825 4384 
Q 1516 4384 1395 4259 
Q 1275 4134 1275 3809 
L 1275 3500 
L 2222 3500 
L 2222 3053 
L 1275 3053 
L 1275 0 
L 697 0 
L 697 3053 
L 147 3053 
L 147 3500 
L 697 3500 
L 697 3744 
Q 697 4328 969 4595 
Q 1241 4863 1831 4863 
L 2375 4863 
z
" transform="scale(0.015625)"/>
     </defs>
     <use xlink:href="#DejaVuSans-50"/>
     <use xlink:href="#DejaVuSans-6f" x="56.677734"/>
     <use xlink:href="#DejaVuSans-70" x="117.859375"/>
     <use xlink:href="#DejaVuSans-75" x="181.335938"/>
     <use xlink:href="#DejaVuSans-6c" x="244.714844"/>
     <use xlink:href="#DejaVuSans-61" x="272.498047"/>
     <use xlink:href="#DejaVuSans-74" x="333.777344"/>
     <use xlink:href="#DejaVuSans-69" x="372.986328"/>
     <use xlink:href="#DejaVuSans-6f" x="400.769531"/>
     <use xlink:href="#DejaVuSans-6e" x="461.951172"/>
     <use xlink:href="#DejaVuSans-27" x="525.330078"/>
     <use xlink:href="#DejaVuSans-73" x="552.820312"/>
     <use xlink:href="#DejaVuSans-20" x="604.919922"/>
     <use xlink:href="#DejaVuSans-61" x="636.707031"/>
     <use xlink:href="#DejaVuSans-76" x="697.986328"/>
     <use xlink:href="#DejaVuSans-65" x="757.166016"/>
     <use xlink:href="#DejaVuSans-72" x="818.689453"/>
     <use xlink:href="#DejaVuSans-61" x="859.802734"/>
     <use xlink:href="#DejaVuSans-67" x="921.082031"/>
     <use xlink:href="#DejaVuSans-65" x="984.558594"/>
     <use xlink:href="#DejaVuSans-20" x="1046.082031"/>
     <use xlink:href="#DejaVuSans-61" x="1077.869141"/>
     <use xlink:href="#DejaVuSans-6e" x="1139.148438"/>
     <use xlink:href="#DejaVuSans-64" x="1202.527344"/>
     <use xlink:href="#DejaVuSans-20" x="1266.003906"/>
     <use xlink:href="#DejaVuSans-62" x="1297.791016"/>
     <use xlink:href="#DejaVuSans-65" x="1361.267578"/>
     <use xlink:href="#DejaVuSans-73" x="1422.791016"/>
     <use xlink:href="#DejaVuSans-74" x="1474.890625"/>
     <use xlink:href="#DejaVuSans-20" x="1514.099609"/>
     <use xlink:href="#DejaVuSans-66" x="1545.886719"/>
     <use xlink:href="#DejaVuSans-69" x="1581.091797"/>
     <use xlink:href="#DejaVuSans-74" x="1608.875"/>
     <use xlink:href="#DejaVuSans-6e" x="1648.083984"/>
     <use xlink:href="#DejaVuSans-65" x="1711.462891"/>
     <use xlink:href="#DejaVuSans-73" x="1772.986328"/>
     <use xlink:href="#DejaVuSans-73" x="1825.085938"/>
    </g>
   </g>
   <g id="legend_1">
    <g id="patch_7">
     <path d="M 64.6 108.1845 
L 137.540625 108.1845 
Q 139.540625 108.1845 139.540625 106.1845 
L 139.540625 48.472 
Q 139.540625 46.472 137.540625 46.472 
L 64.6 46.472 
Q 62.6 46.472 62.6 48.472 
L 62.6 106.1845 
Q 62.6 108.1845 64.6 108.1845 
z
" style="fill: #ffffff; opacity: 0.8; stroke: #cccccc; stroke-linejoin: miter"/>
    </g>
    <g id="line2d_29">
     <path d="M 66.6 54.570438 
L 76.6 54.570438 
L 86.6 54.570438 
" style="fill: none; stroke: #0000ff; stroke-width: 1.5; stroke-linecap: square"/>
    </g>
    <g id="text_17">
     <!-- average -->
     <g transform="translate(94.6 58.070438)scale(0.1 -0.1)">
      <use xlink:href="#DejaVuSans-61"/>
      <use xlink:href="#DejaVuSans-76" x="61.279297"/>
      <use xlink:href="#DejaVuSans-65" x="120.458984"/>
      <use xlink:href="#DejaVuSans-72" x="181.982422"/>
      <use xlink:href="#DejaVuSans-61" x="223.095703"/>
      <use xlink:href="#DejaVuSans-67" x="284.375"/>
      <use xlink:href="#DejaVuSans-65" x="347.851562"/>
     </g>
    </g>
    <g id="line2d_30">
     <path d="M 66.6 69.248563 
L 76.6 69.248563 
L 86.6 69.248563 
" style="fill: none; stroke-dasharray: 9.6,2.4,1.5,2.4; stroke-dashoffset: 0; stroke: #008000; stroke-width: 1.5"/>
    </g>
    <g id="text_18">
     <!-- -1 sd -->
     <g transform="translate(94.6 72.748563)scale(0.1 -0.1)">
      <defs>
       <path id="DejaVuSans-2d" d="M 313 2009 
L 1997 2009 
L 1997 1497 
L 313 1497 
L 313 2009 
z
" transform="scale(0.015625)"/>
      </defs>
      <use xlink:href="#DejaVuSans-2d"/>
      <use xlink:href="#DejaVuSans-31" x="36.083984"/>
      <use xlink:href="#DejaVuSans-20" x="99.707031"/>
      <use xlink:href="#DejaVuSans-73" x="131.494141"/>
      <use xlink:href="#DejaVuSans-64" x="183.59375"/>
     </g>
    </g>
    <g id="line2d_31">
     <path d="M 66.6 83.926688 
L 76.6 83.926688 
L 86.6 83.926688 
" style="fill: none; stroke-dasharray: 9.6,2.4,1.5,2.4; stroke-dashoffset: 0; stroke: #008000; stroke-width: 1.5"/>
    </g>
    <g id="text_19">
     <!-- +1 sd -->
     <g transform="translate(94.6 87.426688)scale(0.1 -0.1)">
      <defs>
       <path id="DejaVuSans-2b" d="M 2944 4013 
L 2944 2272 
L 4684 2272 
L 4684 1741 
L 2944 1741 
L 2944 0 
L 2419 0 
L 2419 1741 
L 678 1741 
L 678 2272 
L 2419 2272 
L 2419 4013 
L 2944 4013 
z
" transform="scale(0.015625)"/>
      </defs>
      <use xlink:href="#DejaVuSans-2b"/>
      <use xlink:href="#DejaVuSans-31" x="83.789062"/>
      <use xlink:href="#DejaVuSans-20" x="147.412109"/>
      <use xlink:href="#DejaVuSans-73" x="179.199219"/>
      <use xlink:href="#DejaVuSans-64" x="231.298828"/>
     </g>
    </g>
    <g id="line2d_32">
     <path d="M 66.6 98.604813 
L 76.6 98.604813 
L 86.6 98.604813 
" style="fill: none; stroke: #ff0000; stroke-width: 1.5; stroke-linecap: square"/>
    </g>
    <g id="text_20">
     <!-- best -->
     <g transform="translate(94.6 102.104813)scale(0.1 -0.1)">
      <use xlink:href="#DejaVuSans-62"/>
      <use xlink:href="#DejaVuSans-65" x="63.476562"/>
      <use xlink:href="#DejaVuSans-73" x="125"/>
      <use xlink:href="#DejaVuSans-74" x="177.099609"/>
     </g>
    </g>
   </g>
  </g>
 </g>
 <defs>
  <clipPath id="p81845ad428">
   <rect x="57.6" y="41.472" width="357.12" height="266.112"/>
  </clipPath>
 </defs>
</svg>
