<?xml version="1.0" encoding="UTF-8" standalone="no"?>
<!DOCTYPE svg PUBLIC "-//W3C//DTD SVG 1.1//EN"
 "http://www.w3.org/Graphics/SVG/1.1/DTD/svg11.dtd">
<!-- Generated by graphviz version 2.50.0 (20211204.2007)
 -->
<!-- Pages: 1 -->
<svg width="306pt" height="216pt"
 viewBox="0.00 0.00 306.21 215.76" xmlns="http://www.w3.org/2000/svg" xmlns:xlink="http://www.w3.org/1999/xlink">
<g id="graph0" class="graph" transform="scale(1 1) rotate(0) translate(4 211.76)">
<polygon fill="white" stroke="transparent" points="-4,4 -4,-211.76 302.21,-211.76 302.21,4 -4,4"/>
<!-- Bird -->
<g id="node1" class="node">
<title>Bird</title>
<polygon fill="lightgray" stroke="black" points="32,-195.55 0,-195.55 0,-177.55 32,-177.55 32,-195.55"/>
<text text-anchor="middle" x="16" y="-184.35" font-family="Times,serif" font-size="9.00">Bird</text>
</g>
<!-- 11 -->
<g id="node8" class="node">
<title>11</title>
<ellipse fill="white" stroke="black" cx="74" cy="-108.12" rx="18.27" ry="18.27"/>
<text text-anchor="middle" x="74" y="-105.92" font-family="Times,serif" font-size="9.00">11</text>
</g>
<!-- Bird&#45;&gt;11 -->
<g id="edge1" class="edge">
<title>Bird&#45;&gt;11</title>
<path fill="none" stroke="red" stroke-width="0.65" d="M22.21,-177.37C30.49,-166.46 45.48,-146.7 57.21,-131.25"/>
<polygon fill="red" stroke="red" stroke-width="0.65" points="60.07,-133.27 63.33,-123.19 54.49,-129.04 60.07,-133.27"/>
</g>
<!-- Top Pipe -->
<g id="node2" class="node">
<title>Top Pipe</title>
<polygon fill="lightgray" stroke="black" points="98,-195.55 50,-195.55 50,-177.55 98,-177.55 98,-195.55"/>
<text text-anchor="middle" x="74" y="-184.35" font-family="Times,serif" font-size="9.00">Top Pipe</text>
</g>
<!-- Top Pipe&#45;&gt;11 -->
<g id="edge4" class="edge">
<title>Top Pipe&#45;&gt;11</title>
<path fill="none" stroke="red" stroke-width="0.27" d="M74,-177.37C74,-167.8 74,-151.43 74,-137.12"/>
<polygon fill="red" stroke="red" stroke-width="0.27" points="77.5,-136.73 74,-126.73 70.5,-136.73 77.5,-136.73"/>
</g>
<!-- Bottom Pipe -->
<g id="node3" class="node">
<title>Bottom Pipe</title>
<polygon fill="lightgray" stroke="black" points="177.5,-195.55 116.5,-195.55 116.5,-177.55 177.5,-177.55 177.5,-195.55"/>
<text text-anchor="middle" x="147" y="-184.35" font-family="Times,serif" font-size="9.00">Bottom Pipe</text>
</g>
<!-- Bottom Pipe&#45;&gt;11 -->
<g id="edge2" class="edge">
<title>Bottom Pipe&#45;&gt;11</title>
<path fill="none" stroke="green" stroke-width="0.63" d="M139.19,-177.37C128.41,-166.09 108.63,-145.38 93.67,-129.72"/>
<polygon fill="green" stroke="green" stroke-width="0.63" points="95.8,-126.88 86.36,-122.07 90.74,-131.72 95.8,-126.88"/>
</g>
<!-- Jump -->
<g id="node4" class="node">
<title>Jump</title>
<ellipse fill="lightblue" stroke="black" cx="74" cy="-25.46" rx="25.41" ry="25.41"/>
<text text-anchor="middle" x="74" y="-23.26" font-family="Times,serif" font-size="9.00">Jump</text>
</g>
<!-- 262 -->
<g id="node5" class="node">
<title>262</title>
<ellipse fill="white" stroke="black" cx="217" cy="-186.55" rx="21.43" ry="21.43"/>
<text text-anchor="middle" x="217" y="-184.35" font-family="Times,serif" font-size="9.00">262</text>
</g>
<!-- 106 -->
<g id="node7" class="node">
<title>106</title>
<ellipse fill="white" stroke="black" cx="187" cy="-108.12" rx="21.43" ry="21.43"/>
<text text-anchor="middle" x="187" y="-105.92" font-family="Times,serif" font-size="9.00">106</text>
</g>
<!-- 262&#45;&gt;106 -->
<g id="edge5" class="edge">
<title>262&#45;&gt;106</title>
<path fill="none" stroke="red" stroke-width="0.34" stroke-dasharray="1,5" d="M209.58,-166.66C206.12,-157.84 201.93,-147.16 198.1,-137.41"/>
<polygon fill="red" stroke="red" stroke-width="0.34" points="201.35,-136.09 194.43,-128.06 194.83,-138.65 201.35,-136.09"/>
</g>
<!-- 268 -->
<g id="node9" class="node">
<title>268</title>
<ellipse fill="white" stroke="black" cx="247" cy="-108.12" rx="21.43" ry="21.43"/>
<text text-anchor="middle" x="247" y="-105.92" font-family="Times,serif" font-size="9.00">268</text>
</g>
<!-- 262&#45;&gt;268 -->
<g id="edge6" class="edge">
<title>262&#45;&gt;268</title>
<path fill="none" stroke="green" stroke-width="0.41" d="M224.42,-166.66C227.88,-157.84 232.07,-147.16 235.9,-137.41"/>
<polygon fill="green" stroke="green" stroke-width="0.41" points="239.17,-138.65 239.57,-128.06 232.65,-136.09 239.17,-138.65"/>
</g>
<!-- 233 -->
<g id="node6" class="node">
<title>233</title>
<ellipse fill="white" stroke="black" cx="277" cy="-186.55" rx="21.43" ry="21.43"/>
<text text-anchor="middle" x="277" y="-184.35" font-family="Times,serif" font-size="9.00">233</text>
</g>
<!-- 11&#45;&gt;Jump -->
<g id="edge3" class="edge">
<title>11&#45;&gt;Jump</title>
<path fill="none" stroke="red" stroke-width="0.43" d="M74,-89.62C74,-81.23 74,-70.87 74,-60.99"/>
<polygon fill="red" stroke="red" stroke-width="0.43" points="77.5,-60.96 74,-50.96 70.5,-60.96 77.5,-60.96"/>
</g>
</g>
</svg>
