<?xml version="1.0" encoding="UTF-8" standalone="no"?>
<!DOCTYPE svg PUBLIC "-//W3C//DTD SVG 1.1//EN"
 "http://www.w3.org/Graphics/SVG/1.1/DTD/svg11.dtd">
<!-- Generated by graphviz version 2.50.0 (20211204.2007)
 -->
<!-- Pages: 1 -->
<svg width="186pt" height="179pt"
 viewBox="0.00 0.00 185.50 178.61" xmlns="http://www.w3.org/2000/svg" xmlns:xlink="http://www.w3.org/1999/xlink">
<g id="graph0" class="graph" transform="scale(1 1) rotate(0) translate(4 174.61)">
<polygon fill="white" stroke="transparent" points="-4,4 -4,-174.61 181.5,-174.61 181.5,4 -4,4"/>
<!-- Bird -->
<g id="node1" class="node">
<title>Bird</title>
<polygon fill="lightgray" stroke="black" points="32,-170.61 0,-170.61 0,-152.61 32,-152.61 32,-170.61"/>
<text text-anchor="middle" x="16" y="-159.41" font-family="Times,serif" font-size="9.00">Bird</text>
</g>
<!-- 6 -->
<g id="node5" class="node">
<title>6</title>
<ellipse fill="white" stroke="black" cx="74" cy="-101.76" rx="14.7" ry="14.7"/>
<text text-anchor="middle" x="74" y="-99.56" font-family="Times,serif" font-size="9.00">6</text>
</g>
<!-- Bird&#45;&gt;6 -->
<g id="edge1" class="edge">
<title>Bird&#45;&gt;6</title>
<path fill="none" stroke="green" stroke-width="0.12" d="M24.06,-152.57C32.38,-144.27 45.61,-131.07 56.37,-120.35"/>
<polygon fill="green" stroke="green" stroke-width="0.12" points="59.05,-122.62 63.66,-113.08 54.1,-117.66 59.05,-122.62"/>
</g>
<!-- Top Pipe -->
<g id="node2" class="node">
<title>Top Pipe</title>
<polygon fill="lightgray" stroke="black" points="98,-170.61 50,-170.61 50,-152.61 98,-152.61 98,-170.61"/>
<text text-anchor="middle" x="74" y="-159.41" font-family="Times,serif" font-size="9.00">Top Pipe</text>
</g>
<!-- Top Pipe&#45;&gt;6 -->
<g id="edge2" class="edge">
<title>Top Pipe&#45;&gt;6</title>
<path fill="none" stroke="green" stroke-width="0.32" d="M74,-152.57C74,-145.96 74,-136.25 74,-127.15"/>
<polygon fill="green" stroke="green" stroke-width="0.32" points="77.5,-126.97 74,-116.97 70.5,-126.97 77.5,-126.97"/>
</g>
<!-- Bottom Pipe -->
<g id="node3" class="node">
<title>Bottom Pipe</title>
<polygon fill="lightgray" stroke="black" points="177.5,-170.61 116.5,-170.61 116.5,-152.61 177.5,-152.61 177.5,-170.61"/>
<text text-anchor="middle" x="147" y="-159.41" font-family="Times,serif" font-size="9.00">Bottom Pipe</text>
</g>
<!-- Bottom Pipe&#45;&gt;6 -->
<g id="edge3" class="edge">
<title>Bottom Pipe&#45;&gt;6</title>
<path fill="none" stroke="green" stroke-width="0.33" d="M136.85,-152.57C125.69,-143.72 107.49,-129.3 93.54,-118.25"/>
<polygon fill="green" stroke="green" stroke-width="0.33" points="95.52,-115.35 85.51,-111.88 91.17,-120.83 95.52,-115.35"/>
</g>
<!-- Jump -->
<g id="node4" class="node">
<title>Jump</title>
<ellipse fill="lightblue" stroke="black" cx="74" cy="-25.46" rx="25.41" ry="25.41"/>
<text text-anchor="middle" x="74" y="-23.26" font-family="Times,serif" font-size="9.00">Jump</text>
</g>
<!-- 6&#45;&gt;Jump -->
<g id="edge4" class="edge">
<title>6&#45;&gt;Jump</title>
<path fill="none" stroke="green" stroke-width="0.51" d="M74,-86.78C74,-79.52 74,-70.27 74,-61.22"/>
<polygon fill="green" stroke="green" stroke-width="0.51" points="77.5,-61.2 74,-51.2 70.5,-61.2 77.5,-61.2"/>
</g>
</g>
</svg>
