<?xml version="1.0" encoding="UTF-8" standalone="no"?>
<!DOCTYPE svg PUBLIC "-//W3C//DTD SVG 1.1//EN"
 "http://www.w3.org/Graphics/SVG/1.1/DTD/svg11.dtd">
<!-- Generated by graphviz version 2.50.0 (20211204.2007)
 -->
<!-- Pages: 1 -->
<svg width="186pt" height="113pt"
 viewBox="0.00 0.00 185.50 112.91" xmlns="http://www.w3.org/2000/svg" xmlns:xlink="http://www.w3.org/1999/xlink">
<g id="graph0" class="graph" transform="scale(1 1) rotate(0) translate(4 108.91)">
<polygon fill="white" stroke="transparent" points="-4,4 -4,-108.91 181.5,-108.91 181.5,4 -4,4"/>
<!-- Bird -->
<g id="node1" class="node">
<title>Bird</title>
<polygon fill="lightgray" stroke="black" points="32,-104.91 0,-104.91 0,-86.91 32,-86.91 32,-104.91"/>
<text text-anchor="middle" x="16" y="-93.71" font-family="Times,serif" font-size="9.00">Bird</text>
</g>
<!-- Jump -->
<g id="node4" class="node">
<title>Jump</title>
<ellipse fill="lightblue" stroke="black" cx="74" cy="-25.46" rx="25.41" ry="25.41"/>
<text text-anchor="middle" x="74" y="-23.26" font-family="Times,serif" font-size="9.00">Jump</text>
</g>
<!-- Bird&#45;&gt;Jump -->
<g id="edge1" class="edge">
<title>Bird&#45;&gt;Jump</title>
<path fill="none" stroke="green" stroke-width="0.79" d="M22.88,-86.79C29.92,-78.48 41.24,-65.12 51.44,-53.08"/>
<polygon fill="green" stroke="green" stroke-width="0.79" points="54.14,-55.32 57.93,-45.42 48.79,-50.79 54.14,-55.32"/>
</g>
<!-- Top Pipe -->
<g id="node2" class="node">
<title>Top Pipe</title>
<polygon fill="lightgray" stroke="black" points="98,-104.91 50,-104.91 50,-86.91 98,-86.91 98,-104.91"/>
<text text-anchor="middle" x="74" y="-93.71" font-family="Times,serif" font-size="9.00">Top Pipe</text>
</g>
<!-- Top Pipe&#45;&gt;Jump -->
<g id="edge3" class="edge">
<title>Top Pipe&#45;&gt;Jump</title>
<path fill="none" stroke="green" stroke-width="0.32" d="M74,-86.79C74,-80.34 74,-70.84 74,-61.29"/>
<polygon fill="green" stroke="green" stroke-width="0.32" points="77.5,-61.03 74,-51.03 70.5,-61.03 77.5,-61.03"/>
</g>
<!-- Bottom Pipe -->
<g id="node3" class="node">
<title>Bottom Pipe</title>
<polygon fill="lightgray" stroke="black" points="177.5,-104.91 116.5,-104.91 116.5,-86.91 177.5,-86.91 177.5,-104.91"/>
<text text-anchor="middle" x="147" y="-93.71" font-family="Times,serif" font-size="9.00">Bottom Pipe</text>
</g>
<!-- Bottom Pipe&#45;&gt;Jump -->
<g id="edge2" class="edge">
<title>Bottom Pipe&#45;&gt;Jump</title>
<path fill="none" stroke="red" stroke-width="0.77" d="M138.34,-86.79C128.87,-77.91 113.24,-63.25 99.76,-50.61"/>
<polygon fill="red" stroke="red" stroke-width="0.77" points="101.82,-47.74 92.13,-43.46 97.03,-52.85 101.82,-47.74"/>
</g>
</g>
</svg>
