<?xml version="1.0" encoding="UTF-8" standalone="no"?>
<!DOCTYPE svg PUBLIC "-//W3C//DTD SVG 1.1//EN"
 "http://www.w3.org/Graphics/SVG/1.1/DTD/svg11.dtd">
<!-- Generated by graphviz version 2.50.0 (20211204.2007)
 -->
<!-- Pages: 1 -->
<svg width="457pt" height="134pt"
 viewBox="0.00 0.00 456.89 134.21" xmlns="http://www.w3.org/2000/svg" xmlns:xlink="http://www.w3.org/1999/xlink">
<g id="graph0" class="graph" transform="scale(1 1) rotate(0) translate(4 130.21)">
<polygon fill="white" stroke="transparent" points="-4,4 -4,-130.21 452.89,-130.21 452.89,4 -4,4"/>
<!-- Bird -->
<g id="node1" class="node">
<title>Bird</title>
<polygon fill="lightgray" stroke="black" points="46.5,-90.21 14.5,-90.21 14.5,-72.21 46.5,-72.21 46.5,-90.21"/>
<text text-anchor="middle" x="30.5" y="-79.01" font-family="Times,serif" font-size="9.00">Bird</text>
</g>
<!-- 4 -->
<g id="node5" class="node">
<title>4</title>
<ellipse fill="none" stroke="black" cx="111.85" cy="-45.21" rx="14.7" ry="14.7"/>
<text text-anchor="middle" x="111.85" y="-43.01" font-family="Times,serif" font-size="9.00">4</text>
</g>
<!-- Bird&#45;&gt;4 -->
<g id="edge1" class="edge">
<title>Bird&#45;&gt;4</title>
<path fill="none" stroke="green" stroke-width="1.65" d="M46.8,-74.27C58.64,-68.9 75.22,-61.38 88.54,-55.34"/>
<polygon fill="green" stroke="green" stroke-width="1.65" points="90.3,-58.38 97.96,-51.06 87.4,-52.01 90.3,-58.38"/>
</g>
<!-- Pipe Dist -->
<g id="node2" class="node">
<title>Pipe Dist</title>
<polygon fill="lightgray" stroke="black" points="55.5,-54.21 5.5,-54.21 5.5,-36.21 55.5,-36.21 55.5,-54.21"/>
<text text-anchor="middle" x="30.5" y="-43.01" font-family="Times,serif" font-size="9.00">Pipe Dist</text>
</g>
<!-- Pipe Dist&#45;&gt;4 -->
<g id="edge5" class="edge">
<title>Pipe Dist&#45;&gt;4</title>
<path fill="none" stroke="green" stroke-width="0.53" d="M55.74,-45.21C65.54,-45.21 76.83,-45.21 86.63,-45.21"/>
<polygon fill="green" stroke="green" stroke-width="0.53" points="86.9,-48.71 96.9,-45.21 86.9,-41.71 86.9,-48.71"/>
</g>
<!-- Top Pipe -->
<g id="node3" class="node">
<title>Top Pipe</title>
<polygon fill="lightgray" stroke="black" points="54.5,-126.21 6.5,-126.21 6.5,-108.21 54.5,-108.21 54.5,-126.21"/>
<text text-anchor="middle" x="30.5" y="-115.01" font-family="Times,serif" font-size="9.00">Top Pipe</text>
</g>
<!-- Bottom Pipe -->
<g id="node4" class="node">
<title>Bottom Pipe</title>
<polygon fill="lightgray" stroke="black" points="61,-18.21 0,-18.21 0,-0.21 61,-0.21 61,-18.21"/>
<text text-anchor="middle" x="30.5" y="-7.01" font-family="Times,serif" font-size="9.00">Bottom Pipe</text>
</g>
<!-- Bottom Pipe&#45;&gt;4 -->
<g id="edge2" class="edge">
<title>Bottom Pipe&#45;&gt;4</title>
<path fill="none" stroke="red" stroke-width="1.57" d="M51.52,-18.3C62.74,-23.39 76.77,-29.75 88.37,-35.01"/>
<polygon fill="red" stroke="red" stroke-width="1.57" points="87.25,-38.35 97.8,-39.29 90.14,-31.97 87.25,-38.35"/>
</g>
<!-- Jump -->
<g id="node6" class="node">
<title>Jump</title>
<ellipse fill="none" stroke="black" cx="188.15" cy="-45.21" rx="25.41" ry="25.41"/>
<text text-anchor="middle" x="188.15" y="-43.01" font-family="Times,serif" font-size="9.00">Jump</text>
</g>
<!-- 4&#45;&gt;Jump -->
<g id="edge3" class="edge">
<title>4&#45;&gt;Jump</title>
<path fill="none" stroke="green" stroke-width="0.77" d="M126.83,-45.21C134.1,-45.21 143.34,-45.21 152.39,-45.21"/>
<polygon fill="green" stroke="green" stroke-width="0.77" points="152.41,-48.71 162.41,-45.21 152.41,-41.71 152.41,-48.71"/>
</g>
<!-- 507 -->
<g id="node7" class="node">
<title>507</title>
<ellipse fill="none" stroke="black" cx="349.25" cy="-45.21" rx="21.43" ry="21.43"/>
<text text-anchor="middle" x="349.25" y="-43.01" font-family="Times,serif" font-size="9.00">507</text>
</g>
<!-- Jump&#45;&gt;507 -->
<g id="edge6" class="edge">
<title>Jump&#45;&gt;507</title>
<path fill="none" stroke="green" stroke-width="0.61" stroke-dasharray="1,5" d="M213.53,-48.19C224.53,-49.39 237.71,-50.62 249.61,-51.21 268.44,-52.15 273.21,-52.22 292.04,-51.21 300.44,-50.77 309.53,-49.94 317.89,-49.05"/>
<polygon fill="green" stroke="green" stroke-width="0.61" points="318.46,-52.51 328,-47.9 317.67,-45.55 318.46,-52.51"/>
</g>
<!-- 688 -->
<g id="node9" class="node">
<title>688</title>
<ellipse fill="none" stroke="black" cx="270.82" cy="-21.21" rx="21.43" ry="21.43"/>
<text text-anchor="middle" x="270.82" y="-19.01" font-family="Times,serif" font-size="9.00">688</text>
</g>
<!-- Jump&#45;&gt;688 -->
<g id="edge7" class="edge">
<title>Jump&#45;&gt;688</title>
<path fill="none" stroke="green" stroke-width="0.36" d="M212.92,-38.14C221.57,-35.57 231.44,-32.63 240.51,-29.94"/>
<polygon fill="green" stroke="green" stroke-width="0.36" points="241.71,-33.23 250.3,-27.02 239.71,-26.52 241.71,-33.23"/>
</g>
<!-- 529 -->
<g id="node8" class="node">
<title>529</title>
<ellipse fill="none" stroke="black" cx="427.68" cy="-45.21" rx="21.43" ry="21.43"/>
<text text-anchor="middle" x="427.68" y="-43.01" font-family="Times,serif" font-size="9.00">529</text>
</g>
<!-- 507&#45;&gt;529 -->
<g id="edge4" class="edge">
<title>507&#45;&gt;529</title>
<path fill="none" stroke="green" stroke-width="0.64" d="M370.73,-45.21C378.59,-45.21 387.73,-45.21 396.32,-45.21"/>
<polygon fill="green" stroke="green" stroke-width="0.64" points="396.4,-48.71 406.4,-45.21 396.4,-41.71 396.4,-48.71"/>
</g>
<!-- 688&#45;&gt;507 -->
<g id="edge8" class="edge">
<title>688&#45;&gt;507</title>
<path fill="none" stroke="green" stroke-width="0.74" d="M291.51,-27.39C299.95,-30.05 309.99,-33.2 319.26,-36.11"/>
<polygon fill="green" stroke="green" stroke-width="0.74" points="318.31,-39.48 328.9,-39.14 320.41,-32.8 318.31,-39.48"/>
</g>
</g>
</svg>
