<?xml version="1.0" encoding="UTF-8" standalone="no"?>
<!DOCTYPE svg PUBLIC "-//W3C//DTD SVG 1.1//EN"
 "http://www.w3.org/Graphics/SVG/1.1/DTD/svg11.dtd">
<!-- Generated by graphviz version 2.50.0 (20211204.2007)
 -->
<!-- Pages: 1 -->
<svg width="436pt" height="134pt"
 viewBox="0.00 0.00 435.68 134.21" xmlns="http://www.w3.org/2000/svg" xmlns:xlink="http://www.w3.org/1999/xlink">
<g id="graph0" class="graph" transform="scale(1 1) rotate(0) translate(4 130.21)">
<polygon fill="white" stroke="transparent" points="-4,4 -4,-130.21 431.68,-130.21 431.68,4 -4,4"/>
<!-- Bird -->
<g id="node1" class="node">
<title>Bird</title>
<polygon fill="lightgray" stroke="black" points="46.5,-90.21 14.5,-90.21 14.5,-72.21 46.5,-72.21 46.5,-90.21"/>
<text text-anchor="middle" x="30.5" y="-79.01" font-family="Times,serif" font-size="9.00">Bird</text>
</g>
<!-- 4 -->
<g id="node5" class="node">
<title>4</title>
<ellipse fill="none" stroke="black" cx="111.85" cy="-45.21" rx="14.7" ry="14.7"/>
<text text-anchor="middle" x="111.85" y="-43.01" font-family="Times,serif" font-size="9.00">4</text>
</g>
<!-- Bird&#45;&gt;4 -->
<g id="edge1" class="edge">
<title>Bird&#45;&gt;4</title>
<path fill="none" stroke="green" stroke-width="1.65" d="M46.8,-74.27C58.64,-68.9 75.22,-61.38 88.54,-55.34"/>
<polygon fill="green" stroke="green" stroke-width="1.65" points="90.3,-58.38 97.96,-51.06 87.4,-52.01 90.3,-58.38"/>
</g>
<!-- Pipe Dist -->
<g id="node2" class="node">
<title>Pipe Dist</title>
<polygon fill="lightgray" stroke="black" points="55.5,-54.21 5.5,-54.21 5.5,-36.21 55.5,-36.21 55.5,-54.21"/>
<text text-anchor="middle" x="30.5" y="-43.01" font-family="Times,serif" font-size="9.00">Pipe Dist</text>
</g>
<!-- Pipe Dist&#45;&gt;4 -->
<g id="edge5" class="edge">
<title>Pipe Dist&#45;&gt;4</title>
<path fill="none" stroke="green" stroke-width="0.53" d="M55.74,-45.21C65.54,-45.21 76.83,-45.21 86.63,-45.21"/>
<polygon fill="green" stroke="green" stroke-width="0.53" points="86.9,-48.71 96.9,-45.21 86.9,-41.71 86.9,-48.71"/>
</g>
<!-- Top Pipe -->
<g id="node3" class="node">
<title>Top Pipe</title>
<polygon fill="lightgray" stroke="black" points="54.5,-126.21 6.5,-126.21 6.5,-108.21 54.5,-108.21 54.5,-126.21"/>
<text text-anchor="middle" x="30.5" y="-115.01" font-family="Times,serif" font-size="9.00">Top Pipe</text>
</g>
<!-- Bottom Pipe -->
<g id="node4" class="node">
<title>Bottom Pipe</title>
<polygon fill="lightgray" stroke="black" points="61,-18.21 0,-18.21 0,-0.21 61,-0.21 61,-18.21"/>
<text text-anchor="middle" x="30.5" y="-7.01" font-family="Times,serif" font-size="9.00">Bottom Pipe</text>
</g>
<!-- Bottom Pipe&#45;&gt;4 -->
<g id="edge2" class="edge">
<title>Bottom Pipe&#45;&gt;4</title>
<path fill="none" stroke="red" stroke-width="1.57" d="M51.52,-18.3C62.74,-23.39 76.77,-29.75 88.37,-35.01"/>
<polygon fill="red" stroke="red" stroke-width="1.57" points="87.25,-38.35 97.8,-39.29 90.14,-31.97 87.25,-38.35"/>
</g>
<!-- 0 -->
<g id="node6" class="node">
<title>0</title>
<ellipse fill="none" stroke="black" cx="177.55" cy="-45.21" rx="14.7" ry="14.7"/>
<text text-anchor="middle" x="177.55" y="-43.01" font-family="Times,serif" font-size="9.00">0</text>
</g>
<!-- 4&#45;&gt;0 -->
<g id="edge3" class="edge">
<title>4&#45;&gt;0</title>
<path fill="none" stroke="green" stroke-width="0.77" d="M126.99,-45.21C134.41,-45.21 143.71,-45.21 152.25,-45.21"/>
<polygon fill="green" stroke="green" stroke-width="0.77" points="152.45,-48.71 162.45,-45.21 152.45,-41.71 152.45,-48.71"/>
</g>
<!-- 507 -->
<g id="node7" class="node">
<title>507</title>
<ellipse fill="none" stroke="black" cx="328.04" cy="-45.21" rx="21.43" ry="21.43"/>
<text text-anchor="middle" x="328.04" y="-43.01" font-family="Times,serif" font-size="9.00">507</text>
</g>
<!-- 0&#45;&gt;507 -->
<g id="edge6" class="edge">
<title>0&#45;&gt;507</title>
<path fill="none" stroke="green" stroke-width="0.61" stroke-dasharray="1,5" d="M192.47,-47.34C202.45,-48.76 216.22,-50.48 228.4,-51.21 247.22,-52.34 251.99,-52.22 270.82,-51.21 279.23,-50.77 288.32,-49.94 296.68,-49.05"/>
<polygon fill="green" stroke="green" stroke-width="0.61" points="297.24,-52.51 306.78,-47.9 296.45,-45.55 297.24,-52.51"/>
</g>
<!-- 688 -->
<g id="node9" class="node">
<title>688</title>
<ellipse fill="none" stroke="black" cx="249.61" cy="-21.21" rx="21.43" ry="21.43"/>
<text text-anchor="middle" x="249.61" y="-19.01" font-family="Times,serif" font-size="9.00">688</text>
</g>
<!-- 0&#45;&gt;688 -->
<g id="edge7" class="edge">
<title>0&#45;&gt;688</title>
<path fill="none" stroke="green" stroke-width="0.36" d="M191.73,-40.7C199.61,-38 209.95,-34.45 219.66,-31.13"/>
<polygon fill="green" stroke="green" stroke-width="0.36" points="221.08,-34.34 229.4,-27.79 218.81,-27.72 221.08,-34.34"/>
</g>
<!-- 529 -->
<g id="node8" class="node">
<title>529</title>
<ellipse fill="none" stroke="black" cx="406.46" cy="-45.21" rx="21.43" ry="21.43"/>
<text text-anchor="middle" x="406.46" y="-43.01" font-family="Times,serif" font-size="9.00">529</text>
</g>
<!-- 507&#45;&gt;529 -->
<g id="edge4" class="edge">
<title>507&#45;&gt;529</title>
<path fill="none" stroke="green" stroke-width="0.64" d="M349.52,-45.21C357.38,-45.21 366.52,-45.21 375.11,-45.21"/>
<polygon fill="green" stroke="green" stroke-width="0.64" points="375.19,-48.71 385.19,-45.21 375.19,-41.71 375.19,-48.71"/>
</g>
<!-- 688&#45;&gt;507 -->
<g id="edge8" class="edge">
<title>688&#45;&gt;507</title>
<path fill="none" stroke="green" stroke-width="0.74" d="M270.29,-27.39C278.74,-30.05 288.77,-33.2 298.04,-36.11"/>
<polygon fill="green" stroke="green" stroke-width="0.74" points="297.1,-39.48 307.69,-39.14 299.19,-32.8 297.1,-39.48"/>
</g>
</g>
</svg>
