<?xml version="1.0" encoding="UTF-8" standalone="no"?>
<!DOCTYPE svg PUBLIC "-//W3C//DTD SVG 1.1//EN"
 "http://www.w3.org/Graphics/SVG/1.1/DTD/svg11.dtd">
<!-- Generated by graphviz version 2.50.0 (20211204.2007)
 -->
<!-- Pages: 1 -->
<svg width="196pt" height="257pt"
 viewBox="0.00 0.00 195.71 257.04" xmlns="http://www.w3.org/2000/svg" xmlns:xlink="http://www.w3.org/1999/xlink">
<g id="graph0" class="graph" transform="scale(1 1) rotate(0) translate(4 253.04)">
<polygon fill="white" stroke="transparent" points="-4,4 -4,-253.04 191.71,-253.04 191.71,4 -4,4"/>
<!-- Bird -->
<g id="node1" class="node">
<title>Bird</title>
<polygon fill="lightgray" stroke="black" points="37.21,-249.04 5.21,-249.04 5.21,-231.04 37.21,-231.04 37.21,-249.04"/>
<text text-anchor="middle" x="21.21" y="-237.84" font-family="Times,serif" font-size="9.00">Bird</text>
</g>
<!-- 120 -->
<g id="node5" class="node">
<title>120</title>
<ellipse fill="white" stroke="black" cx="21.21" cy="-173.82" rx="21.43" ry="21.43"/>
<text text-anchor="middle" x="21.21" y="-171.62" font-family="Times,serif" font-size="9.00">120</text>
</g>
<!-- Bird&#45;&gt;120 -->
<g id="edge4" class="edge">
<title>Bird&#45;&gt;120</title>
<path fill="none" stroke="green" stroke-width="0.34" d="M21.21,-230.9C21.21,-224.36 21.21,-214.73 21.21,-205.29"/>
<polygon fill="green" stroke="green" stroke-width="0.34" points="24.71,-205.28 21.21,-195.28 17.71,-205.28 24.71,-205.28"/>
</g>
<!-- Top Pipe -->
<g id="node2" class="node">
<title>Top Pipe</title>
<polygon fill="lightgray" stroke="black" points="108.21,-182.82 60.21,-182.82 60.21,-164.82 108.21,-164.82 108.21,-182.82"/>
<text text-anchor="middle" x="84.21" y="-171.62" font-family="Times,serif" font-size="9.00">Top Pipe</text>
</g>
<!-- 6 -->
<g id="node6" class="node">
<title>6</title>
<ellipse fill="white" stroke="black" cx="84.21" cy="-101.76" rx="14.7" ry="14.7"/>
<text text-anchor="middle" x="84.21" y="-99.56" font-family="Times,serif" font-size="9.00">6</text>
</g>
<!-- Top Pipe&#45;&gt;6 -->
<g id="edge1" class="edge">
<title>Top Pipe&#45;&gt;6</title>
<path fill="none" stroke="green" stroke-width="0.29" d="M84.21,-164.79C84.21,-155.63 84.21,-140.24 84.21,-127.08"/>
<polygon fill="green" stroke="green" stroke-width="0.29" points="87.71,-126.73 84.21,-116.73 80.71,-126.73 87.71,-126.73"/>
</g>
<!-- Bottom Pipe -->
<g id="node3" class="node">
<title>Bottom Pipe</title>
<polygon fill="lightgray" stroke="black" points="187.71,-182.82 126.71,-182.82 126.71,-164.82 187.71,-164.82 187.71,-182.82"/>
<text text-anchor="middle" x="157.21" y="-171.62" font-family="Times,serif" font-size="9.00">Bottom Pipe</text>
</g>
<!-- Bottom Pipe&#45;&gt;6 -->
<g id="edge2" class="edge">
<title>Bottom Pipe&#45;&gt;6</title>
<path fill="none" stroke="green" stroke-width="0.49" d="M148.84,-164.79C137.59,-153.99 117.3,-134.51 102.44,-120.26"/>
<polygon fill="green" stroke="green" stroke-width="0.49" points="104.48,-117.36 94.84,-112.96 99.63,-122.41 104.48,-117.36"/>
</g>
<!-- Jump -->
<g id="node4" class="node">
<title>Jump</title>
<ellipse fill="lightblue" stroke="black" cx="84.21" cy="-25.46" rx="25.41" ry="25.41"/>
<text text-anchor="middle" x="84.21" y="-23.26" font-family="Times,serif" font-size="9.00">Jump</text>
</g>
<!-- 120&#45;&gt;6 -->
<g id="edge5" class="edge">
<title>120&#45;&gt;6</title>
<path fill="none" stroke="red" stroke-width="0.19" d="M35.19,-157.27C44.88,-146.5 57.8,-132.13 67.95,-120.85"/>
<polygon fill="red" stroke="red" stroke-width="0.19" points="70.68,-123.05 74.76,-113.27 65.47,-118.37 70.68,-123.05"/>
</g>
<!-- 6&#45;&gt;Jump -->
<g id="edge3" class="edge">
<title>6&#45;&gt;Jump</title>
<path fill="none" stroke="green" stroke-width="0.47" d="M84.21,-86.78C84.21,-79.52 84.21,-70.27 84.21,-61.22"/>
<polygon fill="green" stroke="green" stroke-width="0.47" points="87.71,-61.2 84.21,-51.2 80.71,-61.2 87.71,-61.2"/>
</g>
</g>
</svg>
