<?xml version="1.0" encoding="utf-8" standalone="no"?>
<!DOCTYPE svg PUBLIC "-//W3C//DTD SVG 1.1//EN"
  "http://www.w3.org/Graphics/SVG/1.1/DTD/svg11.dtd">
<svg xmlns:xlink="http://www.w3.org/1999/xlink" width="460.8pt" height="345.6pt" viewBox="0 0 460.8 345.6" xmlns="http://www.w3.org/2000/svg" version="1.1">
 <metadata>
  <rdf:RDF xmlns:dc="http://purl.org/dc/elements/1.1/" xmlns:cc="http://creativecommons.org/ns#" xmlns:rdf="http://www.w3.org/1999/02/22-rdf-syntax-ns#">
   <cc:Work>
    <dc:type rdf:resource="http://purl.org/dc/dcmitype/StillImage"/>
    <dc:date>2022-02-02T02:45:27.526370</dc:date>
    <dc:format>image/svg+xml</dc:format>
    <dc:creator>
     <cc:Agent>
      <dc:title>Matplotlib v3.5.1, https://matplotlib.org/</dc:title>
     </cc:Agent>
    </dc:creator>
   </cc:Work>
  </rdf:RDF>
 </metadata>
 <defs>
  <style type="text/css">*{stroke-linejoin: round; stroke-linecap: butt}</style>
 </defs>
 <g id="figure_1">
  <g id="patch_1">
   <path d="M 0 345.6 
L 460.8 345.6 
L 460.8 0 
L 0 0 
z
" style="fill: #ffffff"/>
  </g>
  <g id="axes_1">
   <g id="patch_2">
    <path d="M 57.6 307.584 
L 414.72 307.584 
L 414.72 41.472 
L 57.6 41.472 
z
" style="fill: #ffffff"/>
   </g>
   <g id="PolyCollection_1">
    <path d="M 73.832727 294.912 
L 73.832727 307.584 
L 84.305455 307.584 
L 94.778182 307.584 
L 105.250909 307.584 
L 115.723636 307.584 
L 126.196364 307.584 
L 136.669091 307.584 
L 147.141818 307.584 
L 157.614545 307.584 
L 168.087273 307.584 
L 178.56 307.584 
L 189.032727 307.584 
L 199.505455 307.584 
L 209.978182 307.584 
L 220.450909 307.584 
L 230.923636 307.584 
L 241.396364 307.584 
L 251.869091 307.584 
L 262.341818 307.584 
L 272.814545 307.584 
L 283.287273 307.584 
L 293.76 307.584 
L 304.232727 307.584 
L 314.705455 307.584 
L 325.178182 307.584 
L 335.650909 307.584 
L 346.123636 307.584 
L 356.596364 307.584 
L 367.069091 307.584 
L 377.541818 307.584 
L 388.014545 307.584 
L 398.487273 307.584 
L 398.487273 307.584 
L 398.487273 307.584 
L 388.014545 307.584 
L 377.541818 307.584 
L 367.069091 307.584 
L 356.596364 307.584 
L 346.123636 307.584 
L 335.650909 282.24 
L 325.178182 282.24 
L 314.705455 282.24 
L 304.232727 282.24 
L 293.76 282.24 
L 283.287273 282.24 
L 272.814545 282.24 
L 262.341818 282.24 
L 251.869091 282.24 
L 241.396364 282.24 
L 230.923636 282.24 
L 220.450909 282.24 
L 209.978182 282.24 
L 199.505455 282.24 
L 189.032727 282.24 
L 178.56 282.24 
L 168.087273 282.24 
L 157.614545 282.24 
L 147.141818 282.24 
L 136.669091 282.24 
L 126.196364 282.24 
L 115.723636 282.24 
L 105.250909 282.24 
L 94.778182 282.24 
L 84.305455 282.24 
L 73.832727 294.912 
z
" clip-path="url(#p71db4be793)" style="fill: #1f77b4"/>
   </g>
   <g id="PolyCollection_2">
    <path d="M 73.832727 282.24 
L 73.832727 294.912 
L 84.305455 282.24 
L 94.778182 282.24 
L 105.250909 282.24 
L 115.723636 282.24 
L 126.196364 282.24 
L 136.669091 282.24 
L 147.141818 282.24 
L 157.614545 282.24 
L 168.087273 282.24 
L 178.56 282.24 
L 189.032727 282.24 
L 199.505455 282.24 
L 209.978182 282.24 
L 220.450909 282.24 
L 230.923636 282.24 
L 241.396364 282.24 
L 251.869091 282.24 
L 262.341818 282.24 
L 272.814545 282.24 
L 283.287273 282.24 
L 293.76 282.24 
L 304.232727 282.24 
L 314.705455 282.24 
L 325.178182 282.24 
L 335.650909 282.24 
L 346.123636 307.584 
L 356.596364 307.584 
L 367.069091 307.584 
L 377.541818 307.584 
L 388.014545 307.584 
L 398.487273 307.584 
L 398.487273 307.584 
L 398.487273 307.584 
L 388.014545 307.584 
L 377.541818 307.584 
L 367.069091 307.584 
L 356.596364 307.584 
L 346.123636 307.584 
L 335.650909 282.24 
L 325.178182 282.24 
L 314.705455 282.24 
L 304.232727 282.24 
L 293.76 282.24 
L 283.287273 256.896 
L 272.814545 256.896 
L 262.341818 256.896 
L 251.869091 256.896 
L 241.396364 256.896 
L 230.923636 256.896 
L 220.450909 256.896 
L 209.978182 256.896 
L 199.505455 256.896 
L 189.032727 256.896 
L 178.56 256.896 
L 168.087273 256.896 
L 157.614545 256.896 
L 147.141818 256.896 
L 136.669091 256.896 
L 126.196364 256.896 
L 115.723636 256.896 
L 105.250909 269.568 
L 94.778182 256.896 
L 84.305455 269.568 
L 73.832727 282.24 
z
" clip-path="url(#p71db4be793)" style="fill: #ff7f0e"/>
   </g>
   <g id="PolyCollection_3">
    <path d="M 73.832727 269.568 
L 73.832727 282.24 
L 84.305455 269.568 
L 94.778182 256.896 
L 105.250909 269.568 
L 115.723636 256.896 
L 126.196364 256.896 
L 136.669091 256.896 
L 147.141818 256.896 
L 157.614545 256.896 
L 168.087273 256.896 
L 178.56 256.896 
L 189.032727 256.896 
L 199.505455 256.896 
L 209.978182 256.896 
L 220.450909 256.896 
L 230.923636 256.896 
L 241.396364 256.896 
L 251.869091 256.896 
L 262.341818 256.896 
L 272.814545 256.896 
L 283.287273 256.896 
L 293.76 282.24 
L 304.232727 282.24 
L 314.705455 282.24 
L 325.178182 282.24 
L 335.650909 282.24 
L 346.123636 307.584 
L 356.596364 307.584 
L 367.069091 307.584 
L 377.541818 307.584 
L 388.014545 307.584 
L 398.487273 307.584 
L 398.487273 307.584 
L 398.487273 307.584 
L 388.014545 307.584 
L 377.541818 307.584 
L 367.069091 307.584 
L 356.596364 307.584 
L 346.123636 307.584 
L 335.650909 282.24 
L 325.178182 282.24 
L 314.705455 256.896 
L 304.232727 256.896 
L 293.76 256.896 
L 283.287273 231.552 
L 272.814545 231.552 
L 262.341818 231.552 
L 251.869091 231.552 
L 241.396364 231.552 
L 230.923636 231.552 
L 220.450909 231.552 
L 209.978182 231.552 
L 199.505455 231.552 
L 189.032727 231.552 
L 178.56 231.552 
L 168.087273 231.552 
L 157.614545 231.552 
L 147.141818 231.552 
L 136.669091 231.552 
L 126.196364 231.552 
L 115.723636 231.552 
L 105.250909 231.552 
L 94.778182 218.88 
L 84.305455 244.224 
L 73.832727 269.568 
z
" clip-path="url(#p71db4be793)" style="fill: #2ca02c"/>
   </g>
   <g id="PolyCollection_4">
    <path d="M 73.832727 256.896 
L 73.832727 269.568 
L 84.305455 244.224 
L 94.778182 218.88 
L 105.250909 231.552 
L 115.723636 231.552 
L 126.196364 231.552 
L 136.669091 231.552 
L 147.141818 231.552 
L 157.614545 231.552 
L 168.087273 231.552 
L 178.56 231.552 
L 189.032727 231.552 
L 199.505455 231.552 
L 209.978182 231.552 
L 220.450909 231.552 
L 230.923636 231.552 
L 241.396364 231.552 
L 251.869091 231.552 
L 262.341818 231.552 
L 272.814545 231.552 
L 283.287273 231.552 
L 293.76 256.896 
L 304.232727 256.896 
L 314.705455 256.896 
L 325.178182 282.24 
L 335.650909 282.24 
L 346.123636 307.584 
L 356.596364 307.584 
L 367.069091 307.584 
L 377.541818 307.584 
L 388.014545 307.584 
L 398.487273 307.584 
L 398.487273 269.568 
L 398.487273 269.568 
L 388.014545 282.24 
L 377.541818 269.568 
L 367.069091 282.24 
L 356.596364 282.24 
L 346.123636 282.24 
L 335.650909 256.896 
L 325.178182 256.896 
L 314.705455 231.552 
L 304.232727 231.552 
L 293.76 231.552 
L 283.287273 206.208 
L 272.814545 206.208 
L 262.341818 206.208 
L 251.869091 206.208 
L 241.396364 206.208 
L 230.923636 206.208 
L 220.450909 206.208 
L 209.978182 206.208 
L 199.505455 206.208 
L 189.032727 206.208 
L 178.56 206.208 
L 168.087273 206.208 
L 157.614545 206.208 
L 147.141818 206.208 
L 136.669091 206.208 
L 126.196364 206.208 
L 115.723636 206.208 
L 105.250909 180.864 
L 94.778182 180.864 
L 84.305455 218.88 
L 73.832727 256.896 
z
" clip-path="url(#p71db4be793)" style="fill: #d62728"/>
   </g>
   <g id="PolyCollection_5">
    <path d="M 73.832727 244.224 
L 73.832727 256.896 
L 84.305455 218.88 
L 94.778182 180.864 
L 105.250909 180.864 
L 115.723636 206.208 
L 126.196364 206.208 
L 136.669091 206.208 
L 147.141818 206.208 
L 157.614545 206.208 
L 168.087273 206.208 
L 178.56 206.208 
L 189.032727 206.208 
L 199.505455 206.208 
L 209.978182 206.208 
L 220.450909 206.208 
L 230.923636 206.208 
L 241.396364 206.208 
L 251.869091 206.208 
L 262.341818 206.208 
L 272.814545 206.208 
L 283.287273 206.208 
L 293.76 231.552 
L 304.232727 231.552 
L 314.705455 231.552 
L 325.178182 256.896 
L 335.650909 256.896 
L 346.123636 282.24 
L 356.596364 282.24 
L 367.069091 282.24 
L 377.541818 269.568 
L 388.014545 282.24 
L 398.487273 269.568 
L 398.487273 269.568 
L 398.487273 269.568 
L 388.014545 282.24 
L 377.541818 269.568 
L 367.069091 282.24 
L 356.596364 256.896 
L 346.123636 256.896 
L 335.650909 231.552 
L 325.178182 231.552 
L 314.705455 206.208 
L 304.232727 206.208 
L 293.76 206.208 
L 283.287273 180.864 
L 272.814545 180.864 
L 262.341818 180.864 
L 251.869091 180.864 
L 241.396364 180.864 
L 230.923636 180.864 
L 220.450909 180.864 
L 209.978182 180.864 
L 199.505455 180.864 
L 189.032727 180.864 
L 178.56 180.864 
L 168.087273 180.864 
L 157.614545 180.864 
L 147.141818 180.864 
L 136.669091 180.864 
L 126.196364 180.864 
L 115.723636 180.864 
L 105.250909 155.52 
L 94.778182 168.192 
L 84.305455 180.864 
L 73.832727 244.224 
z
" clip-path="url(#p71db4be793)" style="fill: #9467bd"/>
   </g>
   <g id="PolyCollection_6">
    <path d="M 73.832727 231.552 
L 73.832727 244.224 
L 84.305455 180.864 
L 94.778182 168.192 
L 105.250909 155.52 
L 115.723636 180.864 
L 126.196364 180.864 
L 136.669091 180.864 
L 147.141818 180.864 
L 157.614545 180.864 
L 168.087273 180.864 
L 178.56 180.864 
L 189.032727 180.864 
L 199.505455 180.864 
L 209.978182 180.864 
L 220.450909 180.864 
L 230.923636 180.864 
L 241.396364 180.864 
L 251.869091 180.864 
L 262.341818 180.864 
L 272.814545 180.864 
L 283.287273 180.864 
L 293.76 206.208 
L 304.232727 206.208 
L 314.705455 206.208 
L 325.178182 231.552 
L 335.650909 231.552 
L 346.123636 256.896 
L 356.596364 256.896 
L 367.069091 282.24 
L 377.541818 269.568 
L 388.014545 282.24 
L 398.487273 269.568 
L 398.487273 180.864 
L 398.487273 180.864 
L 388.014545 180.864 
L 377.541818 218.88 
L 367.069091 244.224 
L 356.596364 231.552 
L 346.123636 231.552 
L 335.650909 206.208 
L 325.178182 206.208 
L 314.705455 180.864 
L 304.232727 180.864 
L 293.76 180.864 
L 283.287273 155.52 
L 272.814545 155.52 
L 262.341818 155.52 
L 251.869091 155.52 
L 241.396364 155.52 
L 230.923636 155.52 
L 220.450909 155.52 
L 209.978182 155.52 
L 199.505455 155.52 
L 189.032727 155.52 
L 178.56 155.52 
L 168.087273 155.52 
L 157.614545 155.52 
L 147.141818 155.52 
L 136.669091 155.52 
L 126.196364 155.52 
L 115.723636 155.52 
L 105.250909 142.848 
L 94.778182 142.848 
L 84.305455 155.52 
L 73.832727 231.552 
z
" clip-path="url(#p71db4be793)" style="fill: #8c564b"/>
   </g>
   <g id="PolyCollection_7">
    <path d="M 73.832727 218.88 
L 73.832727 231.552 
L 84.305455 155.52 
L 94.778182 142.848 
L 105.250909 142.848 
L 115.723636 155.52 
L 126.196364 155.52 
L 136.669091 155.52 
L 147.141818 155.52 
L 157.614545 155.52 
L 168.087273 155.52 
L 178.56 155.52 
L 189.032727 155.52 
L 199.505455 155.52 
L 209.978182 155.52 
L 220.450909 155.52 
L 230.923636 155.52 
L 241.396364 155.52 
L 251.869091 155.52 
L 262.341818 155.52 
L 272.814545 155.52 
L 283.287273 155.52 
L 293.76 180.864 
L 304.232727 180.864 
L 314.705455 180.864 
L 325.178182 206.208 
L 335.650909 206.208 
L 346.123636 231.552 
L 356.596364 231.552 
L 367.069091 244.224 
L 377.541818 218.88 
L 388.014545 180.864 
L 398.487273 180.864 
L 398.487273 180.864 
L 398.487273 180.864 
L 388.014545 180.864 
L 377.541818 218.88 
L 367.069091 244.224 
L 356.596364 231.552 
L 346.123636 231.552 
L 335.650909 206.208 
L 325.178182 206.208 
L 314.705455 180.864 
L 304.232727 180.864 
L 293.76 155.52 
L 283.287273 130.176 
L 272.814545 130.176 
L 262.341818 130.176 
L 251.869091 130.176 
L 241.396364 130.176 
L 230.923636 130.176 
L 220.450909 130.176 
L 209.978182 130.176 
L 199.505455 130.176 
L 189.032727 130.176 
L 178.56 130.176 
L 168.087273 130.176 
L 157.614545 130.176 
L 147.141818 130.176 
L 136.669091 130.176 
L 126.196364 130.176 
L 115.723636 130.176 
L 105.250909 130.176 
L 94.778182 117.504 
L 84.305455 117.504 
L 73.832727 218.88 
z
" clip-path="url(#p71db4be793)" style="fill: #e377c2"/>
   </g>
   <g id="PolyCollection_8">
    <path d="M 73.832727 206.208 
L 73.832727 218.88 
L 84.305455 117.504 
L 94.778182 117.504 
L 105.250909 130.176 
L 115.723636 130.176 
L 126.196364 130.176 
L 136.669091 130.176 
L 147.141818 130.176 
L 157.614545 130.176 
L 168.087273 130.176 
L 178.56 130.176 
L 189.032727 130.176 
L 199.505455 130.176 
L 209.978182 130.176 
L 220.450909 130.176 
L 230.923636 130.176 
L 241.396364 130.176 
L 251.869091 130.176 
L 262.341818 130.176 
L 272.814545 130.176 
L 283.287273 130.176 
L 293.76 155.52 
L 304.232727 180.864 
L 314.705455 180.864 
L 325.178182 206.208 
L 335.650909 206.208 
L 346.123636 231.552 
L 356.596364 231.552 
L 367.069091 244.224 
L 377.541818 218.88 
L 388.014545 180.864 
L 398.487273 180.864 
L 398.487273 180.864 
L 398.487273 180.864 
L 388.014545 180.864 
L 377.541818 193.536 
L 367.069091 206.208 
L 356.596364 206.208 
L 346.123636 206.208 
L 335.650909 180.864 
L 325.178182 180.864 
L 314.705455 155.52 
L 304.232727 155.52 
L 293.76 130.176 
L 283.287273 104.832 
L 272.814545 104.832 
L 262.341818 104.832 
L 251.869091 104.832 
L 241.396364 104.832 
L 230.923636 104.832 
L 220.450909 104.832 
L 209.978182 104.832 
L 199.505455 104.832 
L 189.032727 104.832 
L 178.56 104.832 
L 168.087273 104.832 
L 157.614545 104.832 
L 147.141818 104.832 
L 136.669091 104.832 
L 126.196364 104.832 
L 115.723636 104.832 
L 105.250909 104.832 
L 94.778182 92.16 
L 84.305455 104.832 
L 73.832727 206.208 
z
" clip-path="url(#p71db4be793)" style="fill: #7f7f7f"/>
   </g>
   <g id="PolyCollection_9">
    <path d="M 73.832727 193.536 
L 73.832727 206.208 
L 84.305455 104.832 
L 94.778182 92.16 
L 105.250909 104.832 
L 115.723636 104.832 
L 126.196364 104.832 
L 136.669091 104.832 
L 147.141818 104.832 
L 157.614545 104.832 
L 168.087273 104.832 
L 178.56 104.832 
L 189.032727 104.832 
L 199.505455 104.832 
L 209.978182 104.832 
L 220.450909 104.832 
L 230.923636 104.832 
L 241.396364 104.832 
L 251.869091 104.832 
L 262.341818 104.832 
L 272.814545 104.832 
L 283.287273 104.832 
L 293.76 130.176 
L 304.232727 155.52 
L 314.705455 155.52 
L 325.178182 180.864 
L 335.650909 180.864 
L 346.123636 206.208 
L 356.596364 206.208 
L 367.069091 206.208 
L 377.541818 193.536 
L 388.014545 180.864 
L 398.487273 180.864 
L 398.487273 180.864 
L 398.487273 180.864 
L 388.014545 180.864 
L 377.541818 193.536 
L 367.069091 206.208 
L 356.596364 206.208 
L 346.123636 206.208 
L 335.650909 180.864 
L 325.178182 180.864 
L 314.705455 155.52 
L 304.232727 130.176 
L 293.76 104.832 
L 283.287273 79.488 
L 272.814545 79.488 
L 262.341818 79.488 
L 251.869091 79.488 
L 241.396364 79.488 
L 230.923636 79.488 
L 220.450909 79.488 
L 209.978182 79.488 
L 199.505455 79.488 
L 189.032727 79.488 
L 178.56 79.488 
L 168.087273 79.488 
L 157.614545 79.488 
L 147.141818 79.488 
L 136.669091 79.488 
L 126.196364 79.488 
L 115.723636 79.488 
L 105.250909 79.488 
L 94.778182 66.816 
L 84.305455 92.16 
L 73.832727 193.536 
z
" clip-path="url(#p71db4be793)" style="fill: #bcbd22"/>
   </g>
   <g id="PolyCollection_10">
    <path d="M 73.832727 180.864 
L 73.832727 193.536 
L 84.305455 92.16 
L 94.778182 66.816 
L 105.250909 79.488 
L 115.723636 79.488 
L 126.196364 79.488 
L 136.669091 79.488 
L 147.141818 79.488 
L 157.614545 79.488 
L 168.087273 79.488 
L 178.56 79.488 
L 189.032727 79.488 
L 199.505455 79.488 
L 209.978182 79.488 
L 220.450909 79.488 
L 230.923636 79.488 
L 241.396364 79.488 
L 251.869091 79.488 
L 262.341818 79.488 
L 272.814545 79.488 
L 283.287273 79.488 
L 293.76 104.832 
L 304.232727 130.176 
L 314.705455 155.52 
L 325.178182 180.864 
L 335.650909 180.864 
L 346.123636 206.208 
L 356.596364 206.208 
L 367.069091 206.208 
L 377.541818 193.536 
L 388.014545 180.864 
L 398.487273 180.864 
L 398.487273 180.864 
L 398.487273 180.864 
L 388.014545 180.864 
L 377.541818 193.536 
L 367.069091 180.864 
L 356.596364 180.864 
L 346.123636 180.864 
L 335.650909 155.52 
L 325.178182 155.52 
L 314.705455 130.176 
L 304.232727 104.832 
L 293.76 79.488 
L 283.287273 54.144 
L 272.814545 54.144 
L 262.341818 54.144 
L 251.869091 54.144 
L 241.396364 54.144 
L 230.923636 54.144 
L 220.450909 54.144 
L 209.978182 54.144 
L 199.505455 54.144 
L 189.032727 54.144 
L 178.56 54.144 
L 168.087273 54.144 
L 157.614545 54.144 
L 147.141818 54.144 
L 136.669091 54.144 
L 126.196364 54.144 
L 115.723636 54.144 
L 105.250909 54.144 
L 94.778182 54.144 
L 84.305455 54.144 
L 73.832727 180.864 
z
" clip-path="url(#p71db4be793)" style="fill: #17becf"/>
   </g>
   <g id="matplotlib.axis_1">
    <g id="xtick_1">
     <g id="line2d_1">
      <defs>
       <path id="me838c15f6c" d="M 0 0 
L 0 3.5 
" style="stroke: #000000; stroke-width: 0.8"/>
      </defs>
      <g>
       <use xlink:href="#me838c15f6c" x="73.832727" y="307.584" style="stroke: #000000; stroke-width: 0.8"/>
      </g>
     </g>
     <g id="text_1">
      <!-- 0 -->
      <g transform="translate(70.651477 322.182437)scale(0.1 -0.1)">
       <defs>
        <path id="DejaVuSans-30" d="M 2034 4250 
Q 1547 4250 1301 3770 
Q 1056 3291 1056 2328 
Q 1056 1369 1301 889 
Q 1547 409 2034 409 
Q 2525 409 2770 889 
Q 3016 1369 3016 2328 
Q 3016 3291 2770 3770 
Q 2525 4250 2034 4250 
z
M 2034 4750 
Q 2819 4750 3233 4129 
Q 3647 3509 3647 2328 
Q 3647 1150 3233 529 
Q 2819 -91 2034 -91 
Q 1250 -91 836 529 
Q 422 1150 422 2328 
Q 422 3509 836 4129 
Q 1250 4750 2034 4750 
z
" transform="scale(0.015625)"/>
       </defs>
       <use xlink:href="#DejaVuSans-30"/>
      </g>
     </g>
    </g>
    <g id="xtick_2">
     <g id="line2d_2">
      <g>
       <use xlink:href="#me838c15f6c" x="126.196364" y="307.584" style="stroke: #000000; stroke-width: 0.8"/>
      </g>
     </g>
     <g id="text_2">
      <!-- 5 -->
      <g transform="translate(123.015114 322.182437)scale(0.1 -0.1)">
       <defs>
        <path id="DejaVuSans-35" d="M 691 4666 
L 3169 4666 
L 3169 4134 
L 1269 4134 
L 1269 2991 
Q 1406 3038 1543 3061 
Q 1681 3084 1819 3084 
Q 2600 3084 3056 2656 
Q 3513 2228 3513 1497 
Q 3513 744 3044 326 
Q 2575 -91 1722 -91 
Q 1428 -91 1123 -41 
Q 819 9 494 109 
L 494 744 
Q 775 591 1075 516 
Q 1375 441 1709 441 
Q 2250 441 2565 725 
Q 2881 1009 2881 1497 
Q 2881 1984 2565 2268 
Q 2250 2553 1709 2553 
Q 1456 2553 1204 2497 
Q 953 2441 691 2322 
L 691 4666 
z
" transform="scale(0.015625)"/>
       </defs>
       <use xlink:href="#DejaVuSans-35"/>
      </g>
     </g>
    </g>
    <g id="xtick_3">
     <g id="line2d_3">
      <g>
       <use xlink:href="#me838c15f6c" x="178.56" y="307.584" style="stroke: #000000; stroke-width: 0.8"/>
      </g>
     </g>
     <g id="text_3">
      <!-- 10 -->
      <g transform="translate(172.1975 322.182437)scale(0.1 -0.1)">
       <defs>
        <path id="DejaVuSans-31" d="M 794 531 
L 1825 531 
L 1825 4091 
L 703 3866 
L 703 4441 
L 1819 4666 
L 2450 4666 
L 2450 531 
L 3481 531 
L 3481 0 
L 794 0 
L 794 531 
z
" transform="scale(0.015625)"/>
       </defs>
       <use xlink:href="#DejaVuSans-31"/>
       <use xlink:href="#DejaVuSans-30" x="63.623047"/>
      </g>
     </g>
    </g>
    <g id="xtick_4">
     <g id="line2d_4">
      <g>
       <use xlink:href="#me838c15f6c" x="230.923636" y="307.584" style="stroke: #000000; stroke-width: 0.8"/>
      </g>
     </g>
     <g id="text_4">
      <!-- 15 -->
      <g transform="translate(224.561136 322.182437)scale(0.1 -0.1)">
       <use xlink:href="#DejaVuSans-31"/>
       <use xlink:href="#DejaVuSans-35" x="63.623047"/>
      </g>
     </g>
    </g>
    <g id="xtick_5">
     <g id="line2d_5">
      <g>
       <use xlink:href="#me838c15f6c" x="283.287273" y="307.584" style="stroke: #000000; stroke-width: 0.8"/>
      </g>
     </g>
     <g id="text_5">
      <!-- 20 -->
      <g transform="translate(276.924773 322.182437)scale(0.1 -0.1)">
       <defs>
        <path id="DejaVuSans-32" d="M 1228 531 
L 3431 531 
L 3431 0 
L 469 0 
L 469 531 
Q 828 903 1448 1529 
Q 2069 2156 2228 2338 
Q 2531 2678 2651 2914 
Q 2772 3150 2772 3378 
Q 2772 3750 2511 3984 
Q 2250 4219 1831 4219 
Q 1534 4219 1204 4116 
Q 875 4013 500 3803 
L 500 4441 
Q 881 4594 1212 4672 
Q 1544 4750 1819 4750 
Q 2544 4750 2975 4387 
Q 3406 4025 3406 3419 
Q 3406 3131 3298 2873 
Q 3191 2616 2906 2266 
Q 2828 2175 2409 1742 
Q 1991 1309 1228 531 
z
" transform="scale(0.015625)"/>
       </defs>
       <use xlink:href="#DejaVuSans-32"/>
       <use xlink:href="#DejaVuSans-30" x="63.623047"/>
      </g>
     </g>
    </g>
    <g id="xtick_6">
     <g id="line2d_6">
      <g>
       <use xlink:href="#me838c15f6c" x="335.650909" y="307.584" style="stroke: #000000; stroke-width: 0.8"/>
      </g>
     </g>
     <g id="text_6">
      <!-- 25 -->
      <g transform="translate(329.288409 322.182437)scale(0.1 -0.1)">
       <use xlink:href="#DejaVuSans-32"/>
       <use xlink:href="#DejaVuSans-35" x="63.623047"/>
      </g>
     </g>
    </g>
    <g id="xtick_7">
     <g id="line2d_7">
      <g>
       <use xlink:href="#me838c15f6c" x="388.014545" y="307.584" style="stroke: #000000; stroke-width: 0.8"/>
      </g>
     </g>
     <g id="text_7">
      <!-- 30 -->
      <g transform="translate(381.652045 322.182437)scale(0.1 -0.1)">
       <defs>
        <path id="DejaVuSans-33" d="M 2597 2516 
Q 3050 2419 3304 2112 
Q 3559 1806 3559 1356 
Q 3559 666 3084 287 
Q 2609 -91 1734 -91 
Q 1441 -91 1130 -33 
Q 819 25 488 141 
L 488 750 
Q 750 597 1062 519 
Q 1375 441 1716 441 
Q 2309 441 2620 675 
Q 2931 909 2931 1356 
Q 2931 1769 2642 2001 
Q 2353 2234 1838 2234 
L 1294 2234 
L 1294 2753 
L 1863 2753 
Q 2328 2753 2575 2939 
Q 2822 3125 2822 3475 
Q 2822 3834 2567 4026 
Q 2313 4219 1838 4219 
Q 1578 4219 1281 4162 
Q 984 4106 628 3988 
L 628 4550 
Q 988 4650 1302 4700 
Q 1616 4750 1894 4750 
Q 2613 4750 3031 4423 
Q 3450 4097 3450 3541 
Q 3450 3153 3228 2886 
Q 3006 2619 2597 2516 
z
" transform="scale(0.015625)"/>
       </defs>
       <use xlink:href="#DejaVuSans-33"/>
       <use xlink:href="#DejaVuSans-30" x="63.623047"/>
      </g>
     </g>
    </g>
    <g id="text_8">
     <!-- Generations -->
     <g transform="translate(205.662344 335.860562)scale(0.1 -0.1)">
      <defs>
       <path id="DejaVuSans-47" d="M 3809 666 
L 3809 1919 
L 2778 1919 
L 2778 2438 
L 4434 2438 
L 4434 434 
Q 4069 175 3628 42 
Q 3188 -91 2688 -91 
Q 1594 -91 976 548 
Q 359 1188 359 2328 
Q 359 3472 976 4111 
Q 1594 4750 2688 4750 
Q 3144 4750 3555 4637 
Q 3966 4525 4313 4306 
L 4313 3634 
Q 3963 3931 3569 4081 
Q 3175 4231 2741 4231 
Q 1884 4231 1454 3753 
Q 1025 3275 1025 2328 
Q 1025 1384 1454 906 
Q 1884 428 2741 428 
Q 3075 428 3337 486 
Q 3600 544 3809 666 
z
" transform="scale(0.015625)"/>
       <path id="DejaVuSans-65" d="M 3597 1894 
L 3597 1613 
L 953 1613 
Q 991 1019 1311 708 
Q 1631 397 2203 397 
Q 2534 397 2845 478 
Q 3156 559 3463 722 
L 3463 178 
Q 3153 47 2828 -22 
Q 2503 -91 2169 -91 
Q 1331 -91 842 396 
Q 353 884 353 1716 
Q 353 2575 817 3079 
Q 1281 3584 2069 3584 
Q 2775 3584 3186 3129 
Q 3597 2675 3597 1894 
z
M 3022 2063 
Q 3016 2534 2758 2815 
Q 2500 3097 2075 3097 
Q 1594 3097 1305 2825 
Q 1016 2553 972 2059 
L 3022 2063 
z
" transform="scale(0.015625)"/>
       <path id="DejaVuSans-6e" d="M 3513 2113 
L 3513 0 
L 2938 0 
L 2938 2094 
Q 2938 2591 2744 2837 
Q 2550 3084 2163 3084 
Q 1697 3084 1428 2787 
Q 1159 2491 1159 1978 
L 1159 0 
L 581 0 
L 581 3500 
L 1159 3500 
L 1159 2956 
Q 1366 3272 1645 3428 
Q 1925 3584 2291 3584 
Q 2894 3584 3203 3211 
Q 3513 2838 3513 2113 
z
" transform="scale(0.015625)"/>
       <path id="DejaVuSans-72" d="M 2631 2963 
Q 2534 3019 2420 3045 
Q 2306 3072 2169 3072 
Q 1681 3072 1420 2755 
Q 1159 2438 1159 1844 
L 1159 0 
L 581 0 
L 581 3500 
L 1159 3500 
L 1159 2956 
Q 1341 3275 1631 3429 
Q 1922 3584 2338 3584 
Q 2397 3584 2469 3576 
Q 2541 3569 2628 3553 
L 2631 2963 
z
" transform="scale(0.015625)"/>
       <path id="DejaVuSans-61" d="M 2194 1759 
Q 1497 1759 1228 1600 
Q 959 1441 959 1056 
Q 959 750 1161 570 
Q 1363 391 1709 391 
Q 2188 391 2477 730 
Q 2766 1069 2766 1631 
L 2766 1759 
L 2194 1759 
z
M 3341 1997 
L 3341 0 
L 2766 0 
L 2766 531 
Q 2569 213 2275 61 
Q 1981 -91 1556 -91 
Q 1019 -91 701 211 
Q 384 513 384 1019 
Q 384 1609 779 1909 
Q 1175 2209 1959 2209 
L 2766 2209 
L 2766 2266 
Q 2766 2663 2505 2880 
Q 2244 3097 1772 3097 
Q 1472 3097 1187 3025 
Q 903 2953 641 2809 
L 641 3341 
Q 956 3463 1253 3523 
Q 1550 3584 1831 3584 
Q 2591 3584 2966 3190 
Q 3341 2797 3341 1997 
z
" transform="scale(0.015625)"/>
       <path id="DejaVuSans-74" d="M 1172 4494 
L 1172 3500 
L 2356 3500 
L 2356 3053 
L 1172 3053 
L 1172 1153 
Q 1172 725 1289 603 
Q 1406 481 1766 481 
L 2356 481 
L 2356 0 
L 1766 0 
Q 1100 0 847 248 
Q 594 497 594 1153 
L 594 3053 
L 172 3053 
L 172 3500 
L 594 3500 
L 594 4494 
L 1172 4494 
z
" transform="scale(0.015625)"/>
       <path id="DejaVuSans-69" d="M 603 3500 
L 1178 3500 
L 1178 0 
L 603 0 
L 603 3500 
z
M 603 4863 
L 1178 4863 
L 1178 4134 
L 603 4134 
L 603 4863 
z
" transform="scale(0.015625)"/>
       <path id="DejaVuSans-6f" d="M 1959 3097 
Q 1497 3097 1228 2736 
Q 959 2375 959 1747 
Q 959 1119 1226 758 
Q 1494 397 1959 397 
Q 2419 397 2687 759 
Q 2956 1122 2956 1747 
Q 2956 2369 2687 2733 
Q 2419 3097 1959 3097 
z
M 1959 3584 
Q 2709 3584 3137 3096 
Q 3566 2609 3566 1747 
Q 3566 888 3137 398 
Q 2709 -91 1959 -91 
Q 1206 -91 779 398 
Q 353 888 353 1747 
Q 353 2609 779 3096 
Q 1206 3584 1959 3584 
z
" transform="scale(0.015625)"/>
       <path id="DejaVuSans-73" d="M 2834 3397 
L 2834 2853 
Q 2591 2978 2328 3040 
Q 2066 3103 1784 3103 
Q 1356 3103 1142 2972 
Q 928 2841 928 2578 
Q 928 2378 1081 2264 
Q 1234 2150 1697 2047 
L 1894 2003 
Q 2506 1872 2764 1633 
Q 3022 1394 3022 966 
Q 3022 478 2636 193 
Q 2250 -91 1575 -91 
Q 1294 -91 989 -36 
Q 684 19 347 128 
L 347 722 
Q 666 556 975 473 
Q 1284 391 1588 391 
Q 1994 391 2212 530 
Q 2431 669 2431 922 
Q 2431 1156 2273 1281 
Q 2116 1406 1581 1522 
L 1381 1569 
Q 847 1681 609 1914 
Q 372 2147 372 2553 
Q 372 3047 722 3315 
Q 1072 3584 1716 3584 
Q 2034 3584 2315 3537 
Q 2597 3491 2834 3397 
z
" transform="scale(0.015625)"/>
      </defs>
      <use xlink:href="#DejaVuSans-47"/>
      <use xlink:href="#DejaVuSans-65" x="77.490234"/>
      <use xlink:href="#DejaVuSans-6e" x="139.013672"/>
      <use xlink:href="#DejaVuSans-65" x="202.392578"/>
      <use xlink:href="#DejaVuSans-72" x="263.916016"/>
      <use xlink:href="#DejaVuSans-61" x="305.029297"/>
      <use xlink:href="#DejaVuSans-74" x="366.308594"/>
      <use xlink:href="#DejaVuSans-69" x="405.517578"/>
      <use xlink:href="#DejaVuSans-6f" x="433.300781"/>
      <use xlink:href="#DejaVuSans-6e" x="494.482422"/>
      <use xlink:href="#DejaVuSans-73" x="557.861328"/>
     </g>
    </g>
   </g>
   <g id="matplotlib.axis_2">
    <g id="ytick_1">
     <g id="line2d_8">
      <defs>
       <path id="m39eacfab27" d="M 0 0 
L -3.5 0 
" style="stroke: #000000; stroke-width: 0.8"/>
      </defs>
      <g>
       <use xlink:href="#m39eacfab27" x="57.6" y="307.584" style="stroke: #000000; stroke-width: 0.8"/>
      </g>
     </g>
     <g id="text_9">
      <!-- 0.0 -->
      <g transform="translate(34.696875 311.383219)scale(0.1 -0.1)">
       <defs>
        <path id="DejaVuSans-2e" d="M 684 794 
L 1344 794 
L 1344 0 
L 684 0 
L 684 794 
z
" transform="scale(0.015625)"/>
       </defs>
       <use xlink:href="#DejaVuSans-30"/>
       <use xlink:href="#DejaVuSans-2e" x="63.623047"/>
       <use xlink:href="#DejaVuSans-30" x="95.410156"/>
      </g>
     </g>
    </g>
    <g id="ytick_2">
     <g id="line2d_9">
      <g>
       <use xlink:href="#m39eacfab27" x="57.6" y="275.904" style="stroke: #000000; stroke-width: 0.8"/>
      </g>
     </g>
     <g id="text_10">
      <!-- 2.5 -->
      <g transform="translate(34.696875 279.703219)scale(0.1 -0.1)">
       <use xlink:href="#DejaVuSans-32"/>
       <use xlink:href="#DejaVuSans-2e" x="63.623047"/>
       <use xlink:href="#DejaVuSans-35" x="95.410156"/>
      </g>
     </g>
    </g>
    <g id="ytick_3">
     <g id="line2d_10">
      <g>
       <use xlink:href="#m39eacfab27" x="57.6" y="244.224" style="stroke: #000000; stroke-width: 0.8"/>
      </g>
     </g>
     <g id="text_11">
      <!-- 5.0 -->
      <g transform="translate(34.696875 248.023219)scale(0.1 -0.1)">
       <use xlink:href="#DejaVuSans-35"/>
       <use xlink:href="#DejaVuSans-2e" x="63.623047"/>
       <use xlink:href="#DejaVuSans-30" x="95.410156"/>
      </g>
     </g>
    </g>
    <g id="ytick_4">
     <g id="line2d_11">
      <g>
       <use xlink:href="#m39eacfab27" x="57.6" y="212.544" style="stroke: #000000; stroke-width: 0.8"/>
      </g>
     </g>
     <g id="text_12">
      <!-- 7.5 -->
      <g transform="translate(34.696875 216.343219)scale(0.1 -0.1)">
       <defs>
        <path id="DejaVuSans-37" d="M 525 4666 
L 3525 4666 
L 3525 4397 
L 1831 0 
L 1172 0 
L 2766 4134 
L 525 4134 
L 525 4666 
z
" transform="scale(0.015625)"/>
       </defs>
       <use xlink:href="#DejaVuSans-37"/>
       <use xlink:href="#DejaVuSans-2e" x="63.623047"/>
       <use xlink:href="#DejaVuSans-35" x="95.410156"/>
      </g>
     </g>
    </g>
    <g id="ytick_5">
     <g id="line2d_12">
      <g>
       <use xlink:href="#m39eacfab27" x="57.6" y="180.864" style="stroke: #000000; stroke-width: 0.8"/>
      </g>
     </g>
     <g id="text_13">
      <!-- 10.0 -->
      <g transform="translate(28.334375 184.663219)scale(0.1 -0.1)">
       <use xlink:href="#DejaVuSans-31"/>
       <use xlink:href="#DejaVuSans-30" x="63.623047"/>
       <use xlink:href="#DejaVuSans-2e" x="127.246094"/>
       <use xlink:href="#DejaVuSans-30" x="159.033203"/>
      </g>
     </g>
    </g>
    <g id="ytick_6">
     <g id="line2d_13">
      <g>
       <use xlink:href="#m39eacfab27" x="57.6" y="149.184" style="stroke: #000000; stroke-width: 0.8"/>
      </g>
     </g>
     <g id="text_14">
      <!-- 12.5 -->
      <g transform="translate(28.334375 152.983219)scale(0.1 -0.1)">
       <use xlink:href="#DejaVuSans-31"/>
       <use xlink:href="#DejaVuSans-32" x="63.623047"/>
       <use xlink:href="#DejaVuSans-2e" x="127.246094"/>
       <use xlink:href="#DejaVuSans-35" x="159.033203"/>
      </g>
     </g>
    </g>
    <g id="ytick_7">
     <g id="line2d_14">
      <g>
       <use xlink:href="#m39eacfab27" x="57.6" y="117.504" style="stroke: #000000; stroke-width: 0.8"/>
      </g>
     </g>
     <g id="text_15">
      <!-- 15.0 -->
      <g transform="translate(28.334375 121.303219)scale(0.1 -0.1)">
       <use xlink:href="#DejaVuSans-31"/>
       <use xlink:href="#DejaVuSans-35" x="63.623047"/>
       <use xlink:href="#DejaVuSans-2e" x="127.246094"/>
       <use xlink:href="#DejaVuSans-30" x="159.033203"/>
      </g>
     </g>
    </g>
    <g id="ytick_8">
     <g id="line2d_15">
      <g>
       <use xlink:href="#m39eacfab27" x="57.6" y="85.824" style="stroke: #000000; stroke-width: 0.8"/>
      </g>
     </g>
     <g id="text_16">
      <!-- 17.5 -->
      <g transform="translate(28.334375 89.623219)scale(0.1 -0.1)">
       <use xlink:href="#DejaVuSans-31"/>
       <use xlink:href="#DejaVuSans-37" x="63.623047"/>
       <use xlink:href="#DejaVuSans-2e" x="127.246094"/>
       <use xlink:href="#DejaVuSans-35" x="159.033203"/>
      </g>
     </g>
    </g>
    <g id="ytick_9">
     <g id="line2d_16">
      <g>
       <use xlink:href="#m39eacfab27" x="57.6" y="54.144" style="stroke: #000000; stroke-width: 0.8"/>
      </g>
     </g>
     <g id="text_17">
      <!-- 20.0 -->
      <g transform="translate(28.334375 57.943219)scale(0.1 -0.1)">
       <use xlink:href="#DejaVuSans-32"/>
       <use xlink:href="#DejaVuSans-30" x="63.623047"/>
       <use xlink:href="#DejaVuSans-2e" x="127.246094"/>
       <use xlink:href="#DejaVuSans-30" x="159.033203"/>
      </g>
     </g>
    </g>
    <g id="text_18">
     <!-- Size per Species -->
     <g transform="translate(22.254687 215.520969)rotate(-90)scale(0.1 -0.1)">
      <defs>
       <path id="DejaVuSans-53" d="M 3425 4513 
L 3425 3897 
Q 3066 4069 2747 4153 
Q 2428 4238 2131 4238 
Q 1616 4238 1336 4038 
Q 1056 3838 1056 3469 
Q 1056 3159 1242 3001 
Q 1428 2844 1947 2747 
L 2328 2669 
Q 3034 2534 3370 2195 
Q 3706 1856 3706 1288 
Q 3706 609 3251 259 
Q 2797 -91 1919 -91 
Q 1588 -91 1214 -16 
Q 841 59 441 206 
L 441 856 
Q 825 641 1194 531 
Q 1563 422 1919 422 
Q 2459 422 2753 634 
Q 3047 847 3047 1241 
Q 3047 1584 2836 1778 
Q 2625 1972 2144 2069 
L 1759 2144 
Q 1053 2284 737 2584 
Q 422 2884 422 3419 
Q 422 4038 858 4394 
Q 1294 4750 2059 4750 
Q 2388 4750 2728 4690 
Q 3069 4631 3425 4513 
z
" transform="scale(0.015625)"/>
       <path id="DejaVuSans-7a" d="M 353 3500 
L 3084 3500 
L 3084 2975 
L 922 459 
L 3084 459 
L 3084 0 
L 275 0 
L 275 525 
L 2438 3041 
L 353 3041 
L 353 3500 
z
" transform="scale(0.015625)"/>
       <path id="DejaVuSans-20" transform="scale(0.015625)"/>
       <path id="DejaVuSans-70" d="M 1159 525 
L 1159 -1331 
L 581 -1331 
L 581 3500 
L 1159 3500 
L 1159 2969 
Q 1341 3281 1617 3432 
Q 1894 3584 2278 3584 
Q 2916 3584 3314 3078 
Q 3713 2572 3713 1747 
Q 3713 922 3314 415 
Q 2916 -91 2278 -91 
Q 1894 -91 1617 61 
Q 1341 213 1159 525 
z
M 3116 1747 
Q 3116 2381 2855 2742 
Q 2594 3103 2138 3103 
Q 1681 3103 1420 2742 
Q 1159 2381 1159 1747 
Q 1159 1113 1420 752 
Q 1681 391 2138 391 
Q 2594 391 2855 752 
Q 3116 1113 3116 1747 
z
" transform="scale(0.015625)"/>
       <path id="DejaVuSans-63" d="M 3122 3366 
L 3122 2828 
Q 2878 2963 2633 3030 
Q 2388 3097 2138 3097 
Q 1578 3097 1268 2742 
Q 959 2388 959 1747 
Q 959 1106 1268 751 
Q 1578 397 2138 397 
Q 2388 397 2633 464 
Q 2878 531 3122 666 
L 3122 134 
Q 2881 22 2623 -34 
Q 2366 -91 2075 -91 
Q 1284 -91 818 406 
Q 353 903 353 1747 
Q 353 2603 823 3093 
Q 1294 3584 2113 3584 
Q 2378 3584 2631 3529 
Q 2884 3475 3122 3366 
z
" transform="scale(0.015625)"/>
      </defs>
      <use xlink:href="#DejaVuSans-53"/>
      <use xlink:href="#DejaVuSans-69" x="63.476562"/>
      <use xlink:href="#DejaVuSans-7a" x="91.259766"/>
      <use xlink:href="#DejaVuSans-65" x="143.75"/>
      <use xlink:href="#DejaVuSans-20" x="205.273438"/>
      <use xlink:href="#DejaVuSans-70" x="237.060547"/>
      <use xlink:href="#DejaVuSans-65" x="300.537109"/>
      <use xlink:href="#DejaVuSans-72" x="362.060547"/>
      <use xlink:href="#DejaVuSans-20" x="403.173828"/>
      <use xlink:href="#DejaVuSans-53" x="434.960938"/>
      <use xlink:href="#DejaVuSans-70" x="498.4375"/>
      <use xlink:href="#DejaVuSans-65" x="561.914062"/>
      <use xlink:href="#DejaVuSans-63" x="623.4375"/>
      <use xlink:href="#DejaVuSans-69" x="678.417969"/>
      <use xlink:href="#DejaVuSans-65" x="706.201172"/>
      <use xlink:href="#DejaVuSans-73" x="767.724609"/>
     </g>
    </g>
   </g>
   <g id="patch_3">
    <path d="M 57.6 307.584 
L 57.6 41.472 
" style="fill: none; stroke: #000000; stroke-width: 0.8; stroke-linejoin: miter; stroke-linecap: square"/>
   </g>
   <g id="patch_4">
    <path d="M 414.72 307.584 
L 414.72 41.472 
" style="fill: none; stroke: #000000; stroke-width: 0.8; stroke-linejoin: miter; stroke-linecap: square"/>
   </g>
   <g id="patch_5">
    <path d="M 57.6 307.584 
L 414.72 307.584 
" style="fill: none; stroke: #000000; stroke-width: 0.8; stroke-linejoin: miter; stroke-linecap: square"/>
   </g>
   <g id="patch_6">
    <path d="M 57.6 41.472 
L 414.72 41.472 
" style="fill: none; stroke: #000000; stroke-width: 0.8; stroke-linejoin: miter; stroke-linecap: square"/>
   </g>
   <g id="text_19">
    <!-- Speciation -->
    <g transform="translate(204.714375 35.472)scale(0.12 -0.12)">
     <use xlink:href="#DejaVuSans-53"/>
     <use xlink:href="#DejaVuSans-70" x="63.476562"/>
     <use xlink:href="#DejaVuSans-65" x="126.953125"/>
     <use xlink:href="#DejaVuSans-63" x="188.476562"/>
     <use xlink:href="#DejaVuSans-69" x="243.457031"/>
     <use xlink:href="#DejaVuSans-61" x="271.240234"/>
     <use xlink:href="#DejaVuSans-74" x="332.519531"/>
     <use xlink:href="#DejaVuSans-69" x="371.728516"/>
     <use xlink:href="#DejaVuSans-6f" x="399.511719"/>
     <use xlink:href="#DejaVuSans-6e" x="460.693359"/>
    </g>
   </g>
  </g>
 </g>
 <defs>
  <clipPath id="p71db4be793">
   <rect x="57.6" y="41.472" width="357.12" height="266.112"/>
  </clipPath>
 </defs>
</svg>
