<?xml version="1.0" encoding="utf-8" standalone="no"?>
<!DOCTYPE svg PUBLIC "-//W3C//DTD SVG 1.1//EN"
  "http://www.w3.org/Graphics/SVG/1.1/DTD/svg11.dtd">
<svg xmlns:xlink="http://www.w3.org/1999/xlink" width="460.8pt" height="345.6pt" viewBox="0 0 460.8 345.6" xmlns="http://www.w3.org/2000/svg" version="1.1">
 <metadata>
  <rdf:RDF xmlns:dc="http://purl.org/dc/elements/1.1/" xmlns:cc="http://creativecommons.org/ns#" xmlns:rdf="http://www.w3.org/1999/02/22-rdf-syntax-ns#">
   <cc:Work>
    <dc:type rdf:resource="http://purl.org/dc/dcmitype/StillImage"/>
    <dc:date>2022-02-02T14:57:03.502125</dc:date>
    <dc:format>image/svg+xml</dc:format>
    <dc:creator>
     <cc:Agent>
      <dc:title>Matplotlib v3.5.1, https://matplotlib.org/</dc:title>
     </cc:Agent>
    </dc:creator>
   </cc:Work>
  </rdf:RDF>
 </metadata>
 <defs>
  <style type="text/css">*{stroke-linejoin: round; stroke-linecap: butt}</style>
 </defs>
 <g id="figure_1">
  <g id="patch_1">
   <path d="M 0 345.6 
L 460.8 345.6 
L 460.8 0 
L 0 0 
z
" style="fill: #ffffff"/>
  </g>
  <g id="axes_1">
   <g id="patch_2">
    <path d="M 57.6 307.584 
L 414.72 307.584 
L 414.72 41.472 
L 57.6 41.472 
z
" style="fill: #ffffff"/>
   </g>
   <g id="PolyCollection_1">
    <path d="M 73.832727 294.912 
L 73.832727 307.584 
L 76.924675 307.584 
L 80.016623 307.584 
L 83.108571 307.584 
L 86.200519 307.584 
L 89.292468 307.584 
L 92.384416 307.584 
L 95.476364 307.584 
L 98.568312 307.584 
L 101.66026 307.584 
L 104.752208 307.584 
L 107.844156 307.584 
L 110.936104 307.584 
L 114.028052 307.584 
L 117.12 307.584 
L 120.211948 307.584 
L 123.303896 307.584 
L 126.395844 307.584 
L 129.487792 307.584 
L 132.57974 307.584 
L 135.671688 307.584 
L 138.763636 307.584 
L 141.855584 307.584 
L 144.947532 307.584 
L 148.039481 307.584 
L 151.131429 307.584 
L 154.223377 307.584 
L 157.315325 307.584 
L 160.407273 307.584 
L 163.499221 307.584 
L 166.591169 307.584 
L 169.683117 307.584 
L 172.775065 307.584 
L 175.867013 307.584 
L 178.958961 307.584 
L 182.050909 307.584 
L 185.142857 307.584 
L 188.234805 307.584 
L 191.326753 307.584 
L 194.418701 307.584 
L 197.510649 307.584 
L 200.602597 307.584 
L 203.694545 307.584 
L 206.786494 307.584 
L 209.878442 307.584 
L 212.97039 307.584 
L 216.062338 307.584 
L 219.154286 307.584 
L 222.246234 307.584 
L 225.338182 307.584 
L 228.43013 307.584 
L 231.522078 307.584 
L 234.614026 307.584 
L 237.705974 307.584 
L 240.797922 307.584 
L 243.88987 307.584 
L 246.981818 307.584 
L 250.073766 307.584 
L 253.165714 307.584 
L 256.257662 307.584 
L 259.34961 307.584 
L 262.441558 307.584 
L 265.533506 307.584 
L 268.625455 307.584 
L 271.717403 307.584 
L 274.809351 307.584 
L 277.901299 307.584 
L 280.993247 307.584 
L 284.085195 307.584 
L 287.177143 307.584 
L 290.269091 307.584 
L 293.361039 307.584 
L 296.452987 307.584 
L 299.544935 307.584 
L 302.636883 307.584 
L 305.728831 307.584 
L 308.820779 307.584 
L 311.912727 307.584 
L 315.004675 307.584 
L 318.096623 307.584 
L 321.188571 307.584 
L 324.280519 307.584 
L 327.372468 307.584 
L 330.464416 307.584 
L 333.556364 307.584 
L 336.648312 307.584 
L 339.74026 307.584 
L 342.832208 307.584 
L 345.924156 307.584 
L 349.016104 307.584 
L 352.108052 307.584 
L 355.2 307.584 
L 358.291948 307.584 
L 361.383896 307.584 
L 364.475844 307.584 
L 367.567792 307.584 
L 370.65974 307.584 
L 373.751688 307.584 
L 376.843636 307.584 
L 379.935584 307.584 
L 383.027532 307.584 
L 386.119481 307.584 
L 389.211429 307.584 
L 392.303377 307.584 
L 395.395325 307.584 
L 398.487273 307.584 
L 398.487273 307.584 
L 398.487273 307.584 
L 395.395325 307.584 
L 392.303377 307.584 
L 389.211429 307.584 
L 386.119481 307.584 
L 383.027532 307.584 
L 379.935584 307.584 
L 376.843636 307.584 
L 373.751688 307.584 
L 370.65974 307.584 
L 367.567792 307.584 
L 364.475844 307.584 
L 361.383896 307.584 
L 358.291948 307.584 
L 355.2 307.584 
L 352.108052 307.584 
L 349.016104 307.584 
L 345.924156 307.584 
L 342.832208 307.584 
L 339.74026 307.584 
L 336.648312 307.584 
L 333.556364 307.584 
L 330.464416 307.584 
L 327.372468 307.584 
L 324.280519 307.584 
L 321.188571 307.584 
L 318.096623 307.584 
L 315.004675 307.584 
L 311.912727 307.584 
L 308.820779 307.584 
L 305.728831 307.584 
L 302.636883 307.584 
L 299.544935 307.584 
L 296.452987 307.584 
L 293.361039 307.584 
L 290.269091 307.584 
L 287.177143 307.584 
L 284.085195 307.584 
L 280.993247 307.584 
L 277.901299 307.584 
L 274.809351 307.584 
L 271.717403 307.584 
L 268.625455 307.584 
L 265.533506 307.584 
L 262.441558 307.584 
L 259.34961 307.584 
L 256.257662 307.584 
L 253.165714 307.584 
L 250.073766 307.584 
L 246.981818 307.584 
L 243.88987 307.584 
L 240.797922 307.584 
L 237.705974 307.584 
L 234.614026 307.584 
L 231.522078 307.584 
L 228.43013 307.584 
L 225.338182 307.584 
L 222.246234 307.584 
L 219.154286 307.584 
L 216.062338 307.584 
L 212.97039 307.584 
L 209.878442 307.584 
L 206.786494 307.584 
L 203.694545 307.584 
L 200.602597 307.584 
L 197.510649 307.584 
L 194.418701 307.584 
L 191.326753 307.584 
L 188.234805 307.584 
L 185.142857 307.584 
L 182.050909 307.584 
L 178.958961 307.584 
L 175.867013 307.584 
L 172.775065 307.584 
L 169.683117 307.584 
L 166.591169 307.584 
L 163.499221 307.584 
L 160.407273 307.584 
L 157.315325 307.584 
L 154.223377 307.584 
L 151.131429 307.584 
L 148.039481 307.584 
L 144.947532 307.584 
L 141.855584 282.24 
L 138.763636 282.24 
L 135.671688 282.24 
L 132.57974 282.24 
L 129.487792 282.24 
L 126.395844 282.24 
L 123.303896 282.24 
L 120.211948 282.24 
L 117.12 282.24 
L 114.028052 282.24 
L 110.936104 282.24 
L 107.844156 282.24 
L 104.752208 282.24 
L 101.66026 282.24 
L 98.568312 282.24 
L 95.476364 282.24 
L 92.384416 282.24 
L 89.292468 282.24 
L 86.200519 282.24 
L 83.108571 294.912 
L 80.016623 282.24 
L 76.924675 282.24 
L 73.832727 294.912 
z
" clip-path="url(#p4886e04251)" style="fill: #1f77b4"/>
   </g>
   <g id="PolyCollection_2">
    <path d="M 73.832727 282.24 
L 73.832727 294.912 
L 76.924675 282.24 
L 80.016623 282.24 
L 83.108571 294.912 
L 86.200519 282.24 
L 89.292468 282.24 
L 92.384416 282.24 
L 95.476364 282.24 
L 98.568312 282.24 
L 101.66026 282.24 
L 104.752208 282.24 
L 107.844156 282.24 
L 110.936104 282.24 
L 114.028052 282.24 
L 117.12 282.24 
L 120.211948 282.24 
L 123.303896 282.24 
L 126.395844 282.24 
L 129.487792 282.24 
L 132.57974 282.24 
L 135.671688 282.24 
L 138.763636 282.24 
L 141.855584 282.24 
L 144.947532 307.584 
L 148.039481 307.584 
L 151.131429 307.584 
L 154.223377 307.584 
L 157.315325 307.584 
L 160.407273 307.584 
L 163.499221 307.584 
L 166.591169 307.584 
L 169.683117 307.584 
L 172.775065 307.584 
L 175.867013 307.584 
L 178.958961 307.584 
L 182.050909 307.584 
L 185.142857 307.584 
L 188.234805 307.584 
L 191.326753 307.584 
L 194.418701 307.584 
L 197.510649 307.584 
L 200.602597 307.584 
L 203.694545 307.584 
L 206.786494 307.584 
L 209.878442 307.584 
L 212.97039 307.584 
L 216.062338 307.584 
L 219.154286 307.584 
L 222.246234 307.584 
L 225.338182 307.584 
L 228.43013 307.584 
L 231.522078 307.584 
L 234.614026 307.584 
L 237.705974 307.584 
L 240.797922 307.584 
L 243.88987 307.584 
L 246.981818 307.584 
L 250.073766 307.584 
L 253.165714 307.584 
L 256.257662 307.584 
L 259.34961 307.584 
L 262.441558 307.584 
L 265.533506 307.584 
L 268.625455 307.584 
L 271.717403 307.584 
L 274.809351 307.584 
L 277.901299 307.584 
L 280.993247 307.584 
L 284.085195 307.584 
L 287.177143 307.584 
L 290.269091 307.584 
L 293.361039 307.584 
L 296.452987 307.584 
L 299.544935 307.584 
L 302.636883 307.584 
L 305.728831 307.584 
L 308.820779 307.584 
L 311.912727 307.584 
L 315.004675 307.584 
L 318.096623 307.584 
L 321.188571 307.584 
L 324.280519 307.584 
L 327.372468 307.584 
L 330.464416 307.584 
L 333.556364 307.584 
L 336.648312 307.584 
L 339.74026 307.584 
L 342.832208 307.584 
L 345.924156 307.584 
L 349.016104 307.584 
L 352.108052 307.584 
L 355.2 307.584 
L 358.291948 307.584 
L 361.383896 307.584 
L 364.475844 307.584 
L 367.567792 307.584 
L 370.65974 307.584 
L 373.751688 307.584 
L 376.843636 307.584 
L 379.935584 307.584 
L 383.027532 307.584 
L 386.119481 307.584 
L 389.211429 307.584 
L 392.303377 307.584 
L 395.395325 307.584 
L 398.487273 307.584 
L 398.487273 307.584 
L 398.487273 307.584 
L 395.395325 307.584 
L 392.303377 307.584 
L 389.211429 307.584 
L 386.119481 307.584 
L 383.027532 307.584 
L 379.935584 307.584 
L 376.843636 307.584 
L 373.751688 307.584 
L 370.65974 307.584 
L 367.567792 307.584 
L 364.475844 307.584 
L 361.383896 307.584 
L 358.291948 307.584 
L 355.2 307.584 
L 352.108052 307.584 
L 349.016104 307.584 
L 345.924156 307.584 
L 342.832208 307.584 
L 339.74026 307.584 
L 336.648312 307.584 
L 333.556364 307.584 
L 330.464416 307.584 
L 327.372468 307.584 
L 324.280519 307.584 
L 321.188571 307.584 
L 318.096623 307.584 
L 315.004675 307.584 
L 311.912727 307.584 
L 308.820779 307.584 
L 305.728831 307.584 
L 302.636883 244.224 
L 299.544935 282.24 
L 296.452987 269.568 
L 293.361039 256.896 
L 290.269091 282.24 
L 287.177143 282.24 
L 284.085195 282.24 
L 280.993247 269.568 
L 277.901299 269.568 
L 274.809351 269.568 
L 271.717403 282.24 
L 268.625455 282.24 
L 265.533506 282.24 
L 262.441558 269.568 
L 259.34961 269.568 
L 256.257662 269.568 
L 253.165714 282.24 
L 250.073766 269.568 
L 246.981818 282.24 
L 243.88987 269.568 
L 240.797922 282.24 
L 237.705974 269.568 
L 234.614026 256.896 
L 231.522078 269.568 
L 228.43013 282.24 
L 225.338182 269.568 
L 222.246234 269.568 
L 219.154286 282.24 
L 216.062338 269.568 
L 212.97039 294.912 
L 209.878442 269.568 
L 206.786494 269.568 
L 203.694545 282.24 
L 200.602597 282.24 
L 197.510649 282.24 
L 194.418701 269.568 
L 191.326753 282.24 
L 188.234805 269.568 
L 185.142857 282.24 
L 182.050909 282.24 
L 178.958961 256.896 
L 175.867013 256.896 
L 172.775065 269.568 
L 169.683117 282.24 
L 166.591169 282.24 
L 163.499221 282.24 
L 160.407273 269.568 
L 157.315325 282.24 
L 154.223377 282.24 
L 151.131429 282.24 
L 148.039481 282.24 
L 144.947532 282.24 
L 141.855584 256.896 
L 138.763636 256.896 
L 135.671688 256.896 
L 132.57974 256.896 
L 129.487792 256.896 
L 126.395844 256.896 
L 123.303896 256.896 
L 120.211948 256.896 
L 117.12 256.896 
L 114.028052 256.896 
L 110.936104 256.896 
L 107.844156 256.896 
L 104.752208 256.896 
L 101.66026 256.896 
L 98.568312 256.896 
L 95.476364 256.896 
L 92.384416 256.896 
L 89.292468 256.896 
L 86.200519 256.896 
L 83.108571 269.568 
L 80.016623 256.896 
L 76.924675 256.896 
L 73.832727 282.24 
z
" clip-path="url(#p4886e04251)" style="fill: #ff7f0e"/>
   </g>
   <g id="PolyCollection_3">
    <path d="M 73.832727 269.568 
L 73.832727 282.24 
L 76.924675 256.896 
L 80.016623 256.896 
L 83.108571 269.568 
L 86.200519 256.896 
L 89.292468 256.896 
L 92.384416 256.896 
L 95.476364 256.896 
L 98.568312 256.896 
L 101.66026 256.896 
L 104.752208 256.896 
L 107.844156 256.896 
L 110.936104 256.896 
L 114.028052 256.896 
L 117.12 256.896 
L 120.211948 256.896 
L 123.303896 256.896 
L 126.395844 256.896 
L 129.487792 256.896 
L 132.57974 256.896 
L 135.671688 256.896 
L 138.763636 256.896 
L 141.855584 256.896 
L 144.947532 282.24 
L 148.039481 282.24 
L 151.131429 282.24 
L 154.223377 282.24 
L 157.315325 282.24 
L 160.407273 269.568 
L 163.499221 282.24 
L 166.591169 282.24 
L 169.683117 282.24 
L 172.775065 269.568 
L 175.867013 256.896 
L 178.958961 256.896 
L 182.050909 282.24 
L 185.142857 282.24 
L 188.234805 269.568 
L 191.326753 282.24 
L 194.418701 269.568 
L 197.510649 282.24 
L 200.602597 282.24 
L 203.694545 282.24 
L 206.786494 269.568 
L 209.878442 269.568 
L 212.97039 294.912 
L 216.062338 269.568 
L 219.154286 282.24 
L 222.246234 269.568 
L 225.338182 269.568 
L 228.43013 282.24 
L 231.522078 269.568 
L 234.614026 256.896 
L 237.705974 269.568 
L 240.797922 282.24 
L 243.88987 269.568 
L 246.981818 282.24 
L 250.073766 269.568 
L 253.165714 282.24 
L 256.257662 269.568 
L 259.34961 269.568 
L 262.441558 269.568 
L 265.533506 282.24 
L 268.625455 282.24 
L 271.717403 282.24 
L 274.809351 269.568 
L 277.901299 269.568 
L 280.993247 269.568 
L 284.085195 282.24 
L 287.177143 282.24 
L 290.269091 282.24 
L 293.361039 256.896 
L 296.452987 269.568 
L 299.544935 282.24 
L 302.636883 244.224 
L 305.728831 307.584 
L 308.820779 307.584 
L 311.912727 307.584 
L 315.004675 307.584 
L 318.096623 307.584 
L 321.188571 307.584 
L 324.280519 307.584 
L 327.372468 307.584 
L 330.464416 307.584 
L 333.556364 307.584 
L 336.648312 307.584 
L 339.74026 307.584 
L 342.832208 307.584 
L 345.924156 307.584 
L 349.016104 307.584 
L 352.108052 307.584 
L 355.2 307.584 
L 358.291948 307.584 
L 361.383896 307.584 
L 364.475844 307.584 
L 367.567792 307.584 
L 370.65974 307.584 
L 373.751688 307.584 
L 376.843636 307.584 
L 379.935584 307.584 
L 383.027532 307.584 
L 386.119481 307.584 
L 389.211429 307.584 
L 392.303377 307.584 
L 395.395325 307.584 
L 398.487273 307.584 
L 398.487273 307.584 
L 398.487273 307.584 
L 395.395325 307.584 
L 392.303377 307.584 
L 389.211429 307.584 
L 386.119481 307.584 
L 383.027532 307.584 
L 379.935584 307.584 
L 376.843636 307.584 
L 373.751688 307.584 
L 370.65974 307.584 
L 367.567792 307.584 
L 364.475844 307.584 
L 361.383896 307.584 
L 358.291948 307.584 
L 355.2 307.584 
L 352.108052 307.584 
L 349.016104 307.584 
L 345.924156 307.584 
L 342.832208 307.584 
L 339.74026 307.584 
L 336.648312 307.584 
L 333.556364 307.584 
L 330.464416 307.584 
L 327.372468 307.584 
L 324.280519 307.584 
L 321.188571 307.584 
L 318.096623 307.584 
L 315.004675 307.584 
L 311.912727 307.584 
L 308.820779 307.584 
L 305.728831 307.584 
L 302.636883 244.224 
L 299.544935 282.24 
L 296.452987 269.568 
L 293.361039 256.896 
L 290.269091 282.24 
L 287.177143 282.24 
L 284.085195 282.24 
L 280.993247 269.568 
L 277.901299 269.568 
L 274.809351 269.568 
L 271.717403 282.24 
L 268.625455 282.24 
L 265.533506 282.24 
L 262.441558 269.568 
L 259.34961 269.568 
L 256.257662 269.568 
L 253.165714 282.24 
L 250.073766 269.568 
L 246.981818 282.24 
L 243.88987 269.568 
L 240.797922 282.24 
L 237.705974 269.568 
L 234.614026 256.896 
L 231.522078 269.568 
L 228.43013 282.24 
L 225.338182 269.568 
L 222.246234 269.568 
L 219.154286 282.24 
L 216.062338 269.568 
L 212.97039 294.912 
L 209.878442 269.568 
L 206.786494 269.568 
L 203.694545 282.24 
L 200.602597 282.24 
L 197.510649 282.24 
L 194.418701 269.568 
L 191.326753 282.24 
L 188.234805 269.568 
L 185.142857 282.24 
L 182.050909 282.24 
L 178.958961 256.896 
L 175.867013 256.896 
L 172.775065 269.568 
L 169.683117 282.24 
L 166.591169 256.896 
L 163.499221 269.568 
L 160.407273 244.224 
L 157.315325 256.896 
L 154.223377 256.896 
L 151.131429 256.896 
L 148.039481 256.896 
L 144.947532 256.896 
L 141.855584 231.552 
L 138.763636 231.552 
L 135.671688 231.552 
L 132.57974 231.552 
L 129.487792 231.552 
L 126.395844 231.552 
L 123.303896 231.552 
L 120.211948 231.552 
L 117.12 231.552 
L 114.028052 231.552 
L 110.936104 231.552 
L 107.844156 231.552 
L 104.752208 231.552 
L 101.66026 231.552 
L 98.568312 231.552 
L 95.476364 231.552 
L 92.384416 231.552 
L 89.292468 231.552 
L 86.200519 231.552 
L 83.108571 231.552 
L 80.016623 218.88 
L 76.924675 231.552 
L 73.832727 269.568 
z
" clip-path="url(#p4886e04251)" style="fill: #2ca02c"/>
   </g>
   <g id="PolyCollection_4">
    <path d="M 73.832727 256.896 
L 73.832727 269.568 
L 76.924675 231.552 
L 80.016623 218.88 
L 83.108571 231.552 
L 86.200519 231.552 
L 89.292468 231.552 
L 92.384416 231.552 
L 95.476364 231.552 
L 98.568312 231.552 
L 101.66026 231.552 
L 104.752208 231.552 
L 107.844156 231.552 
L 110.936104 231.552 
L 114.028052 231.552 
L 117.12 231.552 
L 120.211948 231.552 
L 123.303896 231.552 
L 126.395844 231.552 
L 129.487792 231.552 
L 132.57974 231.552 
L 135.671688 231.552 
L 138.763636 231.552 
L 141.855584 231.552 
L 144.947532 256.896 
L 148.039481 256.896 
L 151.131429 256.896 
L 154.223377 256.896 
L 157.315325 256.896 
L 160.407273 244.224 
L 163.499221 269.568 
L 166.591169 256.896 
L 169.683117 282.24 
L 172.775065 269.568 
L 175.867013 256.896 
L 178.958961 256.896 
L 182.050909 282.24 
L 185.142857 282.24 
L 188.234805 269.568 
L 191.326753 282.24 
L 194.418701 269.568 
L 197.510649 282.24 
L 200.602597 282.24 
L 203.694545 282.24 
L 206.786494 269.568 
L 209.878442 269.568 
L 212.97039 294.912 
L 216.062338 269.568 
L 219.154286 282.24 
L 222.246234 269.568 
L 225.338182 269.568 
L 228.43013 282.24 
L 231.522078 269.568 
L 234.614026 256.896 
L 237.705974 269.568 
L 240.797922 282.24 
L 243.88987 269.568 
L 246.981818 282.24 
L 250.073766 269.568 
L 253.165714 282.24 
L 256.257662 269.568 
L 259.34961 269.568 
L 262.441558 269.568 
L 265.533506 282.24 
L 268.625455 282.24 
L 271.717403 282.24 
L 274.809351 269.568 
L 277.901299 269.568 
L 280.993247 269.568 
L 284.085195 282.24 
L 287.177143 282.24 
L 290.269091 282.24 
L 293.361039 256.896 
L 296.452987 269.568 
L 299.544935 282.24 
L 302.636883 244.224 
L 305.728831 307.584 
L 308.820779 307.584 
L 311.912727 307.584 
L 315.004675 307.584 
L 318.096623 307.584 
L 321.188571 307.584 
L 324.280519 307.584 
L 327.372468 307.584 
L 330.464416 307.584 
L 333.556364 307.584 
L 336.648312 307.584 
L 339.74026 307.584 
L 342.832208 307.584 
L 345.924156 307.584 
L 349.016104 307.584 
L 352.108052 307.584 
L 355.2 307.584 
L 358.291948 307.584 
L 361.383896 307.584 
L 364.475844 307.584 
L 367.567792 307.584 
L 370.65974 307.584 
L 373.751688 307.584 
L 376.843636 307.584 
L 379.935584 307.584 
L 383.027532 307.584 
L 386.119481 307.584 
L 389.211429 307.584 
L 392.303377 307.584 
L 395.395325 307.584 
L 398.487273 307.584 
L 398.487273 307.584 
L 398.487273 307.584 
L 395.395325 307.584 
L 392.303377 307.584 
L 389.211429 307.584 
L 386.119481 307.584 
L 383.027532 307.584 
L 379.935584 307.584 
L 376.843636 307.584 
L 373.751688 307.584 
L 370.65974 307.584 
L 367.567792 307.584 
L 364.475844 307.584 
L 361.383896 307.584 
L 358.291948 307.584 
L 355.2 307.584 
L 352.108052 307.584 
L 349.016104 307.584 
L 345.924156 307.584 
L 342.832208 307.584 
L 339.74026 307.584 
L 336.648312 307.584 
L 333.556364 307.584 
L 330.464416 307.584 
L 327.372468 307.584 
L 324.280519 307.584 
L 321.188571 307.584 
L 318.096623 307.584 
L 315.004675 307.584 
L 311.912727 307.584 
L 308.820779 307.584 
L 305.728831 307.584 
L 302.636883 244.224 
L 299.544935 282.24 
L 296.452987 269.568 
L 293.361039 256.896 
L 290.269091 282.24 
L 287.177143 282.24 
L 284.085195 282.24 
L 280.993247 269.568 
L 277.901299 269.568 
L 274.809351 269.568 
L 271.717403 282.24 
L 268.625455 282.24 
L 265.533506 282.24 
L 262.441558 269.568 
L 259.34961 269.568 
L 256.257662 269.568 
L 253.165714 282.24 
L 250.073766 269.568 
L 246.981818 282.24 
L 243.88987 269.568 
L 240.797922 282.24 
L 237.705974 269.568 
L 234.614026 256.896 
L 231.522078 269.568 
L 228.43013 282.24 
L 225.338182 269.568 
L 222.246234 269.568 
L 219.154286 282.24 
L 216.062338 269.568 
L 212.97039 294.912 
L 209.878442 269.568 
L 206.786494 269.568 
L 203.694545 282.24 
L 200.602597 282.24 
L 197.510649 282.24 
L 194.418701 269.568 
L 191.326753 282.24 
L 188.234805 269.568 
L 185.142857 282.24 
L 182.050909 282.24 
L 178.958961 256.896 
L 175.867013 256.896 
L 172.775065 269.568 
L 169.683117 282.24 
L 166.591169 256.896 
L 163.499221 269.568 
L 160.407273 244.224 
L 157.315325 256.896 
L 154.223377 256.896 
L 151.131429 256.896 
L 148.039481 256.896 
L 144.947532 256.896 
L 141.855584 231.552 
L 138.763636 206.208 
L 135.671688 206.208 
L 132.57974 206.208 
L 129.487792 206.208 
L 126.395844 206.208 
L 123.303896 206.208 
L 120.211948 206.208 
L 117.12 206.208 
L 114.028052 206.208 
L 110.936104 206.208 
L 107.844156 206.208 
L 104.752208 206.208 
L 101.66026 206.208 
L 98.568312 206.208 
L 95.476364 206.208 
L 92.384416 206.208 
L 89.292468 206.208 
L 86.200519 206.208 
L 83.108571 206.208 
L 80.016623 193.536 
L 76.924675 206.208 
L 73.832727 256.896 
z
" clip-path="url(#p4886e04251)" style="fill: #d62728"/>
   </g>
   <g id="PolyCollection_5">
    <path d="M 73.832727 244.224 
L 73.832727 256.896 
L 76.924675 206.208 
L 80.016623 193.536 
L 83.108571 206.208 
L 86.200519 206.208 
L 89.292468 206.208 
L 92.384416 206.208 
L 95.476364 206.208 
L 98.568312 206.208 
L 101.66026 206.208 
L 104.752208 206.208 
L 107.844156 206.208 
L 110.936104 206.208 
L 114.028052 206.208 
L 117.12 206.208 
L 120.211948 206.208 
L 123.303896 206.208 
L 126.395844 206.208 
L 129.487792 206.208 
L 132.57974 206.208 
L 135.671688 206.208 
L 138.763636 206.208 
L 141.855584 231.552 
L 144.947532 256.896 
L 148.039481 256.896 
L 151.131429 256.896 
L 154.223377 256.896 
L 157.315325 256.896 
L 160.407273 244.224 
L 163.499221 269.568 
L 166.591169 256.896 
L 169.683117 282.24 
L 172.775065 269.568 
L 175.867013 256.896 
L 178.958961 256.896 
L 182.050909 282.24 
L 185.142857 282.24 
L 188.234805 269.568 
L 191.326753 282.24 
L 194.418701 269.568 
L 197.510649 282.24 
L 200.602597 282.24 
L 203.694545 282.24 
L 206.786494 269.568 
L 209.878442 269.568 
L 212.97039 294.912 
L 216.062338 269.568 
L 219.154286 282.24 
L 222.246234 269.568 
L 225.338182 269.568 
L 228.43013 282.24 
L 231.522078 269.568 
L 234.614026 256.896 
L 237.705974 269.568 
L 240.797922 282.24 
L 243.88987 269.568 
L 246.981818 282.24 
L 250.073766 269.568 
L 253.165714 282.24 
L 256.257662 269.568 
L 259.34961 269.568 
L 262.441558 269.568 
L 265.533506 282.24 
L 268.625455 282.24 
L 271.717403 282.24 
L 274.809351 269.568 
L 277.901299 269.568 
L 280.993247 269.568 
L 284.085195 282.24 
L 287.177143 282.24 
L 290.269091 282.24 
L 293.361039 256.896 
L 296.452987 269.568 
L 299.544935 282.24 
L 302.636883 244.224 
L 305.728831 307.584 
L 308.820779 307.584 
L 311.912727 307.584 
L 315.004675 307.584 
L 318.096623 307.584 
L 321.188571 307.584 
L 324.280519 307.584 
L 327.372468 307.584 
L 330.464416 307.584 
L 333.556364 307.584 
L 336.648312 307.584 
L 339.74026 307.584 
L 342.832208 307.584 
L 345.924156 307.584 
L 349.016104 307.584 
L 352.108052 307.584 
L 355.2 307.584 
L 358.291948 307.584 
L 361.383896 307.584 
L 364.475844 307.584 
L 367.567792 307.584 
L 370.65974 307.584 
L 373.751688 307.584 
L 376.843636 307.584 
L 379.935584 307.584 
L 383.027532 307.584 
L 386.119481 307.584 
L 389.211429 307.584 
L 392.303377 307.584 
L 395.395325 307.584 
L 398.487273 307.584 
L 398.487273 307.584 
L 398.487273 307.584 
L 395.395325 307.584 
L 392.303377 307.584 
L 389.211429 307.584 
L 386.119481 307.584 
L 383.027532 307.584 
L 379.935584 307.584 
L 376.843636 307.584 
L 373.751688 307.584 
L 370.65974 307.584 
L 367.567792 307.584 
L 364.475844 307.584 
L 361.383896 307.584 
L 358.291948 307.584 
L 355.2 307.584 
L 352.108052 307.584 
L 349.016104 307.584 
L 345.924156 307.584 
L 342.832208 307.584 
L 339.74026 307.584 
L 336.648312 307.584 
L 333.556364 307.584 
L 330.464416 307.584 
L 327.372468 307.584 
L 324.280519 307.584 
L 321.188571 307.584 
L 318.096623 307.584 
L 315.004675 307.584 
L 311.912727 307.584 
L 308.820779 307.584 
L 305.728831 307.584 
L 302.636883 244.224 
L 299.544935 282.24 
L 296.452987 269.568 
L 293.361039 256.896 
L 290.269091 282.24 
L 287.177143 282.24 
L 284.085195 282.24 
L 280.993247 269.568 
L 277.901299 269.568 
L 274.809351 269.568 
L 271.717403 282.24 
L 268.625455 282.24 
L 265.533506 282.24 
L 262.441558 269.568 
L 259.34961 269.568 
L 256.257662 269.568 
L 253.165714 282.24 
L 250.073766 269.568 
L 246.981818 282.24 
L 243.88987 269.568 
L 240.797922 282.24 
L 237.705974 269.568 
L 234.614026 256.896 
L 231.522078 269.568 
L 228.43013 282.24 
L 225.338182 269.568 
L 222.246234 269.568 
L 219.154286 282.24 
L 216.062338 269.568 
L 212.97039 294.912 
L 209.878442 269.568 
L 206.786494 269.568 
L 203.694545 282.24 
L 200.602597 282.24 
L 197.510649 282.24 
L 194.418701 269.568 
L 191.326753 282.24 
L 188.234805 269.568 
L 185.142857 282.24 
L 182.050909 282.24 
L 178.958961 256.896 
L 175.867013 256.896 
L 172.775065 269.568 
L 169.683117 282.24 
L 166.591169 256.896 
L 163.499221 269.568 
L 160.407273 244.224 
L 157.315325 256.896 
L 154.223377 256.896 
L 151.131429 256.896 
L 148.039481 256.896 
L 144.947532 231.552 
L 141.855584 206.208 
L 138.763636 180.864 
L 135.671688 180.864 
L 132.57974 180.864 
L 129.487792 180.864 
L 126.395844 180.864 
L 123.303896 180.864 
L 120.211948 180.864 
L 117.12 180.864 
L 114.028052 180.864 
L 110.936104 180.864 
L 107.844156 180.864 
L 104.752208 180.864 
L 101.66026 180.864 
L 98.568312 180.864 
L 95.476364 180.864 
L 92.384416 180.864 
L 89.292468 180.864 
L 86.200519 180.864 
L 83.108571 180.864 
L 80.016623 168.192 
L 76.924675 180.864 
L 73.832727 244.224 
z
" clip-path="url(#p4886e04251)" style="fill: #9467bd"/>
   </g>
   <g id="PolyCollection_6">
    <path d="M 73.832727 231.552 
L 73.832727 244.224 
L 76.924675 180.864 
L 80.016623 168.192 
L 83.108571 180.864 
L 86.200519 180.864 
L 89.292468 180.864 
L 92.384416 180.864 
L 95.476364 180.864 
L 98.568312 180.864 
L 101.66026 180.864 
L 104.752208 180.864 
L 107.844156 180.864 
L 110.936104 180.864 
L 114.028052 180.864 
L 117.12 180.864 
L 120.211948 180.864 
L 123.303896 180.864 
L 126.395844 180.864 
L 129.487792 180.864 
L 132.57974 180.864 
L 135.671688 180.864 
L 138.763636 180.864 
L 141.855584 206.208 
L 144.947532 231.552 
L 148.039481 256.896 
L 151.131429 256.896 
L 154.223377 256.896 
L 157.315325 256.896 
L 160.407273 244.224 
L 163.499221 269.568 
L 166.591169 256.896 
L 169.683117 282.24 
L 172.775065 269.568 
L 175.867013 256.896 
L 178.958961 256.896 
L 182.050909 282.24 
L 185.142857 282.24 
L 188.234805 269.568 
L 191.326753 282.24 
L 194.418701 269.568 
L 197.510649 282.24 
L 200.602597 282.24 
L 203.694545 282.24 
L 206.786494 269.568 
L 209.878442 269.568 
L 212.97039 294.912 
L 216.062338 269.568 
L 219.154286 282.24 
L 222.246234 269.568 
L 225.338182 269.568 
L 228.43013 282.24 
L 231.522078 269.568 
L 234.614026 256.896 
L 237.705974 269.568 
L 240.797922 282.24 
L 243.88987 269.568 
L 246.981818 282.24 
L 250.073766 269.568 
L 253.165714 282.24 
L 256.257662 269.568 
L 259.34961 269.568 
L 262.441558 269.568 
L 265.533506 282.24 
L 268.625455 282.24 
L 271.717403 282.24 
L 274.809351 269.568 
L 277.901299 269.568 
L 280.993247 269.568 
L 284.085195 282.24 
L 287.177143 282.24 
L 290.269091 282.24 
L 293.361039 256.896 
L 296.452987 269.568 
L 299.544935 282.24 
L 302.636883 244.224 
L 305.728831 307.584 
L 308.820779 307.584 
L 311.912727 307.584 
L 315.004675 307.584 
L 318.096623 307.584 
L 321.188571 307.584 
L 324.280519 307.584 
L 327.372468 307.584 
L 330.464416 307.584 
L 333.556364 307.584 
L 336.648312 307.584 
L 339.74026 307.584 
L 342.832208 307.584 
L 345.924156 307.584 
L 349.016104 307.584 
L 352.108052 307.584 
L 355.2 307.584 
L 358.291948 307.584 
L 361.383896 307.584 
L 364.475844 307.584 
L 367.567792 307.584 
L 370.65974 307.584 
L 373.751688 307.584 
L 376.843636 307.584 
L 379.935584 307.584 
L 383.027532 307.584 
L 386.119481 307.584 
L 389.211429 307.584 
L 392.303377 307.584 
L 395.395325 307.584 
L 398.487273 307.584 
L 398.487273 218.88 
L 398.487273 218.88 
L 395.395325 231.552 
L 392.303377 256.896 
L 389.211429 244.224 
L 386.119481 231.552 
L 383.027532 244.224 
L 379.935584 231.552 
L 376.843636 244.224 
L 373.751688 231.552 
L 370.65974 218.88 
L 367.567792 231.552 
L 364.475844 231.552 
L 361.383896 231.552 
L 358.291948 244.224 
L 355.2 231.552 
L 352.108052 218.88 
L 349.016104 244.224 
L 345.924156 256.896 
L 342.832208 244.224 
L 339.74026 231.552 
L 336.648312 218.88 
L 333.556364 231.552 
L 330.464416 218.88 
L 327.372468 231.552 
L 324.280519 244.224 
L 321.188571 231.552 
L 318.096623 244.224 
L 315.004675 231.552 
L 311.912727 218.88 
L 308.820779 231.552 
L 305.728831 206.208 
L 302.636883 206.208 
L 299.544935 231.552 
L 296.452987 206.208 
L 293.361039 206.208 
L 290.269091 206.208 
L 287.177143 231.552 
L 284.085195 218.88 
L 280.993247 218.88 
L 277.901299 231.552 
L 274.809351 231.552 
L 271.717403 218.88 
L 268.625455 218.88 
L 265.533506 206.208 
L 262.441558 206.208 
L 259.34961 206.208 
L 256.257662 206.208 
L 253.165714 206.208 
L 250.073766 206.208 
L 246.981818 231.552 
L 243.88987 206.208 
L 240.797922 206.208 
L 237.705974 206.208 
L 234.614026 193.536 
L 231.522078 206.208 
L 228.43013 231.552 
L 225.338182 206.208 
L 222.246234 206.208 
L 219.154286 231.552 
L 216.062338 206.208 
L 212.97039 218.88 
L 209.878442 218.88 
L 206.786494 206.208 
L 203.694545 218.88 
L 200.602597 244.224 
L 197.510649 218.88 
L 194.418701 218.88 
L 191.326753 218.88 
L 188.234805 218.88 
L 185.142857 218.88 
L 182.050909 244.224 
L 178.958961 218.88 
L 175.867013 193.536 
L 172.775065 231.552 
L 169.683117 256.896 
L 166.591169 231.552 
L 163.499221 244.224 
L 160.407273 218.88 
L 157.315325 231.552 
L 154.223377 218.88 
L 151.131429 231.552 
L 148.039481 231.552 
L 144.947532 206.208 
L 141.855584 180.864 
L 138.763636 155.52 
L 135.671688 155.52 
L 132.57974 155.52 
L 129.487792 155.52 
L 126.395844 155.52 
L 123.303896 155.52 
L 120.211948 155.52 
L 117.12 155.52 
L 114.028052 155.52 
L 110.936104 155.52 
L 107.844156 155.52 
L 104.752208 155.52 
L 101.66026 155.52 
L 98.568312 155.52 
L 95.476364 155.52 
L 92.384416 155.52 
L 89.292468 155.52 
L 86.200519 155.52 
L 83.108571 155.52 
L 80.016623 155.52 
L 76.924675 155.52 
L 73.832727 231.552 
z
" clip-path="url(#p4886e04251)" style="fill: #8c564b"/>
   </g>
   <g id="PolyCollection_7">
    <path d="M 73.832727 218.88 
L 73.832727 231.552 
L 76.924675 155.52 
L 80.016623 155.52 
L 83.108571 155.52 
L 86.200519 155.52 
L 89.292468 155.52 
L 92.384416 155.52 
L 95.476364 155.52 
L 98.568312 155.52 
L 101.66026 155.52 
L 104.752208 155.52 
L 107.844156 155.52 
L 110.936104 155.52 
L 114.028052 155.52 
L 117.12 155.52 
L 120.211948 155.52 
L 123.303896 155.52 
L 126.395844 155.52 
L 129.487792 155.52 
L 132.57974 155.52 
L 135.671688 155.52 
L 138.763636 155.52 
L 141.855584 180.864 
L 144.947532 206.208 
L 148.039481 231.552 
L 151.131429 231.552 
L 154.223377 218.88 
L 157.315325 231.552 
L 160.407273 218.88 
L 163.499221 244.224 
L 166.591169 231.552 
L 169.683117 256.896 
L 172.775065 231.552 
L 175.867013 193.536 
L 178.958961 218.88 
L 182.050909 244.224 
L 185.142857 218.88 
L 188.234805 218.88 
L 191.326753 218.88 
L 194.418701 218.88 
L 197.510649 218.88 
L 200.602597 244.224 
L 203.694545 218.88 
L 206.786494 206.208 
L 209.878442 218.88 
L 212.97039 218.88 
L 216.062338 206.208 
L 219.154286 231.552 
L 222.246234 206.208 
L 225.338182 206.208 
L 228.43013 231.552 
L 231.522078 206.208 
L 234.614026 193.536 
L 237.705974 206.208 
L 240.797922 206.208 
L 243.88987 206.208 
L 246.981818 231.552 
L 250.073766 206.208 
L 253.165714 206.208 
L 256.257662 206.208 
L 259.34961 206.208 
L 262.441558 206.208 
L 265.533506 206.208 
L 268.625455 218.88 
L 271.717403 218.88 
L 274.809351 231.552 
L 277.901299 231.552 
L 280.993247 218.88 
L 284.085195 218.88 
L 287.177143 231.552 
L 290.269091 206.208 
L 293.361039 206.208 
L 296.452987 206.208 
L 299.544935 231.552 
L 302.636883 206.208 
L 305.728831 206.208 
L 308.820779 231.552 
L 311.912727 218.88 
L 315.004675 231.552 
L 318.096623 244.224 
L 321.188571 231.552 
L 324.280519 244.224 
L 327.372468 231.552 
L 330.464416 218.88 
L 333.556364 231.552 
L 336.648312 218.88 
L 339.74026 231.552 
L 342.832208 244.224 
L 345.924156 256.896 
L 349.016104 244.224 
L 352.108052 218.88 
L 355.2 231.552 
L 358.291948 244.224 
L 361.383896 231.552 
L 364.475844 231.552 
L 367.567792 231.552 
L 370.65974 218.88 
L 373.751688 231.552 
L 376.843636 244.224 
L 379.935584 231.552 
L 383.027532 244.224 
L 386.119481 231.552 
L 389.211429 244.224 
L 392.303377 256.896 
L 395.395325 231.552 
L 398.487273 218.88 
L 398.487273 218.88 
L 398.487273 218.88 
L 395.395325 231.552 
L 392.303377 256.896 
L 389.211429 244.224 
L 386.119481 231.552 
L 383.027532 244.224 
L 379.935584 231.552 
L 376.843636 244.224 
L 373.751688 231.552 
L 370.65974 218.88 
L 367.567792 231.552 
L 364.475844 231.552 
L 361.383896 231.552 
L 358.291948 244.224 
L 355.2 231.552 
L 352.108052 218.88 
L 349.016104 244.224 
L 345.924156 256.896 
L 342.832208 244.224 
L 339.74026 231.552 
L 336.648312 218.88 
L 333.556364 231.552 
L 330.464416 218.88 
L 327.372468 231.552 
L 324.280519 244.224 
L 321.188571 231.552 
L 318.096623 244.224 
L 315.004675 231.552 
L 311.912727 218.88 
L 308.820779 231.552 
L 305.728831 206.208 
L 302.636883 206.208 
L 299.544935 231.552 
L 296.452987 206.208 
L 293.361039 206.208 
L 290.269091 206.208 
L 287.177143 231.552 
L 284.085195 218.88 
L 280.993247 218.88 
L 277.901299 231.552 
L 274.809351 231.552 
L 271.717403 218.88 
L 268.625455 218.88 
L 265.533506 206.208 
L 262.441558 206.208 
L 259.34961 206.208 
L 256.257662 206.208 
L 253.165714 206.208 
L 250.073766 206.208 
L 246.981818 231.552 
L 243.88987 206.208 
L 240.797922 206.208 
L 237.705974 206.208 
L 234.614026 193.536 
L 231.522078 206.208 
L 228.43013 231.552 
L 225.338182 206.208 
L 222.246234 206.208 
L 219.154286 231.552 
L 216.062338 206.208 
L 212.97039 218.88 
L 209.878442 218.88 
L 206.786494 206.208 
L 203.694545 218.88 
L 200.602597 244.224 
L 197.510649 218.88 
L 194.418701 218.88 
L 191.326753 218.88 
L 188.234805 218.88 
L 185.142857 218.88 
L 182.050909 244.224 
L 178.958961 218.88 
L 175.867013 193.536 
L 172.775065 231.552 
L 169.683117 256.896 
L 166.591169 231.552 
L 163.499221 244.224 
L 160.407273 218.88 
L 157.315325 231.552 
L 154.223377 218.88 
L 151.131429 206.208 
L 148.039481 206.208 
L 144.947532 180.864 
L 141.855584 155.52 
L 138.763636 130.176 
L 135.671688 130.176 
L 132.57974 130.176 
L 129.487792 130.176 
L 126.395844 130.176 
L 123.303896 130.176 
L 120.211948 130.176 
L 117.12 130.176 
L 114.028052 130.176 
L 110.936104 130.176 
L 107.844156 130.176 
L 104.752208 130.176 
L 101.66026 130.176 
L 98.568312 130.176 
L 95.476364 130.176 
L 92.384416 130.176 
L 89.292468 130.176 
L 86.200519 130.176 
L 83.108571 130.176 
L 80.016623 130.176 
L 76.924675 130.176 
L 73.832727 218.88 
z
" clip-path="url(#p4886e04251)" style="fill: #e377c2"/>
   </g>
   <g id="PolyCollection_8">
    <path d="M 73.832727 206.208 
L 73.832727 218.88 
L 76.924675 130.176 
L 80.016623 130.176 
L 83.108571 130.176 
L 86.200519 130.176 
L 89.292468 130.176 
L 92.384416 130.176 
L 95.476364 130.176 
L 98.568312 130.176 
L 101.66026 130.176 
L 104.752208 130.176 
L 107.844156 130.176 
L 110.936104 130.176 
L 114.028052 130.176 
L 117.12 130.176 
L 120.211948 130.176 
L 123.303896 130.176 
L 126.395844 130.176 
L 129.487792 130.176 
L 132.57974 130.176 
L 135.671688 130.176 
L 138.763636 130.176 
L 141.855584 155.52 
L 144.947532 180.864 
L 148.039481 206.208 
L 151.131429 206.208 
L 154.223377 218.88 
L 157.315325 231.552 
L 160.407273 218.88 
L 163.499221 244.224 
L 166.591169 231.552 
L 169.683117 256.896 
L 172.775065 231.552 
L 175.867013 193.536 
L 178.958961 218.88 
L 182.050909 244.224 
L 185.142857 218.88 
L 188.234805 218.88 
L 191.326753 218.88 
L 194.418701 218.88 
L 197.510649 218.88 
L 200.602597 244.224 
L 203.694545 218.88 
L 206.786494 206.208 
L 209.878442 218.88 
L 212.97039 218.88 
L 216.062338 206.208 
L 219.154286 231.552 
L 222.246234 206.208 
L 225.338182 206.208 
L 228.43013 231.552 
L 231.522078 206.208 
L 234.614026 193.536 
L 237.705974 206.208 
L 240.797922 206.208 
L 243.88987 206.208 
L 246.981818 231.552 
L 250.073766 206.208 
L 253.165714 206.208 
L 256.257662 206.208 
L 259.34961 206.208 
L 262.441558 206.208 
L 265.533506 206.208 
L 268.625455 218.88 
L 271.717403 218.88 
L 274.809351 231.552 
L 277.901299 231.552 
L 280.993247 218.88 
L 284.085195 218.88 
L 287.177143 231.552 
L 290.269091 206.208 
L 293.361039 206.208 
L 296.452987 206.208 
L 299.544935 231.552 
L 302.636883 206.208 
L 305.728831 206.208 
L 308.820779 231.552 
L 311.912727 218.88 
L 315.004675 231.552 
L 318.096623 244.224 
L 321.188571 231.552 
L 324.280519 244.224 
L 327.372468 231.552 
L 330.464416 218.88 
L 333.556364 231.552 
L 336.648312 218.88 
L 339.74026 231.552 
L 342.832208 244.224 
L 345.924156 256.896 
L 349.016104 244.224 
L 352.108052 218.88 
L 355.2 231.552 
L 358.291948 244.224 
L 361.383896 231.552 
L 364.475844 231.552 
L 367.567792 231.552 
L 370.65974 218.88 
L 373.751688 231.552 
L 376.843636 244.224 
L 379.935584 231.552 
L 383.027532 244.224 
L 386.119481 231.552 
L 389.211429 244.224 
L 392.303377 256.896 
L 395.395325 231.552 
L 398.487273 218.88 
L 398.487273 218.88 
L 398.487273 218.88 
L 395.395325 231.552 
L 392.303377 256.896 
L 389.211429 244.224 
L 386.119481 231.552 
L 383.027532 244.224 
L 379.935584 231.552 
L 376.843636 244.224 
L 373.751688 231.552 
L 370.65974 218.88 
L 367.567792 231.552 
L 364.475844 231.552 
L 361.383896 231.552 
L 358.291948 244.224 
L 355.2 231.552 
L 352.108052 218.88 
L 349.016104 244.224 
L 345.924156 256.896 
L 342.832208 244.224 
L 339.74026 231.552 
L 336.648312 218.88 
L 333.556364 231.552 
L 330.464416 218.88 
L 327.372468 231.552 
L 324.280519 244.224 
L 321.188571 231.552 
L 318.096623 244.224 
L 315.004675 231.552 
L 311.912727 218.88 
L 308.820779 231.552 
L 305.728831 206.208 
L 302.636883 206.208 
L 299.544935 231.552 
L 296.452987 206.208 
L 293.361039 206.208 
L 290.269091 206.208 
L 287.177143 231.552 
L 284.085195 218.88 
L 280.993247 218.88 
L 277.901299 231.552 
L 274.809351 231.552 
L 271.717403 218.88 
L 268.625455 218.88 
L 265.533506 206.208 
L 262.441558 206.208 
L 259.34961 206.208 
L 256.257662 206.208 
L 253.165714 206.208 
L 250.073766 206.208 
L 246.981818 231.552 
L 243.88987 206.208 
L 240.797922 206.208 
L 237.705974 206.208 
L 234.614026 193.536 
L 231.522078 206.208 
L 228.43013 231.552 
L 225.338182 206.208 
L 222.246234 206.208 
L 219.154286 231.552 
L 216.062338 206.208 
L 212.97039 218.88 
L 209.878442 218.88 
L 206.786494 206.208 
L 203.694545 218.88 
L 200.602597 244.224 
L 197.510649 218.88 
L 194.418701 218.88 
L 191.326753 218.88 
L 188.234805 218.88 
L 185.142857 218.88 
L 182.050909 244.224 
L 178.958961 218.88 
L 175.867013 193.536 
L 172.775065 231.552 
L 169.683117 256.896 
L 166.591169 231.552 
L 163.499221 244.224 
L 160.407273 218.88 
L 157.315325 231.552 
L 154.223377 218.88 
L 151.131429 180.864 
L 148.039481 180.864 
L 144.947532 155.52 
L 141.855584 130.176 
L 138.763636 104.832 
L 135.671688 104.832 
L 132.57974 104.832 
L 129.487792 104.832 
L 126.395844 104.832 
L 123.303896 104.832 
L 120.211948 104.832 
L 117.12 104.832 
L 114.028052 104.832 
L 110.936104 104.832 
L 107.844156 104.832 
L 104.752208 104.832 
L 101.66026 104.832 
L 98.568312 104.832 
L 95.476364 104.832 
L 92.384416 104.832 
L 89.292468 104.832 
L 86.200519 104.832 
L 83.108571 104.832 
L 80.016623 104.832 
L 76.924675 104.832 
L 73.832727 206.208 
z
" clip-path="url(#p4886e04251)" style="fill: #7f7f7f"/>
   </g>
   <g id="PolyCollection_9">
    <path d="M 73.832727 193.536 
L 73.832727 206.208 
L 76.924675 104.832 
L 80.016623 104.832 
L 83.108571 104.832 
L 86.200519 104.832 
L 89.292468 104.832 
L 92.384416 104.832 
L 95.476364 104.832 
L 98.568312 104.832 
L 101.66026 104.832 
L 104.752208 104.832 
L 107.844156 104.832 
L 110.936104 104.832 
L 114.028052 104.832 
L 117.12 104.832 
L 120.211948 104.832 
L 123.303896 104.832 
L 126.395844 104.832 
L 129.487792 104.832 
L 132.57974 104.832 
L 135.671688 104.832 
L 138.763636 104.832 
L 141.855584 130.176 
L 144.947532 155.52 
L 148.039481 180.864 
L 151.131429 180.864 
L 154.223377 218.88 
L 157.315325 231.552 
L 160.407273 218.88 
L 163.499221 244.224 
L 166.591169 231.552 
L 169.683117 256.896 
L 172.775065 231.552 
L 175.867013 193.536 
L 178.958961 218.88 
L 182.050909 244.224 
L 185.142857 218.88 
L 188.234805 218.88 
L 191.326753 218.88 
L 194.418701 218.88 
L 197.510649 218.88 
L 200.602597 244.224 
L 203.694545 218.88 
L 206.786494 206.208 
L 209.878442 218.88 
L 212.97039 218.88 
L 216.062338 206.208 
L 219.154286 231.552 
L 222.246234 206.208 
L 225.338182 206.208 
L 228.43013 231.552 
L 231.522078 206.208 
L 234.614026 193.536 
L 237.705974 206.208 
L 240.797922 206.208 
L 243.88987 206.208 
L 246.981818 231.552 
L 250.073766 206.208 
L 253.165714 206.208 
L 256.257662 206.208 
L 259.34961 206.208 
L 262.441558 206.208 
L 265.533506 206.208 
L 268.625455 218.88 
L 271.717403 218.88 
L 274.809351 231.552 
L 277.901299 231.552 
L 280.993247 218.88 
L 284.085195 218.88 
L 287.177143 231.552 
L 290.269091 206.208 
L 293.361039 206.208 
L 296.452987 206.208 
L 299.544935 231.552 
L 302.636883 206.208 
L 305.728831 206.208 
L 308.820779 231.552 
L 311.912727 218.88 
L 315.004675 231.552 
L 318.096623 244.224 
L 321.188571 231.552 
L 324.280519 244.224 
L 327.372468 231.552 
L 330.464416 218.88 
L 333.556364 231.552 
L 336.648312 218.88 
L 339.74026 231.552 
L 342.832208 244.224 
L 345.924156 256.896 
L 349.016104 244.224 
L 352.108052 218.88 
L 355.2 231.552 
L 358.291948 244.224 
L 361.383896 231.552 
L 364.475844 231.552 
L 367.567792 231.552 
L 370.65974 218.88 
L 373.751688 231.552 
L 376.843636 244.224 
L 379.935584 231.552 
L 383.027532 244.224 
L 386.119481 231.552 
L 389.211429 244.224 
L 392.303377 256.896 
L 395.395325 231.552 
L 398.487273 218.88 
L 398.487273 180.864 
L 398.487273 180.864 
L 395.395325 180.864 
L 392.303377 180.864 
L 389.211429 180.864 
L 386.119481 180.864 
L 383.027532 180.864 
L 379.935584 180.864 
L 376.843636 180.864 
L 373.751688 180.864 
L 370.65974 180.864 
L 367.567792 180.864 
L 364.475844 180.864 
L 361.383896 180.864 
L 358.291948 180.864 
L 355.2 180.864 
L 352.108052 180.864 
L 349.016104 180.864 
L 345.924156 180.864 
L 342.832208 180.864 
L 339.74026 180.864 
L 336.648312 180.864 
L 333.556364 180.864 
L 330.464416 180.864 
L 327.372468 180.864 
L 324.280519 180.864 
L 321.188571 180.864 
L 318.096623 180.864 
L 315.004675 180.864 
L 311.912727 180.864 
L 308.820779 180.864 
L 305.728831 180.864 
L 302.636883 180.864 
L 299.544935 193.536 
L 296.452987 180.864 
L 293.361039 168.192 
L 290.269091 180.864 
L 287.177143 193.536 
L 284.085195 180.864 
L 280.993247 193.536 
L 277.901299 193.536 
L 274.809351 193.536 
L 271.717403 180.864 
L 268.625455 168.192 
L 265.533506 180.864 
L 262.441558 180.864 
L 259.34961 180.864 
L 256.257662 180.864 
L 253.165714 180.864 
L 250.073766 180.864 
L 246.981818 193.536 
L 243.88987 180.864 
L 240.797922 180.864 
L 237.705974 180.864 
L 234.614026 180.864 
L 231.522078 180.864 
L 228.43013 193.536 
L 225.338182 180.864 
L 222.246234 180.864 
L 219.154286 193.536 
L 216.062338 180.864 
L 212.97039 180.864 
L 209.878442 180.864 
L 206.786494 180.864 
L 203.694545 193.536 
L 200.602597 218.88 
L 197.510649 193.536 
L 194.418701 193.536 
L 191.326753 193.536 
L 188.234805 193.536 
L 185.142857 193.536 
L 182.050909 218.88 
L 178.958961 193.536 
L 175.867013 180.864 
L 172.775065 206.208 
L 169.683117 231.552 
L 166.591169 206.208 
L 163.499221 206.208 
L 160.407273 206.208 
L 157.315325 193.536 
L 154.223377 193.536 
L 151.131429 155.52 
L 148.039481 155.52 
L 144.947532 130.176 
L 141.855584 104.832 
L 138.763636 79.488 
L 135.671688 79.488 
L 132.57974 79.488 
L 129.487792 79.488 
L 126.395844 79.488 
L 123.303896 79.488 
L 120.211948 79.488 
L 117.12 79.488 
L 114.028052 79.488 
L 110.936104 79.488 
L 107.844156 79.488 
L 104.752208 79.488 
L 101.66026 79.488 
L 98.568312 79.488 
L 95.476364 79.488 
L 92.384416 79.488 
L 89.292468 79.488 
L 86.200519 79.488 
L 83.108571 79.488 
L 80.016623 79.488 
L 76.924675 92.16 
L 73.832727 193.536 
z
" clip-path="url(#p4886e04251)" style="fill: #bcbd22"/>
   </g>
   <g id="PolyCollection_10">
    <path d="M 73.832727 180.864 
L 73.832727 193.536 
L 76.924675 92.16 
L 80.016623 79.488 
L 83.108571 79.488 
L 86.200519 79.488 
L 89.292468 79.488 
L 92.384416 79.488 
L 95.476364 79.488 
L 98.568312 79.488 
L 101.66026 79.488 
L 104.752208 79.488 
L 107.844156 79.488 
L 110.936104 79.488 
L 114.028052 79.488 
L 117.12 79.488 
L 120.211948 79.488 
L 123.303896 79.488 
L 126.395844 79.488 
L 129.487792 79.488 
L 132.57974 79.488 
L 135.671688 79.488 
L 138.763636 79.488 
L 141.855584 104.832 
L 144.947532 130.176 
L 148.039481 155.52 
L 151.131429 155.52 
L 154.223377 193.536 
L 157.315325 193.536 
L 160.407273 206.208 
L 163.499221 206.208 
L 166.591169 206.208 
L 169.683117 231.552 
L 172.775065 206.208 
L 175.867013 180.864 
L 178.958961 193.536 
L 182.050909 218.88 
L 185.142857 193.536 
L 188.234805 193.536 
L 191.326753 193.536 
L 194.418701 193.536 
L 197.510649 193.536 
L 200.602597 218.88 
L 203.694545 193.536 
L 206.786494 180.864 
L 209.878442 180.864 
L 212.97039 180.864 
L 216.062338 180.864 
L 219.154286 193.536 
L 222.246234 180.864 
L 225.338182 180.864 
L 228.43013 193.536 
L 231.522078 180.864 
L 234.614026 180.864 
L 237.705974 180.864 
L 240.797922 180.864 
L 243.88987 180.864 
L 246.981818 193.536 
L 250.073766 180.864 
L 253.165714 180.864 
L 256.257662 180.864 
L 259.34961 180.864 
L 262.441558 180.864 
L 265.533506 180.864 
L 268.625455 168.192 
L 271.717403 180.864 
L 274.809351 193.536 
L 277.901299 193.536 
L 280.993247 193.536 
L 284.085195 180.864 
L 287.177143 193.536 
L 290.269091 180.864 
L 293.361039 168.192 
L 296.452987 180.864 
L 299.544935 193.536 
L 302.636883 180.864 
L 305.728831 180.864 
L 308.820779 180.864 
L 311.912727 180.864 
L 315.004675 180.864 
L 318.096623 180.864 
L 321.188571 180.864 
L 324.280519 180.864 
L 327.372468 180.864 
L 330.464416 180.864 
L 333.556364 180.864 
L 336.648312 180.864 
L 339.74026 180.864 
L 342.832208 180.864 
L 345.924156 180.864 
L 349.016104 180.864 
L 352.108052 180.864 
L 355.2 180.864 
L 358.291948 180.864 
L 361.383896 180.864 
L 364.475844 180.864 
L 367.567792 180.864 
L 370.65974 180.864 
L 373.751688 180.864 
L 376.843636 180.864 
L 379.935584 180.864 
L 383.027532 180.864 
L 386.119481 180.864 
L 389.211429 180.864 
L 392.303377 180.864 
L 395.395325 180.864 
L 398.487273 180.864 
L 398.487273 180.864 
L 398.487273 180.864 
L 395.395325 180.864 
L 392.303377 180.864 
L 389.211429 180.864 
L 386.119481 180.864 
L 383.027532 180.864 
L 379.935584 180.864 
L 376.843636 180.864 
L 373.751688 180.864 
L 370.65974 180.864 
L 367.567792 180.864 
L 364.475844 180.864 
L 361.383896 180.864 
L 358.291948 180.864 
L 355.2 180.864 
L 352.108052 180.864 
L 349.016104 180.864 
L 345.924156 180.864 
L 342.832208 180.864 
L 339.74026 180.864 
L 336.648312 180.864 
L 333.556364 180.864 
L 330.464416 180.864 
L 327.372468 180.864 
L 324.280519 180.864 
L 321.188571 180.864 
L 318.096623 180.864 
L 315.004675 180.864 
L 311.912727 180.864 
L 308.820779 180.864 
L 305.728831 180.864 
L 302.636883 180.864 
L 299.544935 193.536 
L 296.452987 180.864 
L 293.361039 168.192 
L 290.269091 180.864 
L 287.177143 193.536 
L 284.085195 180.864 
L 280.993247 193.536 
L 277.901299 193.536 
L 274.809351 193.536 
L 271.717403 180.864 
L 268.625455 168.192 
L 265.533506 180.864 
L 262.441558 180.864 
L 259.34961 180.864 
L 256.257662 180.864 
L 253.165714 180.864 
L 250.073766 180.864 
L 246.981818 193.536 
L 243.88987 180.864 
L 240.797922 180.864 
L 237.705974 180.864 
L 234.614026 180.864 
L 231.522078 180.864 
L 228.43013 193.536 
L 225.338182 180.864 
L 222.246234 180.864 
L 219.154286 193.536 
L 216.062338 180.864 
L 212.97039 180.864 
L 209.878442 180.864 
L 206.786494 180.864 
L 203.694545 168.192 
L 200.602597 193.536 
L 197.510649 168.192 
L 194.418701 168.192 
L 191.326753 168.192 
L 188.234805 168.192 
L 185.142857 168.192 
L 182.050909 193.536 
L 178.958961 168.192 
L 175.867013 168.192 
L 172.775065 180.864 
L 169.683117 206.208 
L 166.591169 180.864 
L 163.499221 180.864 
L 160.407273 180.864 
L 157.315325 168.192 
L 154.223377 168.192 
L 151.131429 130.176 
L 148.039481 130.176 
L 144.947532 104.832 
L 141.855584 79.488 
L 138.763636 54.144 
L 135.671688 54.144 
L 132.57974 54.144 
L 129.487792 54.144 
L 126.395844 54.144 
L 123.303896 54.144 
L 120.211948 54.144 
L 117.12 54.144 
L 114.028052 54.144 
L 110.936104 54.144 
L 107.844156 54.144 
L 104.752208 54.144 
L 101.66026 54.144 
L 98.568312 54.144 
L 95.476364 54.144 
L 92.384416 54.144 
L 89.292468 54.144 
L 86.200519 54.144 
L 83.108571 54.144 
L 80.016623 54.144 
L 76.924675 54.144 
L 73.832727 180.864 
z
" clip-path="url(#p4886e04251)" style="fill: #17becf"/>
   </g>
   <g id="matplotlib.axis_1">
    <g id="xtick_1">
     <g id="line2d_1">
      <defs>
       <path id="mebea69ee2d" d="M 0 0 
L 0 3.5 
" style="stroke: #000000; stroke-width: 0.8"/>
      </defs>
      <g>
       <use xlink:href="#mebea69ee2d" x="73.832727" y="307.584" style="stroke: #000000; stroke-width: 0.8"/>
      </g>
     </g>
     <g id="text_1">
      <!-- 0 -->
      <g transform="translate(70.651477 322.182437)scale(0.1 -0.1)">
       <defs>
        <path id="DejaVuSans-30" d="M 2034 4250 
Q 1547 4250 1301 3770 
Q 1056 3291 1056 2328 
Q 1056 1369 1301 889 
Q 1547 409 2034 409 
Q 2525 409 2770 889 
Q 3016 1369 3016 2328 
Q 3016 3291 2770 3770 
Q 2525 4250 2034 4250 
z
M 2034 4750 
Q 2819 4750 3233 4129 
Q 3647 3509 3647 2328 
Q 3647 1150 3233 529 
Q 2819 -91 2034 -91 
Q 1250 -91 836 529 
Q 422 1150 422 2328 
Q 422 3509 836 4129 
Q 1250 4750 2034 4750 
z
" transform="scale(0.015625)"/>
       </defs>
       <use xlink:href="#DejaVuSans-30"/>
      </g>
     </g>
    </g>
    <g id="xtick_2">
     <g id="line2d_2">
      <g>
       <use xlink:href="#mebea69ee2d" x="135.671688" y="307.584" style="stroke: #000000; stroke-width: 0.8"/>
      </g>
     </g>
     <g id="text_2">
      <!-- 20 -->
      <g transform="translate(129.309188 322.182437)scale(0.1 -0.1)">
       <defs>
        <path id="DejaVuSans-32" d="M 1228 531 
L 3431 531 
L 3431 0 
L 469 0 
L 469 531 
Q 828 903 1448 1529 
Q 2069 2156 2228 2338 
Q 2531 2678 2651 2914 
Q 2772 3150 2772 3378 
Q 2772 3750 2511 3984 
Q 2250 4219 1831 4219 
Q 1534 4219 1204 4116 
Q 875 4013 500 3803 
L 500 4441 
Q 881 4594 1212 4672 
Q 1544 4750 1819 4750 
Q 2544 4750 2975 4387 
Q 3406 4025 3406 3419 
Q 3406 3131 3298 2873 
Q 3191 2616 2906 2266 
Q 2828 2175 2409 1742 
Q 1991 1309 1228 531 
z
" transform="scale(0.015625)"/>
       </defs>
       <use xlink:href="#DejaVuSans-32"/>
       <use xlink:href="#DejaVuSans-30" x="63.623047"/>
      </g>
     </g>
    </g>
    <g id="xtick_3">
     <g id="line2d_3">
      <g>
       <use xlink:href="#mebea69ee2d" x="197.510649" y="307.584" style="stroke: #000000; stroke-width: 0.8"/>
      </g>
     </g>
     <g id="text_3">
      <!-- 40 -->
      <g transform="translate(191.148149 322.182437)scale(0.1 -0.1)">
       <defs>
        <path id="DejaVuSans-34" d="M 2419 4116 
L 825 1625 
L 2419 1625 
L 2419 4116 
z
M 2253 4666 
L 3047 4666 
L 3047 1625 
L 3713 1625 
L 3713 1100 
L 3047 1100 
L 3047 0 
L 2419 0 
L 2419 1100 
L 313 1100 
L 313 1709 
L 2253 4666 
z
" transform="scale(0.015625)"/>
       </defs>
       <use xlink:href="#DejaVuSans-34"/>
       <use xlink:href="#DejaVuSans-30" x="63.623047"/>
      </g>
     </g>
    </g>
    <g id="xtick_4">
     <g id="line2d_4">
      <g>
       <use xlink:href="#mebea69ee2d" x="259.34961" y="307.584" style="stroke: #000000; stroke-width: 0.8"/>
      </g>
     </g>
     <g id="text_4">
      <!-- 60 -->
      <g transform="translate(252.98711 322.182437)scale(0.1 -0.1)">
       <defs>
        <path id="DejaVuSans-36" d="M 2113 2584 
Q 1688 2584 1439 2293 
Q 1191 2003 1191 1497 
Q 1191 994 1439 701 
Q 1688 409 2113 409 
Q 2538 409 2786 701 
Q 3034 994 3034 1497 
Q 3034 2003 2786 2293 
Q 2538 2584 2113 2584 
z
M 3366 4563 
L 3366 3988 
Q 3128 4100 2886 4159 
Q 2644 4219 2406 4219 
Q 1781 4219 1451 3797 
Q 1122 3375 1075 2522 
Q 1259 2794 1537 2939 
Q 1816 3084 2150 3084 
Q 2853 3084 3261 2657 
Q 3669 2231 3669 1497 
Q 3669 778 3244 343 
Q 2819 -91 2113 -91 
Q 1303 -91 875 529 
Q 447 1150 447 2328 
Q 447 3434 972 4092 
Q 1497 4750 2381 4750 
Q 2619 4750 2861 4703 
Q 3103 4656 3366 4563 
z
" transform="scale(0.015625)"/>
       </defs>
       <use xlink:href="#DejaVuSans-36"/>
       <use xlink:href="#DejaVuSans-30" x="63.623047"/>
      </g>
     </g>
    </g>
    <g id="xtick_5">
     <g id="line2d_5">
      <g>
       <use xlink:href="#mebea69ee2d" x="321.188571" y="307.584" style="stroke: #000000; stroke-width: 0.8"/>
      </g>
     </g>
     <g id="text_5">
      <!-- 80 -->
      <g transform="translate(314.826071 322.182437)scale(0.1 -0.1)">
       <defs>
        <path id="DejaVuSans-38" d="M 2034 2216 
Q 1584 2216 1326 1975 
Q 1069 1734 1069 1313 
Q 1069 891 1326 650 
Q 1584 409 2034 409 
Q 2484 409 2743 651 
Q 3003 894 3003 1313 
Q 3003 1734 2745 1975 
Q 2488 2216 2034 2216 
z
M 1403 2484 
Q 997 2584 770 2862 
Q 544 3141 544 3541 
Q 544 4100 942 4425 
Q 1341 4750 2034 4750 
Q 2731 4750 3128 4425 
Q 3525 4100 3525 3541 
Q 3525 3141 3298 2862 
Q 3072 2584 2669 2484 
Q 3125 2378 3379 2068 
Q 3634 1759 3634 1313 
Q 3634 634 3220 271 
Q 2806 -91 2034 -91 
Q 1263 -91 848 271 
Q 434 634 434 1313 
Q 434 1759 690 2068 
Q 947 2378 1403 2484 
z
M 1172 3481 
Q 1172 3119 1398 2916 
Q 1625 2713 2034 2713 
Q 2441 2713 2670 2916 
Q 2900 3119 2900 3481 
Q 2900 3844 2670 4047 
Q 2441 4250 2034 4250 
Q 1625 4250 1398 4047 
Q 1172 3844 1172 3481 
z
" transform="scale(0.015625)"/>
       </defs>
       <use xlink:href="#DejaVuSans-38"/>
       <use xlink:href="#DejaVuSans-30" x="63.623047"/>
      </g>
     </g>
    </g>
    <g id="xtick_6">
     <g id="line2d_6">
      <g>
       <use xlink:href="#mebea69ee2d" x="383.027532" y="307.584" style="stroke: #000000; stroke-width: 0.8"/>
      </g>
     </g>
     <g id="text_6">
      <!-- 100 -->
      <g transform="translate(373.483782 322.182437)scale(0.1 -0.1)">
       <defs>
        <path id="DejaVuSans-31" d="M 794 531 
L 1825 531 
L 1825 4091 
L 703 3866 
L 703 4441 
L 1819 4666 
L 2450 4666 
L 2450 531 
L 3481 531 
L 3481 0 
L 794 0 
L 794 531 
z
" transform="scale(0.015625)"/>
       </defs>
       <use xlink:href="#DejaVuSans-31"/>
       <use xlink:href="#DejaVuSans-30" x="63.623047"/>
       <use xlink:href="#DejaVuSans-30" x="127.246094"/>
      </g>
     </g>
    </g>
    <g id="text_7">
     <!-- Generations -->
     <g transform="translate(205.662344 335.860562)scale(0.1 -0.1)">
      <defs>
       <path id="DejaVuSans-47" d="M 3809 666 
L 3809 1919 
L 2778 1919 
L 2778 2438 
L 4434 2438 
L 4434 434 
Q 4069 175 3628 42 
Q 3188 -91 2688 -91 
Q 1594 -91 976 548 
Q 359 1188 359 2328 
Q 359 3472 976 4111 
Q 1594 4750 2688 4750 
Q 3144 4750 3555 4637 
Q 3966 4525 4313 4306 
L 4313 3634 
Q 3963 3931 3569 4081 
Q 3175 4231 2741 4231 
Q 1884 4231 1454 3753 
Q 1025 3275 1025 2328 
Q 1025 1384 1454 906 
Q 1884 428 2741 428 
Q 3075 428 3337 486 
Q 3600 544 3809 666 
z
" transform="scale(0.015625)"/>
       <path id="DejaVuSans-65" d="M 3597 1894 
L 3597 1613 
L 953 1613 
Q 991 1019 1311 708 
Q 1631 397 2203 397 
Q 2534 397 2845 478 
Q 3156 559 3463 722 
L 3463 178 
Q 3153 47 2828 -22 
Q 2503 -91 2169 -91 
Q 1331 -91 842 396 
Q 353 884 353 1716 
Q 353 2575 817 3079 
Q 1281 3584 2069 3584 
Q 2775 3584 3186 3129 
Q 3597 2675 3597 1894 
z
M 3022 2063 
Q 3016 2534 2758 2815 
Q 2500 3097 2075 3097 
Q 1594 3097 1305 2825 
Q 1016 2553 972 2059 
L 3022 2063 
z
" transform="scale(0.015625)"/>
       <path id="DejaVuSans-6e" d="M 3513 2113 
L 3513 0 
L 2938 0 
L 2938 2094 
Q 2938 2591 2744 2837 
Q 2550 3084 2163 3084 
Q 1697 3084 1428 2787 
Q 1159 2491 1159 1978 
L 1159 0 
L 581 0 
L 581 3500 
L 1159 3500 
L 1159 2956 
Q 1366 3272 1645 3428 
Q 1925 3584 2291 3584 
Q 2894 3584 3203 3211 
Q 3513 2838 3513 2113 
z
" transform="scale(0.015625)"/>
       <path id="DejaVuSans-72" d="M 2631 2963 
Q 2534 3019 2420 3045 
Q 2306 3072 2169 3072 
Q 1681 3072 1420 2755 
Q 1159 2438 1159 1844 
L 1159 0 
L 581 0 
L 581 3500 
L 1159 3500 
L 1159 2956 
Q 1341 3275 1631 3429 
Q 1922 3584 2338 3584 
Q 2397 3584 2469 3576 
Q 2541 3569 2628 3553 
L 2631 2963 
z
" transform="scale(0.015625)"/>
       <path id="DejaVuSans-61" d="M 2194 1759 
Q 1497 1759 1228 1600 
Q 959 1441 959 1056 
Q 959 750 1161 570 
Q 1363 391 1709 391 
Q 2188 391 2477 730 
Q 2766 1069 2766 1631 
L 2766 1759 
L 2194 1759 
z
M 3341 1997 
L 3341 0 
L 2766 0 
L 2766 531 
Q 2569 213 2275 61 
Q 1981 -91 1556 -91 
Q 1019 -91 701 211 
Q 384 513 384 1019 
Q 384 1609 779 1909 
Q 1175 2209 1959 2209 
L 2766 2209 
L 2766 2266 
Q 2766 2663 2505 2880 
Q 2244 3097 1772 3097 
Q 1472 3097 1187 3025 
Q 903 2953 641 2809 
L 641 3341 
Q 956 3463 1253 3523 
Q 1550 3584 1831 3584 
Q 2591 3584 2966 3190 
Q 3341 2797 3341 1997 
z
" transform="scale(0.015625)"/>
       <path id="DejaVuSans-74" d="M 1172 4494 
L 1172 3500 
L 2356 3500 
L 2356 3053 
L 1172 3053 
L 1172 1153 
Q 1172 725 1289 603 
Q 1406 481 1766 481 
L 2356 481 
L 2356 0 
L 1766 0 
Q 1100 0 847 248 
Q 594 497 594 1153 
L 594 3053 
L 172 3053 
L 172 3500 
L 594 3500 
L 594 4494 
L 1172 4494 
z
" transform="scale(0.015625)"/>
       <path id="DejaVuSans-69" d="M 603 3500 
L 1178 3500 
L 1178 0 
L 603 0 
L 603 3500 
z
M 603 4863 
L 1178 4863 
L 1178 4134 
L 603 4134 
L 603 4863 
z
" transform="scale(0.015625)"/>
       <path id="DejaVuSans-6f" d="M 1959 3097 
Q 1497 3097 1228 2736 
Q 959 2375 959 1747 
Q 959 1119 1226 758 
Q 1494 397 1959 397 
Q 2419 397 2687 759 
Q 2956 1122 2956 1747 
Q 2956 2369 2687 2733 
Q 2419 3097 1959 3097 
z
M 1959 3584 
Q 2709 3584 3137 3096 
Q 3566 2609 3566 1747 
Q 3566 888 3137 398 
Q 2709 -91 1959 -91 
Q 1206 -91 779 398 
Q 353 888 353 1747 
Q 353 2609 779 3096 
Q 1206 3584 1959 3584 
z
" transform="scale(0.015625)"/>
       <path id="DejaVuSans-73" d="M 2834 3397 
L 2834 2853 
Q 2591 2978 2328 3040 
Q 2066 3103 1784 3103 
Q 1356 3103 1142 2972 
Q 928 2841 928 2578 
Q 928 2378 1081 2264 
Q 1234 2150 1697 2047 
L 1894 2003 
Q 2506 1872 2764 1633 
Q 3022 1394 3022 966 
Q 3022 478 2636 193 
Q 2250 -91 1575 -91 
Q 1294 -91 989 -36 
Q 684 19 347 128 
L 347 722 
Q 666 556 975 473 
Q 1284 391 1588 391 
Q 1994 391 2212 530 
Q 2431 669 2431 922 
Q 2431 1156 2273 1281 
Q 2116 1406 1581 1522 
L 1381 1569 
Q 847 1681 609 1914 
Q 372 2147 372 2553 
Q 372 3047 722 3315 
Q 1072 3584 1716 3584 
Q 2034 3584 2315 3537 
Q 2597 3491 2834 3397 
z
" transform="scale(0.015625)"/>
      </defs>
      <use xlink:href="#DejaVuSans-47"/>
      <use xlink:href="#DejaVuSans-65" x="77.490234"/>
      <use xlink:href="#DejaVuSans-6e" x="139.013672"/>
      <use xlink:href="#DejaVuSans-65" x="202.392578"/>
      <use xlink:href="#DejaVuSans-72" x="263.916016"/>
      <use xlink:href="#DejaVuSans-61" x="305.029297"/>
      <use xlink:href="#DejaVuSans-74" x="366.308594"/>
      <use xlink:href="#DejaVuSans-69" x="405.517578"/>
      <use xlink:href="#DejaVuSans-6f" x="433.300781"/>
      <use xlink:href="#DejaVuSans-6e" x="494.482422"/>
      <use xlink:href="#DejaVuSans-73" x="557.861328"/>
     </g>
    </g>
   </g>
   <g id="matplotlib.axis_2">
    <g id="ytick_1">
     <g id="line2d_7">
      <defs>
       <path id="mdd3d20cc43" d="M 0 0 
L -3.5 0 
" style="stroke: #000000; stroke-width: 0.8"/>
      </defs>
      <g>
       <use xlink:href="#mdd3d20cc43" x="57.6" y="307.584" style="stroke: #000000; stroke-width: 0.8"/>
      </g>
     </g>
     <g id="text_8">
      <!-- 0.0 -->
      <g transform="translate(34.696875 311.383219)scale(0.1 -0.1)">
       <defs>
        <path id="DejaVuSans-2e" d="M 684 794 
L 1344 794 
L 1344 0 
L 684 0 
L 684 794 
z
" transform="scale(0.015625)"/>
       </defs>
       <use xlink:href="#DejaVuSans-30"/>
       <use xlink:href="#DejaVuSans-2e" x="63.623047"/>
       <use xlink:href="#DejaVuSans-30" x="95.410156"/>
      </g>
     </g>
    </g>
    <g id="ytick_2">
     <g id="line2d_8">
      <g>
       <use xlink:href="#mdd3d20cc43" x="57.6" y="275.904" style="stroke: #000000; stroke-width: 0.8"/>
      </g>
     </g>
     <g id="text_9">
      <!-- 2.5 -->
      <g transform="translate(34.696875 279.703219)scale(0.1 -0.1)">
       <defs>
        <path id="DejaVuSans-35" d="M 691 4666 
L 3169 4666 
L 3169 4134 
L 1269 4134 
L 1269 2991 
Q 1406 3038 1543 3061 
Q 1681 3084 1819 3084 
Q 2600 3084 3056 2656 
Q 3513 2228 3513 1497 
Q 3513 744 3044 326 
Q 2575 -91 1722 -91 
Q 1428 -91 1123 -41 
Q 819 9 494 109 
L 494 744 
Q 775 591 1075 516 
Q 1375 441 1709 441 
Q 2250 441 2565 725 
Q 2881 1009 2881 1497 
Q 2881 1984 2565 2268 
Q 2250 2553 1709 2553 
Q 1456 2553 1204 2497 
Q 953 2441 691 2322 
L 691 4666 
z
" transform="scale(0.015625)"/>
       </defs>
       <use xlink:href="#DejaVuSans-32"/>
       <use xlink:href="#DejaVuSans-2e" x="63.623047"/>
       <use xlink:href="#DejaVuSans-35" x="95.410156"/>
      </g>
     </g>
    </g>
    <g id="ytick_3">
     <g id="line2d_9">
      <g>
       <use xlink:href="#mdd3d20cc43" x="57.6" y="244.224" style="stroke: #000000; stroke-width: 0.8"/>
      </g>
     </g>
     <g id="text_10">
      <!-- 5.0 -->
      <g transform="translate(34.696875 248.023219)scale(0.1 -0.1)">
       <use xlink:href="#DejaVuSans-35"/>
       <use xlink:href="#DejaVuSans-2e" x="63.623047"/>
       <use xlink:href="#DejaVuSans-30" x="95.410156"/>
      </g>
     </g>
    </g>
    <g id="ytick_4">
     <g id="line2d_10">
      <g>
       <use xlink:href="#mdd3d20cc43" x="57.6" y="212.544" style="stroke: #000000; stroke-width: 0.8"/>
      </g>
     </g>
     <g id="text_11">
      <!-- 7.5 -->
      <g transform="translate(34.696875 216.343219)scale(0.1 -0.1)">
       <defs>
        <path id="DejaVuSans-37" d="M 525 4666 
L 3525 4666 
L 3525 4397 
L 1831 0 
L 1172 0 
L 2766 4134 
L 525 4134 
L 525 4666 
z
" transform="scale(0.015625)"/>
       </defs>
       <use xlink:href="#DejaVuSans-37"/>
       <use xlink:href="#DejaVuSans-2e" x="63.623047"/>
       <use xlink:href="#DejaVuSans-35" x="95.410156"/>
      </g>
     </g>
    </g>
    <g id="ytick_5">
     <g id="line2d_11">
      <g>
       <use xlink:href="#mdd3d20cc43" x="57.6" y="180.864" style="stroke: #000000; stroke-width: 0.8"/>
      </g>
     </g>
     <g id="text_12">
      <!-- 10.0 -->
      <g transform="translate(28.334375 184.663219)scale(0.1 -0.1)">
       <use xlink:href="#DejaVuSans-31"/>
       <use xlink:href="#DejaVuSans-30" x="63.623047"/>
       <use xlink:href="#DejaVuSans-2e" x="127.246094"/>
       <use xlink:href="#DejaVuSans-30" x="159.033203"/>
      </g>
     </g>
    </g>
    <g id="ytick_6">
     <g id="line2d_12">
      <g>
       <use xlink:href="#mdd3d20cc43" x="57.6" y="149.184" style="stroke: #000000; stroke-width: 0.8"/>
      </g>
     </g>
     <g id="text_13">
      <!-- 12.5 -->
      <g transform="translate(28.334375 152.983219)scale(0.1 -0.1)">
       <use xlink:href="#DejaVuSans-31"/>
       <use xlink:href="#DejaVuSans-32" x="63.623047"/>
       <use xlink:href="#DejaVuSans-2e" x="127.246094"/>
       <use xlink:href="#DejaVuSans-35" x="159.033203"/>
      </g>
     </g>
    </g>
    <g id="ytick_7">
     <g id="line2d_13">
      <g>
       <use xlink:href="#mdd3d20cc43" x="57.6" y="117.504" style="stroke: #000000; stroke-width: 0.8"/>
      </g>
     </g>
     <g id="text_14">
      <!-- 15.0 -->
      <g transform="translate(28.334375 121.303219)scale(0.1 -0.1)">
       <use xlink:href="#DejaVuSans-31"/>
       <use xlink:href="#DejaVuSans-35" x="63.623047"/>
       <use xlink:href="#DejaVuSans-2e" x="127.246094"/>
       <use xlink:href="#DejaVuSans-30" x="159.033203"/>
      </g>
     </g>
    </g>
    <g id="ytick_8">
     <g id="line2d_14">
      <g>
       <use xlink:href="#mdd3d20cc43" x="57.6" y="85.824" style="stroke: #000000; stroke-width: 0.8"/>
      </g>
     </g>
     <g id="text_15">
      <!-- 17.5 -->
      <g transform="translate(28.334375 89.623219)scale(0.1 -0.1)">
       <use xlink:href="#DejaVuSans-31"/>
       <use xlink:href="#DejaVuSans-37" x="63.623047"/>
       <use xlink:href="#DejaVuSans-2e" x="127.246094"/>
       <use xlink:href="#DejaVuSans-35" x="159.033203"/>
      </g>
     </g>
    </g>
    <g id="ytick_9">
     <g id="line2d_15">
      <g>
       <use xlink:href="#mdd3d20cc43" x="57.6" y="54.144" style="stroke: #000000; stroke-width: 0.8"/>
      </g>
     </g>
     <g id="text_16">
      <!-- 20.0 -->
      <g transform="translate(28.334375 57.943219)scale(0.1 -0.1)">
       <use xlink:href="#DejaVuSans-32"/>
       <use xlink:href="#DejaVuSans-30" x="63.623047"/>
       <use xlink:href="#DejaVuSans-2e" x="127.246094"/>
       <use xlink:href="#DejaVuSans-30" x="159.033203"/>
      </g>
     </g>
    </g>
    <g id="text_17">
     <!-- Size per Species -->
     <g transform="translate(22.254687 215.520969)rotate(-90)scale(0.1 -0.1)">
      <defs>
       <path id="DejaVuSans-53" d="M 3425 4513 
L 3425 3897 
Q 3066 4069 2747 4153 
Q 2428 4238 2131 4238 
Q 1616 4238 1336 4038 
Q 1056 3838 1056 3469 
Q 1056 3159 1242 3001 
Q 1428 2844 1947 2747 
L 2328 2669 
Q 3034 2534 3370 2195 
Q 3706 1856 3706 1288 
Q 3706 609 3251 259 
Q 2797 -91 1919 -91 
Q 1588 -91 1214 -16 
Q 841 59 441 206 
L 441 856 
Q 825 641 1194 531 
Q 1563 422 1919 422 
Q 2459 422 2753 634 
Q 3047 847 3047 1241 
Q 3047 1584 2836 1778 
Q 2625 1972 2144 2069 
L 1759 2144 
Q 1053 2284 737 2584 
Q 422 2884 422 3419 
Q 422 4038 858 4394 
Q 1294 4750 2059 4750 
Q 2388 4750 2728 4690 
Q 3069 4631 3425 4513 
z
" transform="scale(0.015625)"/>
       <path id="DejaVuSans-7a" d="M 353 3500 
L 3084 3500 
L 3084 2975 
L 922 459 
L 3084 459 
L 3084 0 
L 275 0 
L 275 525 
L 2438 3041 
L 353 3041 
L 353 3500 
z
" transform="scale(0.015625)"/>
       <path id="DejaVuSans-20" transform="scale(0.015625)"/>
       <path id="DejaVuSans-70" d="M 1159 525 
L 1159 -1331 
L 581 -1331 
L 581 3500 
L 1159 3500 
L 1159 2969 
Q 1341 3281 1617 3432 
Q 1894 3584 2278 3584 
Q 2916 3584 3314 3078 
Q 3713 2572 3713 1747 
Q 3713 922 3314 415 
Q 2916 -91 2278 -91 
Q 1894 -91 1617 61 
Q 1341 213 1159 525 
z
M 3116 1747 
Q 3116 2381 2855 2742 
Q 2594 3103 2138 3103 
Q 1681 3103 1420 2742 
Q 1159 2381 1159 1747 
Q 1159 1113 1420 752 
Q 1681 391 2138 391 
Q 2594 391 2855 752 
Q 3116 1113 3116 1747 
z
" transform="scale(0.015625)"/>
       <path id="DejaVuSans-63" d="M 3122 3366 
L 3122 2828 
Q 2878 2963 2633 3030 
Q 2388 3097 2138 3097 
Q 1578 3097 1268 2742 
Q 959 2388 959 1747 
Q 959 1106 1268 751 
Q 1578 397 2138 397 
Q 2388 397 2633 464 
Q 2878 531 3122 666 
L 3122 134 
Q 2881 22 2623 -34 
Q 2366 -91 2075 -91 
Q 1284 -91 818 406 
Q 353 903 353 1747 
Q 353 2603 823 3093 
Q 1294 3584 2113 3584 
Q 2378 3584 2631 3529 
Q 2884 3475 3122 3366 
z
" transform="scale(0.015625)"/>
      </defs>
      <use xlink:href="#DejaVuSans-53"/>
      <use xlink:href="#DejaVuSans-69" x="63.476562"/>
      <use xlink:href="#DejaVuSans-7a" x="91.259766"/>
      <use xlink:href="#DejaVuSans-65" x="143.75"/>
      <use xlink:href="#DejaVuSans-20" x="205.273438"/>
      <use xlink:href="#DejaVuSans-70" x="237.060547"/>
      <use xlink:href="#DejaVuSans-65" x="300.537109"/>
      <use xlink:href="#DejaVuSans-72" x="362.060547"/>
      <use xlink:href="#DejaVuSans-20" x="403.173828"/>
      <use xlink:href="#DejaVuSans-53" x="434.960938"/>
      <use xlink:href="#DejaVuSans-70" x="498.4375"/>
      <use xlink:href="#DejaVuSans-65" x="561.914062"/>
      <use xlink:href="#DejaVuSans-63" x="623.4375"/>
      <use xlink:href="#DejaVuSans-69" x="678.417969"/>
      <use xlink:href="#DejaVuSans-65" x="706.201172"/>
      <use xlink:href="#DejaVuSans-73" x="767.724609"/>
     </g>
    </g>
   </g>
   <g id="patch_3">
    <path d="M 57.6 307.584 
L 57.6 41.472 
" style="fill: none; stroke: #000000; stroke-width: 0.8; stroke-linejoin: miter; stroke-linecap: square"/>
   </g>
   <g id="patch_4">
    <path d="M 414.72 307.584 
L 414.72 41.472 
" style="fill: none; stroke: #000000; stroke-width: 0.8; stroke-linejoin: miter; stroke-linecap: square"/>
   </g>
   <g id="patch_5">
    <path d="M 57.6 307.584 
L 414.72 307.584 
" style="fill: none; stroke: #000000; stroke-width: 0.8; stroke-linejoin: miter; stroke-linecap: square"/>
   </g>
   <g id="patch_6">
    <path d="M 57.6 41.472 
L 414.72 41.472 
" style="fill: none; stroke: #000000; stroke-width: 0.8; stroke-linejoin: miter; stroke-linecap: square"/>
   </g>
   <g id="text_18">
    <!-- Speciation -->
    <g transform="translate(204.714375 35.472)scale(0.12 -0.12)">
     <use xlink:href="#DejaVuSans-53"/>
     <use xlink:href="#DejaVuSans-70" x="63.476562"/>
     <use xlink:href="#DejaVuSans-65" x="126.953125"/>
     <use xlink:href="#DejaVuSans-63" x="188.476562"/>
     <use xlink:href="#DejaVuSans-69" x="243.457031"/>
     <use xlink:href="#DejaVuSans-61" x="271.240234"/>
     <use xlink:href="#DejaVuSans-74" x="332.519531"/>
     <use xlink:href="#DejaVuSans-69" x="371.728516"/>
     <use xlink:href="#DejaVuSans-6f" x="399.511719"/>
     <use xlink:href="#DejaVuSans-6e" x="460.693359"/>
    </g>
   </g>
  </g>
 </g>
 <defs>
  <clipPath id="p4886e04251">
   <rect x="57.6" y="41.472" width="357.12" height="266.112"/>
  </clipPath>
 </defs>
</svg>
